<svg version="1.1" xmlns="http://www.w3.org/2000/svg" viewBox="0 0 1281.827022290472 745.1338134502112" width="1281.827022290472" height="745.1338134502112">
  <!-- svg-source:excalidraw -->
  
  <defs>
    <style class="style-fonts">
      @font-face {
        font-family: "Virgil";
        src: url("https://excalidraw.com/Virgil.woff2");
      }
      @font-face {
        font-family: "Cascadia";
        src: url("https://excalidraw.com/Cascadia.woff2");
      }
      @font-face {
        font-family: "Assistant";
        src: url("https://excalidraw.com/Assistant-Regular.woff2");
      }
    </style>
    
  </defs>
  <g stroke-linecap="round" transform="translate(10 110.24398961352745) rotate(0 148.67484973156297 310.26021008440784)"><path d="M32 0 C84.99 3.39, 141.11 2.76, 265.35 0 M32 0 C105.88 -2.37, 178.49 -2.74, 265.35 0 M265.35 0 C290.05 2.49, 296.05 11.13, 297.35 32 M265.35 0 C283.01 4.26, 298.84 12.24, 297.35 32 M297.35 32 C298.91 150.11, 297.5 266.09, 297.35 588.52 M297.35 32 C300.06 183.11, 299.99 334.72, 297.35 588.52 M297.35 588.52 C296.31 605.89, 285.4 619.18, 265.35 620.52 M297.35 588.52 C294.95 613.27, 286.73 624.13, 265.35 620.52 M265.35 620.52 C186.78 613.45, 107.3 614.33, 32 620.52 M265.35 620.52 C216.67 616.96, 167.46 616.4, 32 620.52 M32 620.52 C11.6 624.22, -1.52 607.64, 0 588.52 M32 620.52 C11.18 619.73, 1.07 606.08, 0 588.52 M0 588.52 C-2.9 433.46, -3.25 277.33, 0 32 M0 588.52 C3.12 429.68, 2.34 270.39, 0 32 M0 32 C2.12 6.85, 7.95 0.01, 32 0 M0 32 C-4.18 6.19, 9.32 -4.09, 32 0" stroke="#f08c00" stroke-width="1" fill="none"></path></g><g stroke-linecap="round" transform="translate(178.2628841220294 161.82023842017043) rotate(0 37.45000618367044 37.431027972289485)"><path d="M47.5 9.5 C54.37 14.25, 56.53 17.45, 65.4 28.5 M47.5 9.5 C53.61 16.06, 62.27 24.51, 65.4 28.5 M65.4 28.5 C73.6 38.46, 71.7 41.7, 65.4 47.5 M65.4 28.5 C76.39 39.57, 70.77 38.76, 65.4 47.5 M65.4 47.5 C58.87 53.41, 53.96 60.72, 47.5 65.36 M65.4 47.5 C58.36 55.88, 51.58 58.8, 47.5 65.36 M47.5 65.36 C36.71 73.52, 35.91 77.83, 28.5 65.36 M47.5 65.36 C38.05 78.47, 39.67 78.45, 28.5 65.36 M28.5 65.36 C23.37 58.65, 17.16 56.23, 9.5 47.5 M28.5 65.36 C23.61 61.12, 21.11 59.82, 9.5 47.5 M9.5 47.5 C-1.52 35.79, 0.45 37.32, 9.5 28.5 M9.5 47.5 C1.07 34.23, -1 42.56, 9.5 28.5 M9.5 28.5 C15.92 21.13, 16.28 18.73, 28.5 9.5 M9.5 28.5 C13.8 23.15, 19.53 17.2, 28.5 9.5 M28.5 9.5 C35.29 0.01, 34.37 -3.89, 47.5 9.5 M28.5 9.5 C36.66 -4.09, 35.14 -2.05, 47.5 9.5" stroke="#f08c00" stroke-width="1" fill="none"></path></g><g stroke-linecap="round" transform="translate(180.24830287965142 274.06963808387627) rotate(0 37.45000618367044 37.431027972289485)"><path d="M47.5 9.5 C54.2 14.72, 61.97 22.92, 65.4 28.5 M47.5 9.5 C54.57 16.62, 57.72 21.43, 65.4 28.5 M65.4 28.5 C71.7 41.7, 76.2 39.37, 65.4 47.5 M65.4 28.5 C70.77 38.76, 74.56 40.36, 65.4 47.5 M65.4 47.5 C57.47 56.68, 54.78 60.41, 47.5 65.36 M65.4 47.5 C59.23 51.4, 53.52 58.29, 47.5 65.36 M47.5 65.36 C35.91 77.83, 38.04 78, 28.5 65.36 M47.5 65.36 C39.67 78.45, 33.49 74.73, 28.5 65.36 M28.5 65.36 C21.04 59.88, 17.11 57.41, 9.5 47.5 M28.5 65.36 C23.34 61.65, 16.32 53.25, 9.5 47.5 M9.5 47.5 C0.45 37.32, 0.93 34.72, 9.5 28.5 M9.5 47.5 C-1 42.56, -4.46 42.35, 9.5 28.5 M9.5 28.5 C14.13 21.25, 18.03 21.76, 28.5 9.5 M9.5 28.5 C16.49 20.78, 20.01 16.76, 28.5 9.5 M28.5 9.5 C34.37 -3.89, 36.83 -3.56, 47.5 9.5 M28.5 9.5 C35.14 -2.05, 37.23 -0.94, 47.5 9.5" stroke="#f08c00" stroke-width="1" fill="none"></path></g><g stroke-linecap="round" transform="translate(180.24830287965324 390.68490463252783) rotate(0 37.45000618367044 37.431027972289485)"><path d="M47.5 9.5 C55.59 16.47, 58.85 20.34, 65.4 28.5 M47.5 9.5 C52.26 14.91, 56.4 21.93, 65.4 28.5 M65.4 28.5 C76.2 39.37, 71.31 38.66, 65.4 47.5 M65.4 28.5 C74.56 40.36, 78.2 36.31, 65.4 47.5 M65.4 47.5 C62.56 52.87, 54.66 58.09, 47.5 65.36 M65.4 47.5 C57.76 53.37, 50.45 62.42, 47.5 65.36 M47.5 65.36 C38.04 78, 39.45 77.98, 28.5 65.36 M47.5 65.36 C33.49 74.73, 33.64 73.36, 28.5 65.36 M28.5 65.36 C20.73 60.72, 20.25 54.99, 9.5 47.5 M28.5 65.36 C22.49 59.75, 18.3 55.65, 9.5 47.5 M9.5 47.5 C0.93 34.72, -0.87 41.97, 9.5 28.5 M9.5 47.5 C-4.46 42.35, -0.51 41.36, 9.5 28.5 M9.5 28.5 C11.4 28.59, 18.06 20.68, 28.5 9.5 M9.5 28.5 C13.04 23.77, 17.67 16.72, 28.5 9.5 M28.5 9.5 C36.83 -3.56, 35.51 -1.78, 47.5 9.5 M28.5 9.5 C37.23 -0.94, 35.78 -3.62, 47.5 9.5" stroke="#f08c00" stroke-width="1" fill="none"></path></g><g stroke-linecap="round" transform="translate(182.08701280804962 609.7408140327589) rotate(0 37.45000618367044 37.431027972289485)"><path d="M47.5 9.5 C52.93 13.68, 56.99 23.26, 65.4 28.5 M47.5 9.5 C52.26 18.19, 60.99 23.91, 65.4 28.5 M65.4 28.5 C71.31 38.66, 74.6 40.05, 65.4 47.5 M65.4 28.5 C78.2 36.31, 75.39 36.68, 65.4 47.5 M65.4 47.5 C59.65 53.21, 56.11 59.38, 47.5 65.36 M65.4 47.5 C60.65 52.45, 58.12 56.12, 47.5 65.36 M47.5 65.36 C39.45 77.98, 34.08 74.75, 28.5 65.36 M47.5 65.36 C33.64 73.36, 34.84 70.63, 28.5 65.36 M28.5 65.36 C24.07 58.7, 17.79 56.93, 9.5 47.5 M28.5 65.36 C21.4 57.8, 14.19 49.5, 9.5 47.5 M9.5 47.5 C-0.87 41.97, -3.88 41.78, 9.5 28.5 M9.5 47.5 C-0.51 41.36, -4.09 37.34, 9.5 28.5 M9.5 28.5 C14.9 23.42, 17.84 20.84, 28.5 9.5 M9.5 28.5 C11.83 22.67, 16.95 18.94, 28.5 9.5 M28.5 9.5 C35.51 -1.78, 37.33 -0.82, 47.5 9.5 M28.5 9.5 C35.78 -3.62, 41.57 4.32, 47.5 9.5" stroke="#f08c00" stroke-width="1" fill="none"></path></g><g transform="translate(186.34599837778387 516.9495415661204) rotate(0 31.640625 21.600000000000364)"><text x="0" y="34.762499999999996" font-family="Cascadia, Segoe UI Emoji" font-size="36px" fill="#f08c00" text-anchor="start" style="white-space: pre;" direction="ltr" dominant-baseline="alphabetic">...</text></g><g stroke-linecap="round" transform="translate(494.32723839674054 103.62328130102651) rotate(0 151.30804792151093 315.7552660745923)"><path d="M32 0 C99.88 -4.44, 164 -6.03, 270.62 0 M32 0 C124.16 -1.09, 219.19 -0.51, 270.62 0 M270.62 0 C294.82 -1.47, 303.04 9.52, 302.62 32 M270.62 0 C294.83 3.24, 302.15 11.23, 302.62 32 M302.62 32 C304.93 191.33, 305.98 350.85, 302.62 599.51 M302.62 32 C302.96 244.97, 301.88 456.66, 302.62 599.51 M302.62 599.51 C298.83 619.54, 289.2 627.83, 270.62 631.51 M302.62 599.51 C300.83 616.59, 291.53 631.75, 270.62 631.51 M270.62 631.51 C213.85 631.17, 149.06 632.81, 32 631.51 M270.62 631.51 C202.75 629.9, 133.99 629.82, 32 631.51 M32 631.51 C10.22 634.43, -3.56 620.27, 0 599.51 M32 631.51 C8.25 629.02, 4.48 621.4, 0 599.51 M0 599.51 C-0.08 428.2, 1.44 257.6, 0 32 M0 599.51 C0.83 484.1, 1.19 369.25, 0 32 M0 32 C-1.93 7.51, 13.77 3.76, 32 0 M0 32 C-4.41 9.19, 10.77 -2.23, 32 0" stroke="#f08c00" stroke-width="1" fill="none"></path></g><g stroke-linecap="round" transform="translate(549.473750371495 156.1130032690471) rotate(0 38.11328775869424 38.09397342192369)"><path d="M48.75 9.75 C56.27 14.16, 66.31 26.15, 66.48 29.25 M48.75 9.75 C54.18 17.23, 61.68 21.99, 66.48 29.25 M66.48 29.25 C76.65 37.85, 78.73 41.82, 66.48 48.75 M66.48 29.25 C75.76 39.56, 75.38 42.95, 66.48 48.75 M66.48 48.75 C59.93 51.4, 59.38 58.38, 48.75 66.44 M66.48 48.75 C57.94 55.66, 51.3 61.76, 48.75 66.44 M48.75 66.44 C36.25 72.51, 37.44 72.49, 29.25 66.44 M48.75 66.44 C38.58 76.42, 36.74 74.9, 29.25 66.44 M29.25 66.44 C20.4 61.02, 15.63 55.78, 9.75 48.75 M29.25 66.44 C23.13 64.86, 20.6 60.57, 9.75 48.75 M9.75 48.75 C-3.56 38.42, -2.1 36.84, 9.75 29.25 M9.75 48.75 C4.48 39.56, 0 37.54, 9.75 29.25 M9.75 29.25 C17.01 19, 20 14.58, 29.25 9.75 M9.75 29.25 C13.77 24.9, 17.26 19.62, 29.25 9.75 M29.25 9.75 C42.1 3.76, 35.16 -1.28, 48.75 9.75 M29.25 9.75 C39.1 -2.23, 43.09 -1.26, 48.75 9.75" stroke="#f08c00" stroke-width="1" fill="none"></path></g><g stroke-linecap="round" transform="translate(547.4531676228662 270.3504655845809) rotate(0 38.11328775869424 38.09397342192369)"><path d="M48.75 9.75 C57.24 16.55, 59.65 16.87, 66.48 29.25 M48.75 9.75 C55.77 15.01, 60.16 21.34, 66.48 29.25 M66.48 29.25 C78.73 41.82, 75.82 39.49, 66.48 48.75 M66.48 29.25 C75.38 42.95, 75.03 34.44, 66.48 48.75 M66.48 48.75 C64.58 53.35, 60 59.49, 48.75 66.44 M66.48 48.75 C57.54 54.77, 51.36 60.27, 48.75 66.44 M48.75 66.44 C37.44 72.49, 38.64 76.39, 29.25 66.44 M48.75 66.44 C36.74 74.9, 40.07 80.44, 29.25 66.44 M29.25 66.44 C23.65 62.77, 15.95 56.34, 9.75 48.75 M29.25 66.44 C21.59 61.21, 12.25 52.4, 9.75 48.75 M9.75 48.75 C-2.1 36.84, 3.9 39.49, 9.75 29.25 M9.75 48.75 C0 37.54, 2.44 34.62, 9.75 29.25 M9.75 29.25 C10.39 23.91, 15.24 18.06, 29.25 9.75 M9.75 29.25 C13.83 22.77, 21.33 21.25, 29.25 9.75 M29.25 9.75 C35.16 -1.28, 39.09 -1.94, 48.75 9.75 M29.25 9.75 C43.09 -1.26, 36.53 2.74, 48.75 9.75" stroke="#f08c00" stroke-width="1" fill="none"></path></g><g stroke-linecap="round" transform="translate(547.4531676228662 389.0311191798701) rotate(0 38.11328775869424 38.09397342192369)"><path d="M48.75 9.75 C54.38 10.33, 57.58 17.92, 66.48 29.25 M48.75 9.75 C55.47 16.16, 62.74 24.99, 66.48 29.25 M66.48 29.25 C75.82 39.49, 75.49 42.44, 66.48 48.75 M66.48 29.25 C75.03 34.44, 74.75 37.46, 66.48 48.75 M66.48 48.75 C65.48 54.59, 61.07 53.6, 48.75 66.44 M66.48 48.75 C59.5 52.05, 54.83 57.3, 48.75 66.44 M48.75 66.44 C38.64 76.39, 37.03 75.07, 29.25 66.44 M48.75 66.44 C40.07 80.44, 37.26 73.64, 29.25 66.44 M29.25 66.44 C19.96 60.16, 21.14 51.64, 9.75 48.75 M29.25 66.44 C19.82 59.46, 12.85 51.68, 9.75 48.75 M9.75 48.75 C3.9 39.49, 0 37.73, 9.75 29.25 M9.75 48.75 C2.44 34.62, -3.12 39.01, 9.75 29.25 M9.75 29.25 C10.65 22.8, 16.5 20.54, 29.25 9.75 M9.75 29.25 C16.94 25.98, 18.92 18.01, 29.25 9.75 M29.25 9.75 C39.09 -1.94, 42.55 -1.09, 48.75 9.75 M29.25 9.75 C36.53 2.74, 36.26 -3.58, 48.75 9.75" stroke="#f08c00" stroke-width="1" fill="none"></path></g><g stroke-linecap="round" transform="translate(545.5818920812262 611.9667542039806) rotate(0 38.11328775869424 38.09397342192369)"><path d="M48.75 9.75 C55.44 16.26, 62.72 25.9, 66.48 29.25 M48.75 9.75 C54.71 16.39, 57.92 20.36, 66.48 29.25 M66.48 29.25 C75.49 42.44, 75.19 35.04, 66.48 48.75 M66.48 29.25 C74.75 37.46, 73.83 42.41, 66.48 48.75 M66.48 48.75 C64.53 50.28, 55.97 55.74, 48.75 66.44 M66.48 48.75 C60.71 51.3, 56.57 57.99, 48.75 66.44 M48.75 66.44 C37.03 75.07, 39.93 79.88, 29.25 66.44 M48.75 66.44 C37.26 73.64, 39.52 75.4, 29.25 66.44 M29.25 66.44 C27.2 56.76, 20.72 54.47, 9.75 48.75 M29.25 66.44 C21.24 58.7, 16.96 53.43, 9.75 48.75 M9.75 48.75 C0 37.73, 2.12 35.19, 9.75 29.25 M9.75 48.75 C-3.12 39.01, -4.18 34.53, 9.75 29.25 M9.75 29.25 C13.59 23.54, 19.84 17, 29.25 9.75 M9.75 29.25 C11.84 23.93, 18.12 19.29, 29.25 9.75 M29.25 9.75 C42.55 -1.09, 36.85 2.38, 48.75 9.75 M29.25 9.75 C36.26 -3.58, 36.24 -3.04, 48.75 9.75" stroke="#f08c00" stroke-width="1" fill="none"></path></g><g transform="translate(553.0720187730949 517.5320443224537) rotate(0 32.20101592441824 21.982560204402944)"><text x="0" y="35.37818282896091" font-family="Cascadia, Segoe UI Emoji" font-size="36.63760034067149px" fill="#f08c00" text-anchor="start" style="white-space: pre;" direction="ltr" dominant-baseline="alphabetic">...</text></g><g stroke-linecap="round"><g transform="translate(217.88541818961403 198.3876241252492) rotate(0 189.68328964192028 0.19734284993319307)"><path d="M2.01 -1.03 C65.32 -1.34, 316.48 -0.97, 379.66 -0.41 M-0.35 -4.06 C62.64 -4.09, 314.15 2.46, 377.59 2.79" stroke="#f08c00" stroke-width="1" fill="none"></path></g><g transform="translate(217.88541818961403 198.3876241252492) rotate(0 189.68328964192028 0.19734284993319307)"><path d="M1.47 -15.87 C1.66 -10.7, 3.15 -7.4, 2.19 -1.31 M1.78 -16.28 C1.58 -9.68, 1.98 -3.86, 2.28 -0.45" stroke="#f08c00" stroke-width="1" fill="none"></path></g><g transform="translate(217.88541818961403 198.3876241252492) rotate(0 189.68328964192028 0.19734284993319307)"><path d="M1.45 14.13 C1.49 10.52, 2.98 5.04, 2.19 -1.31 M1.76 13.72 C1.65 8.74, 2.05 2.98, 2.28 -0.45" stroke="#f08c00" stroke-width="1" fill="none"></path></g><g transform="translate(217.88541818961403 198.3876241252492) rotate(0 189.68328964192028 0.19734284993319307)"><path d="M353.22 11.16 C360.26 9.64, 369.15 5.8, 377.83 2.42 M353.64 10.61 C362.58 8.77, 372.23 5.67, 377.95 3.57" stroke="#f08c00" stroke-width="1" fill="none"></path></g><g transform="translate(217.88541818961403 198.3876241252492) rotate(0 189.68328964192028 0.19734284993319307)"><path d="M353.51 -5.94 C360.55 -2.45, 369.36 -1.29, 377.83 2.42 M353.92 -6.49 C362.71 -1.73, 372.25 1.76, 377.95 3.57" stroke="#f08c00" stroke-width="1" fill="none"></path></g></g><mask></mask><g stroke-linecap="round"><g transform="translate(215.08829215068636 313.24286410906825) rotate(0 482.8312054682069 -55.288913913142096)"><path d="M0.3 -0.8 C161.2 -18.73, 806.57 -90.36, 967.42 -108.6 M-2.98 -3.71 C157.52 -22.32, 805.07 -95.34, 966.13 -112.54" stroke="#f08c00" stroke-width="1" fill="none"></path></g><g transform="translate(215.08829215068636 313.24286410906825) rotate(0 482.8312054682069 -55.288913913142096)"><path d="M-1.79 -14.77 C0.26 -10.32, 0 -4.9, 1.59 -1.19 M-1.75 -15.15 C-1.07 -12.12, -0.47 -9.13, -0.44 -0.82" stroke="#f08c00" stroke-width="1" fill="none"></path></g><g transform="translate(215.08829215068636 313.24286410906825) rotate(0 482.8312054682069 -55.288913913142096)"><path d="M1.53 15.05 C2.45 8.41, 0.96 2.75, 1.59 -1.19 M1.57 14.66 C1.68 11.69, 1.61 8.69, -0.44 -0.82" stroke="#f08c00" stroke-width="1" fill="none"></path></g><g transform="translate(215.08829215068636 313.24286410906825) rotate(0 482.8312054682069 -55.288913913142096)"><path d="M943.15 -100.22 C953.5 -105.81, 960.66 -110.09, 967.85 -113.06 M943.2 -100.73 C948.27 -102.83, 953.12 -105.06, 965.15 -112.57" stroke="#f08c00" stroke-width="1" fill="none"></path></g><g transform="translate(215.08829215068636 313.24286410906825) rotate(0 482.8312054682069 -55.288913913142096)"><path d="M941.27 -117.21 C952.26 -116.49, 960.12 -114.46, 967.85 -113.06 M941.32 -117.72 C946.72 -116.41, 951.95 -115.23, 965.15 -112.57" stroke="#f08c00" stroke-width="1" fill="none"></path></g></g><mask></mask><g stroke-linecap="round"><g transform="translate(214.98362498048027 426.77727911356305) rotate(0 185.2055773221066 -55.69658269524007)"><path d="M1.75 1.97 C63.39 -16.4, 308.77 -92.56, 370.13 -111.05 M-0.74 0.58 C60.48 -17.21, 306.31 -88.27, 367.73 -107.24" stroke="#f08c00" stroke-width="1" fill="none"></path></g><g transform="translate(214.98362498048027 426.77727911356305) rotate(0 185.2055773221066 -55.69658269524007)"><path d="M-1.59 -12.52 C-1.14 -8.21, 1.34 -3.87, 0.27 1.49 M-2.64 -11.78 C-1.28 -7.99, -1.11 -4.78, 1.04 1.73" stroke="#f08c00" stroke-width="1" fill="none"></path></g><g transform="translate(214.98362498048027 426.77727911356305) rotate(0 185.2055773221066 -55.69658269524007)"><path d="M7.21 16.16 C5.01 11.61, 4.75 7.04, 0.27 1.49 M6.17 16.9 C5.33 13.11, 3.15 8.68, 1.04 1.73" stroke="#f08c00" stroke-width="1" fill="none"></path></g><g transform="translate(214.98362498048027 426.77727911356305) rotate(0 185.2055773221066 -55.69658269524007)"><path d="M349.06 -92.55 C354.18 -97.46, 361.89 -102.24, 365.75 -107.88 M347.66 -91.56 C353.45 -95.68, 357.45 -100.46, 366.79 -107.56" stroke="#f08c00" stroke-width="1" fill="none"></path></g><g transform="translate(214.98362498048027 426.77727911356305) rotate(0 185.2055773221066 -55.69658269524007)"><path d="M344.19 -108.94 C350.77 -108.79, 360 -108.48, 365.75 -107.88 M342.79 -107.95 C349.78 -107.74, 355.09 -108.15, 366.79 -107.56" stroke="#f08c00" stroke-width="1" fill="none"></path></g></g><mask></mask><g transform="translate(44.579293959940514 131.64793716741042) rotate(0 73.828125 21.600000000000364)"><text x="0" y="34.762499999999996" font-family="Cascadia, Segoe UI Emoji" font-size="36px" fill="#f08c00" text-anchor="start" style="white-space: pre;" direction="ltr" dominant-baseline="alphabetic">m ports</text></g><g transform="translate(614.0118776997178 122.82275548659891) rotate(0 73.828125 21.600000000000364)"><text x="0" y="34.762499999999996" font-family="Cascadia, Segoe UI Emoji" font-size="36px" fill="#f08c00" text-anchor="start" style="white-space: pre;" direction="ltr" dominant-baseline="alphabetic">m ports</text></g><g stroke-linecap="round" transform="translate(974.4773228273461 106.76888791450438) rotate(0 148.67484973156297 310.26021008440784)"><path d="M32 0 C112.71 1.17, 190.51 0.96, 265.35 0 M32 0 C105.83 5.36, 177.68 2.81, 265.35 0 M265.35 0 C289.72 2.9, 298.44 6.88, 297.35 32 M265.35 0 C284.07 -3.12, 301.65 13.79, 297.35 32 M297.35 32 C294.22 254.02, 295.56 474.77, 297.35 588.52 M297.35 32 C293.33 184.73, 293.62 336.6, 297.35 588.52 M297.35 588.52 C295.73 612.99, 287.7 621.69, 265.35 620.52 M297.35 588.52 C297.97 609.42, 287.54 624.22, 265.35 620.52 M265.35 620.52 C177.78 617.09, 88.2 618.12, 32 620.52 M265.35 620.52 C199.93 620.68, 134.35 620.94, 32 620.52 M32 620.52 C12.97 622.35, -3.02 609.48, 0 588.52 M32 620.52 C10.86 622.31, -2.38 613.53, 0 588.52 M0 588.52 C1.43 452.03, 1.64 314.85, 0 32 M0 588.52 C-1.74 434.23, -2.74 279.66, 0 32 M0 32 C-3.58 12.06, 8.69 -1.32, 32 0 M0 32 C3.27 11.92, 11.21 2.1, 32 0" stroke="#f08c00" stroke-width="1" fill="none"></path></g><g stroke-linecap="round" transform="translate(1142.7402069493755 158.34513672114372) rotate(0 37.45000618367021 37.431027972289485)"><path d="M47.5 9.5 C52.98 16.8, 59.24 19.63, 65.4 28.5 M47.5 9.5 C51.06 11.67, 56.39 18.25, 65.4 28.5 M65.4 28.5 C75.99 34.21, 72.62 35.29, 65.4 47.5 M65.4 28.5 C79.2 41.12, 79.45 36.21, 65.4 47.5 M65.4 47.5 C61.16 47.89, 56.47 51.11, 47.5 65.36 M65.4 47.5 C61.56 52.08, 53.41 60.48, 47.5 65.36 M47.5 65.36 C39.02 76.03, 38.54 74.49, 28.5 65.36 M47.5 65.36 C38.86 78.56, 41.7 77.47, 28.5 65.36 M28.5 65.36 C23.87 59.26, 17.44 59.06, 9.5 47.5 M28.5 65.36 C20.45 57.93, 17.05 54.01, 9.5 47.5 M9.5 47.5 C-3.02 37.63, 0.17 39.55, 9.5 28.5 M9.5 47.5 C-2.38 41.67, -2.46 35.67, 9.5 28.5 M9.5 28.5 C12.12 25.95, 16.66 22.65, 28.5 9.5 M9.5 28.5 C14.16 21.51, 18.85 17.78, 28.5 9.5 M28.5 9.5 C36.02 -1.32, 40.85 1.09, 47.5 9.5 M28.5 9.5 C38.55 2.1, 40.01 -4.39, 47.5 9.5" stroke="#f08c00" stroke-width="1" fill="none"></path></g><g stroke-linecap="round" transform="translate(1144.7256257069985 270.5945363848532) rotate(0 37.450006183670666 37.431027972289485)"><path d="M47.5 9.5 C54.17 14.46, 55.86 24.62, 65.4 28.5 M47.5 9.5 C55.86 18.5, 61.77 22.46, 65.4 28.5 M65.4 28.5 C72.62 35.29, 78.64 40.71, 65.4 47.5 M65.4 28.5 C79.45 36.21, 70.84 34, 65.4 47.5 M65.4 47.5 C59.03 48.56, 55.42 59.71, 47.5 65.36 M65.4 47.5 C59.08 54.65, 54.59 59.46, 47.5 65.36 M47.5 65.36 C38.54 74.49, 38.75 78.08, 28.5 65.36 M47.5 65.36 C41.7 77.47, 36.34 76.52, 28.5 65.36 M28.5 65.36 C22.98 64.31, 20.73 55.02, 9.5 47.5 M28.5 65.36 C25.68 62.01, 18.71 56.87, 9.5 47.5 M9.5 47.5 C0.17 39.55, -2.07 41.19, 9.5 28.5 M9.5 47.5 C-2.46 35.67, -4.25 35.64, 9.5 28.5 M9.5 28.5 C15.21 24.06, 22.69 18.91, 28.5 9.5 M9.5 28.5 C13.28 24.02, 19.5 17.24, 28.5 9.5 M28.5 9.5 C40.85 1.09, 38.48 1.82, 47.5 9.5 M28.5 9.5 C40.01 -4.39, 35.74 2.68, 47.5 9.5" stroke="#f08c00" stroke-width="1" fill="none"></path></g><g stroke-linecap="round" transform="translate(1144.7256257069994 387.2098029335011) rotate(0 37.45000618367021 37.431027972289485)"><path d="M47.5 9.5 C49.63 18.2, 63.09 22.08, 65.4 28.5 M47.5 9.5 C52.51 11.78, 55.01 16.75, 65.4 28.5 M65.4 28.5 C78.64 40.71, 78.86 36.44, 65.4 47.5 M65.4 28.5 C70.84 34, 74.78 37.84, 65.4 47.5 M65.4 47.5 C62.13 52.88, 58.57 58.18, 47.5 65.36 M65.4 47.5 C61.44 52.68, 56.88 56.22, 47.5 65.36 M47.5 65.36 C38.75 78.08, 41.22 77.13, 28.5 65.36 M47.5 65.36 C36.34 76.52, 35.27 75.45, 28.5 65.36 M28.5 65.36 C24.85 59.21, 15.34 52.36, 9.5 47.5 M28.5 65.36 C22.18 61.03, 19.18 57.66, 9.5 47.5 M9.5 47.5 C-2.07 41.19, -2.14 35.98, 9.5 28.5 M9.5 47.5 C-4.25 35.64, 1.9 36.26, 9.5 28.5 M9.5 28.5 C16.1 25.38, 21.88 13.93, 28.5 9.5 M9.5 28.5 C13.31 23.25, 20.18 19.99, 28.5 9.5 M28.5 9.5 C38.48 1.82, 39.75 -3.81, 47.5 9.5 M28.5 9.5 C35.74 2.68, 38.55 2.31, 47.5 9.5" stroke="#f08c00" stroke-width="1" fill="none"></path></g><g stroke-linecap="round" transform="translate(1146.5643356353958 606.2657123337322) rotate(0 37.450006183670666 37.431027972289485)"><path d="M47.5 9.5 C55.22 13.86, 53.88 22.35, 65.4 28.5 M47.5 9.5 C53.13 15.56, 62.81 25.35, 65.4 28.5 M65.4 28.5 C78.86 36.44, 71.37 34.52, 65.4 47.5 M65.4 28.5 C74.78 37.84, 71.01 36.81, 65.4 47.5 M65.4 47.5 C62.83 54.6, 55.91 53.24, 47.5 65.36 M65.4 47.5 C58.99 54.17, 52.32 62.73, 47.5 65.36 M47.5 65.36 C41.22 77.13, 36.56 76.31, 28.5 65.36 M47.5 65.36 C35.27 75.45, 36.66 73.82, 28.5 65.36 M28.5 65.36 C18.14 54.71, 11.47 53.8, 9.5 47.5 M28.5 65.36 C22.28 59.93, 14.59 54.57, 9.5 47.5 M9.5 47.5 C-2.14 35.98, -3.7 35.95, 9.5 28.5 M9.5 47.5 C1.9 36.26, 1.79 36.94, 9.5 28.5 M9.5 28.5 C15.65 19.94, 20.37 11.11, 28.5 9.5 M9.5 28.5 C17.47 22.81, 22.65 16.81, 28.5 9.5 M28.5 9.5 C39.75 -3.81, 36.04 2.33, 47.5 9.5 M28.5 9.5 C38.55 2.31, 37.11 1.53, 47.5 9.5" stroke="#f08c00" stroke-width="1" fill="none"></path></g><g transform="translate(1150.82332120513 513.4744398670937) rotate(0 31.640625 21.600000000000364)"><text x="0" y="34.762499999999996" font-family="Cascadia, Segoe UI Emoji" font-size="36px" fill="#f08c00" text-anchor="start" style="white-space: pre;" direction="ltr" dominant-baseline="alphabetic">...</text></g><g transform="translate(1009.0566167872876 128.18261096559763) rotate(0 73.828125 21.600000000000364)"><text x="0" y="34.762499999999996" font-family="Cascadia, Segoe UI Emoji" font-size="36px" fill="#f08c00" text-anchor="start" style="white-space: pre;" direction="ltr" dominant-baseline="alphabetic">m ports</text></g><g stroke-linecap="round"><g transform="translate(216.4412030334006 654.2041205916412) rotate(0 484.60889491011176 -48.35758997908397)"><path d="M-2.44 2.24 C158.56 -14.03, 804.61 -77.93, 966.65 -94.83 M1.43 0.99 C163.2 -14.88, 810.52 -82.43, 971.66 -98.82" stroke="#f08c00" stroke-width="1" fill="none"></path></g><g transform="translate(216.4412030334006 654.2041205916412) rotate(0 484.60889491011176 -48.35758997908397)"><path d="M-2.73 -14.06 C-2.3 -7.54, -4.13 -4.46, -2.3 2.86 M-3.86 -13.26 C-3.89 -8.79, -3.37 -3.81, -2.74 2.23" stroke="#f08c00" stroke-width="1" fill="none"></path></g><g transform="translate(216.4412030334006 654.2041205916412) rotate(0 484.60889491011176 -48.35758997908397)"><path d="M0.25 15.79 C-0.57 12.64, -3.37 6.08, -2.3 2.86 M-0.88 16.59 C-1.58 11.83, -1.98 7.59, -2.74 2.23" stroke="#f08c00" stroke-width="1" fill="none"></path></g><g transform="translate(216.4412030334006 654.2041205916412) rotate(0 484.60889491011176 -48.35758997908397)"><path d="M950.77 -89.74 C957.67 -90.82, 961.85 -96.66, 971.86 -98 M949.27 -88.67 C955.82 -92.1, 962.84 -94.97, 971.26 -98.83" stroke="#f08c00" stroke-width="1" fill="none"></path></g><g transform="translate(216.4412030334006 654.2041205916412) rotate(0 484.60889491011176 -48.35758997908397)"><path d="M949.02 -106.75 C956.65 -102.32, 961.4 -102.67, 971.86 -98 M947.51 -105.68 C954.47 -103.85, 962.03 -101.47, 971.26 -98.83" stroke="#f08c00" stroke-width="1" fill="none"></path></g></g><mask></mask><g stroke-linecap="round"><g transform="translate(222.52293697749246 551.3599329958397) rotate(0 186.21802862301865 -60.55821239377383)"><path d="M2.51 -0.48 C63.96 -21.28, 309.66 -103.76, 371.21 -123.7 M0.42 -3.21 C61.16 -23.86, 306.76 -101.16, 368.3 -121.47" stroke="#f08c00" stroke-width="1" fill="none"></path></g><g transform="translate(222.52293697749246 551.3599329958397) rotate(0 186.21802862301865 -60.55821239377383)"><path d="M-2.52 -15.36 C-1.73 -9.54, 2.05 -3.27, 3.59 0.67 M-2.96 -13.99 C-0.89 -10.83, 0.55 -6.21, 2.6 -0.9" stroke="#f08c00" stroke-width="1" fill="none"></path></g><g transform="translate(222.52293697749246 551.3599329958397) rotate(0 186.21802862301865 -60.55821239377383)"><path d="M7.02 13.08 C3.98 7.91, 4.05 3.09, 3.59 0.67 M6.58 14.46 C6.18 9.57, 4.92 6.18, 2.6 -0.9" stroke="#f08c00" stroke-width="1" fill="none"></path></g><g transform="translate(222.52293697749246 551.3599329958397) rotate(0 186.21802862301865 -60.55821239377383)"><path d="M348.21 -107.01 C354.34 -112.74, 364.61 -117.74, 369.74 -119.94 M347.63 -105.18 C354.42 -110.62, 360.11 -114.12, 368.43 -122.03" stroke="#f08c00" stroke-width="1" fill="none"></path></g><g transform="translate(222.52293697749246 551.3599329958397) rotate(0 186.21802862301865 -60.55821239377383)"><path d="M342.97 -123.29 C351.21 -122.72, 363.51 -121.38, 369.74 -119.94 M342.39 -121.46 C350.54 -122.29, 357.7 -121.2, 368.43 -122.03" stroke="#f08c00" stroke-width="1" fill="none"></path></g></g><mask></mask><g stroke-linecap="round"><g transform="translate(587.0472566532444 655.3044749963738) rotate(0 300.5827924232831 -1.7025403071002074)"><path d="M0.6 1.71 C100.89 1.68, 499.4 -0.11, 599.73 -1.11 M-2.51 0.18 C98.9 -0.53, 504.67 -4.57, 605.35 -4.87" stroke="#f08c00" stroke-width="1" fill="none"></path></g><g transform="translate(587.0472566532444 655.3044749963738) rotate(0 300.5827924232831 -1.7025403071002074)"><path d="M1.46 -14.06 C1.74 -9.11, 0.05 -7.47, 1.79 2.33 M0.91 -13.64 C1.37 -10.66, 0.94 -6.99, 1.06 1.19" stroke="#f08c00" stroke-width="1" fill="none"></path></g><g transform="translate(587.0472566532444 655.3044749963738) rotate(0 300.5827924232831 -1.7025403071002074)"><path d="M1.58 15.94 C1.93 14.05, 0.21 8.85, 1.79 2.33 M1.03 16.36 C1.31 12.98, 0.85 10.3, 1.06 1.19" stroke="#f08c00" stroke-width="1" fill="none"></path></g><g transform="translate(587.0472566532444 655.3044749963738) rotate(0 300.5827924232831 -1.7025403071002074)"><path d="M583.14 2.81 C588.92 2.82, 591.99 -1.54, 606.92 -4.05 M582.41 3.37 C587.81 1.2, 592.18 0.02, 605.95 -5.56" stroke="#f08c00" stroke-width="1" fill="none"></path></g><g transform="translate(587.0472566532444 655.3044749963738) rotate(0 300.5827924232831 -1.7025403071002074)"><path d="M583.02 -14.29 C588.78 -10.39, 591.87 -10.85, 606.92 -4.05 M582.29 -13.73 C587.81 -12.28, 592.21 -9.84, 605.95 -5.56" stroke="#f08c00" stroke-width="1" fill="none"></path></g></g><mask></mask><g transform="translate(434.4235160510025 10) rotate(0 242.578125 21.600000000000364)"><text x="485.15625" y="34.762499999999996" font-family="Cascadia, Segoe UI Emoji" font-size="36px" fill="#f08c00" text-anchor="end" style="white-space: pre;" direction="ltr" dominant-baseline="alphabetic">floor(mn/2) connections</text></g><g stroke-linecap="round"><g transform="translate(594.9484550156003 540.9405512779012) rotate(0 292.4381994546052 -115.62255716983327)"><path d="M-0.23 2.33 C97.07 -35.49, 488.74 -190.98, 586.58 -229.65 M-3.8 1.13 C93.03 -37.26, 486.95 -194.54, 585.27 -233.79" stroke="#f08c00" stroke-width="1" fill="none"></path></g><g transform="translate(594.9484550156003 540.9405512779012) rotate(0 292.4381994546052 -115.62255716983327)"><path d="M-4.49 -10.7 C-2.83 -4.99, -0.65 -1.25, -1.58 0.99 M-5.28 -12.06 C-4.2 -6.27, -1.99 -2.23, -0.06 1.8" stroke="#f08c00" stroke-width="1" fill="none"></path></g><g transform="translate(594.9484550156003 540.9405512779012) rotate(0 292.4381994546052 -115.62255716983327)"><path d="M6.53 17.2 C4.07 11.78, 1.85 4.4, -1.58 0.99 M5.74 15.85 C3.21 12.3, 1.74 7, -0.06 1.8" stroke="#f08c00" stroke-width="1" fill="none"></path></g><g transform="translate(594.9484550156003 540.9405512779012) rotate(0 292.4381994546052 -115.62255716983327)"><path d="M568.29 -215.92 C575.36 -222.35, 582.77 -231.41, 583.48 -235.58 M567.24 -217.72 C572.57 -221.81, 579.31 -228.23, 585.51 -234.5" stroke="#f08c00" stroke-width="1" fill="none"></path></g><g transform="translate(594.9484550156003 540.9405512779012) rotate(0 292.4381994546052 -115.62255716983327)"><path d="M561.95 -231.8 C571.4 -231.89, 581.33 -234.62, 583.48 -235.58 M560.9 -233.61 C568.3 -232.38, 577.16 -233.48, 585.51 -234.5" stroke="#f08c00" stroke-width="1" fill="none"></path></g></g><mask></mask><g stroke-linecap="round"><g transform="translate(596.9110388227082 556.5650797760281) rotate(0 296.27974074503163 -67.89182094935768)"><path d="M0.04 1.87 C98.47 -20.84, 493.33 -113.14, 591.72 -135.74 M-3.38 0.42 C94.49 -21.85, 489.13 -109, 589.03 -132.09" stroke="#f08c00" stroke-width="1" fill="none"></path></g><g transform="translate(596.9110388227082 556.5650797760281) rotate(0 296.27974074503163 -67.89182094935768)"><path d="M-2.36 -13.19 C-2.15 -8.93, 0.08 -2.26, 1.48 2 M-2.97 -12.28 C-2.31 -7.7, -1.28 -3.06, -0.69 1.88" stroke="#f08c00" stroke-width="1" fill="none"></path></g><g transform="translate(596.9110388227082 556.5650797760281) rotate(0 296.27974074503163 -67.89182094935768)"><path d="M4.44 16.03 C2.28 10.34, 2.2 7.06, 1.48 2 M3.83 16.94 C2.32 11.91, 1.11 6.97, -0.69 1.88" stroke="#f08c00" stroke-width="1" fill="none"></path></g><g transform="translate(596.9110388227082 556.5650797760281) rotate(0 296.27974074503163 -67.89182094935768)"><path d="M569.33 -119.18 C575.16 -124.74, 583.77 -127.08, 590.95 -131.91 M568.51 -117.98 C574.87 -122.6, 581.64 -127.22, 588.06 -132.08" stroke="#f08c00" stroke-width="1" fill="none"></path></g><g transform="translate(596.9110388227082 556.5650797760281) rotate(0 296.27974074503163 -67.89182094935768)"><path d="M565.57 -135.86 C572.72 -135.74, 582.6 -132.4, 590.95 -131.91 M564.75 -134.66 C572.31 -133.8, 580.32 -132.95, 588.06 -132.08" stroke="#f08c00" stroke-width="1" fill="none"></path></g></g><mask></mask></svg>