<svg version="1.1" xmlns="http://www.w3.org/2000/svg" viewBox="0 0 807.3109194515253 735.3219254239593" width="807.3109194515253" height="735.3219254239593">
  <!-- svg-source:excalidraw -->
  
  <defs>
    <style class="style-fonts">
      @font-face {
        font-family: "Virgil";
        src: url("https://excalidraw.com/Virgil.woff2");
      }
      @font-face {
        font-family: "Cascadia";
        src: url("https://excalidraw.com/Cascadia.woff2");
      }
      @font-face {
        font-family: "Assistant";
        src: url("https://excalidraw.com/Assistant-Regular.woff2");
      }
    </style>
    
  </defs>
  <g stroke-linecap="round" transform="translate(10 99.53329044143356) rotate(0 148.67484973156286 310.26021008440784)"><path d="M32 0 C125.67 3.86, 218.53 5.66, 265.35 0 M32 0 C114.31 -2.19, 197.47 -0.93, 265.35 0 M265.35 0 C288.53 1.92, 294.31 9.37, 297.35 32 M265.35 0 C291.08 1.32, 292.87 11.78, 297.35 32 M297.35 32 C297.76 164.09, 295.99 297.73, 297.35 588.52 M297.35 32 C294.18 248.97, 293.47 465.05, 297.35 588.52 M297.35 588.52 C300.44 610.37, 284.37 623.34, 265.35 620.52 M297.35 588.52 C294.98 611.94, 285.01 622.08, 265.35 620.52 M265.35 620.52 C174.13 626.91, 81.04 624.37, 32 620.52 M265.35 620.52 C186.57 620.77, 106.14 619.03, 32 620.52 M32 620.52 C10.72 621.53, 1.44 607.85, 0 588.52 M32 620.52 C14.98 617.95, 4.51 608.73, 0 588.52 M0 588.52 C-3.06 417.09, -2.96 242.81, 0 32 M0 588.52 C-2.78 453.5, -1.8 319.32, 0 32 M0 32 C-3.05 11.84, 14.57 -1.3, 32 0 M0 32 C2.43 8.8, 6.11 0.61, 32 0" stroke="#f08c00" stroke-width="1" fill="none"></path></g><g stroke-linecap="round" transform="translate(178.26288412202916 151.10953924807654) rotate(0 37.45000618367044 37.431027972289485)"><path d="M47.5 9.5 C55.55 14.39, 62.04 25.03, 65.4 28.5 M47.5 9.5 C55.35 17.34, 59.88 23.21, 65.4 28.5 M65.4 28.5 C76.78 38.76, 78.4 36.86, 65.4 47.5 M65.4 28.5 C79.23 35.28, 76.44 35.66, 65.4 47.5 M65.4 47.5 C60.23 51.9, 57.47 59.15, 47.5 65.36 M65.4 47.5 C56.97 54.22, 50.13 59.86, 47.5 65.36 M47.5 65.36 C37.4 76.43, 38.13 71.92, 28.5 65.36 M47.5 65.36 C41.66 75.88, 36.41 78.8, 28.5 65.36 M28.5 65.36 C20.84 62.38, 17.19 52.66, 9.5 47.5 M28.5 65.36 C22.43 60.03, 14.74 53.6, 9.5 47.5 M9.5 47.5 C0.21 35.05, 3.1 37.83, 9.5 28.5 M9.5 47.5 C-1.38 39.65, -0.61 41.45, 9.5 28.5 M9.5 28.5 C14.6 27.72, 21.59 20.86, 28.5 9.5 M9.5 28.5 C16.69 22.56, 21.62 16.36, 28.5 9.5 M28.5 9.5 C39.05 2.28, 41.08 2.19, 47.5 9.5 M28.5 9.5 C39.66 0, 34.74 -3.61, 47.5 9.5" stroke="#f08c00" stroke-width="1" fill="none"></path></g><g stroke-linecap="round" transform="translate(180.2483028796521 263.3589389117842) rotate(0 37.45000618367044 37.431027972289485)"><path d="M47.5 9.5 C54.08 19.3, 54.2 24.17, 65.4 28.5 M47.5 9.5 C53.42 15.11, 61.5 21.7, 65.4 28.5 M65.4 28.5 C71.02 34.26, 74.1 36.82, 65.4 47.5 M65.4 28.5 C70.38 40.46, 79.01 35.3, 65.4 47.5 M65.4 47.5 C61.39 53.84, 57.07 51.21, 47.5 65.36 M65.4 47.5 C60.19 53.48, 54.58 56.88, 47.5 65.36 M47.5 65.36 C36.33 73.52, 37.13 71.6, 28.5 65.36 M47.5 65.36 C36.62 77.27, 39.21 75.05, 28.5 65.36 M28.5 65.36 C20.51 55.34, 10.17 54.39, 9.5 47.5 M28.5 65.36 C20.77 60.26, 18.04 54.05, 9.5 47.5 M9.5 47.5 C2.56 36.92, 3.92 35.37, 9.5 28.5 M9.5 47.5 C2.91 40.23, 4.27 34.95, 9.5 28.5 M9.5 28.5 C13.9 25.55, 26.69 12.48, 28.5 9.5 M9.5 28.5 C16.52 21.11, 22 17.71, 28.5 9.5 M28.5 9.5 C38.8 -0.9, 37.01 -0.78, 47.5 9.5 M28.5 9.5 C33.84 -1.86, 36.4 2.11, 47.5 9.5" stroke="#f08c00" stroke-width="1" fill="none"></path></g><g stroke-linecap="round" transform="translate(180.248302879653 379.97420546043213) rotate(0 37.45000618367044 37.431027972289485)"><path d="M47.5 9.5 C53.64 17.35, 57.54 19.25, 65.4 28.5 M47.5 9.5 C54.36 17.3, 60.17 23.54, 65.4 28.5 M65.4 28.5 C73.35 36.92, 73.66 39.03, 65.4 47.5 M65.4 28.5 C75.13 39.15, 74.22 34.9, 65.4 47.5 M65.4 47.5 C56.1 53.84, 49.66 64.88, 47.5 65.36 M65.4 47.5 C61.64 51.08, 57.23 54.43, 47.5 65.36 M47.5 65.36 C35.92 77.08, 41.48 72.46, 28.5 65.36 M47.5 65.36 C33.88 71.18, 37.86 71.33, 28.5 65.36 M28.5 65.36 C25.73 58.8, 16.65 53.2, 9.5 47.5 M28.5 65.36 C22.91 58.51, 14.87 52.07, 9.5 47.5 M9.5 47.5 C-1.85 39.89, 2.38 39.36, 9.5 28.5 M9.5 47.5 C2.38 34.71, -4.44 37.68, 9.5 28.5 M9.5 28.5 C14.88 22.08, 24.38 13.66, 28.5 9.5 M9.5 28.5 C15.64 22.04, 22.51 14.86, 28.5 9.5 M28.5 9.5 C40.04 2.26, 37.32 -0.2, 47.5 9.5 M28.5 9.5 C37.69 -1.21, 37.08 -1.95, 47.5 9.5" stroke="#f08c00" stroke-width="1" fill="none"></path></g><g stroke-linecap="round" transform="translate(182.0870128080494 599.030114860665) rotate(0 37.45000618367044 37.431027972289485)"><path d="M47.5 9.5 C49.81 15.82, 61.18 19.36, 65.4 28.5 M47.5 9.5 C52.02 12.39, 56.2 17.58, 65.4 28.5 M65.4 28.5 C76.61 36.51, 76.08 36.48, 65.4 47.5 M65.4 28.5 C75.59 40.35, 77.5 37.22, 65.4 47.5 M65.4 47.5 C59.29 50.98, 58.24 60, 47.5 65.36 M65.4 47.5 C58.71 54.28, 52.61 61.8, 47.5 65.36 M47.5 65.36 C36.92 72.02, 38.1 77.37, 28.5 65.36 M47.5 65.36 C36.22 73.92, 40.75 70.35, 28.5 65.36 M28.5 65.36 C23.56 58.63, 15.29 58.9, 9.5 47.5 M28.5 65.36 C25.13 60.27, 18.17 55.34, 9.5 47.5 M9.5 47.5 C2.35 39.26, -3.55 41.57, 9.5 28.5 M9.5 47.5 C-2.29 39.76, -4.27 33.47, 9.5 28.5 M9.5 28.5 C13.09 26.92, 14.65 17.08, 28.5 9.5 M9.5 28.5 C14.5 21.66, 18.2 19.45, 28.5 9.5 M28.5 9.5 C40.44 0.78, 37.39 -1.16, 47.5 9.5 M28.5 9.5 C34.95 -0.89, 34.79 0.09, 47.5 9.5" stroke="#f08c00" stroke-width="1" fill="none"></path></g><g transform="translate(186.34599837778364 506.2388423940247) rotate(0 31.640625 21.600000000000364)"><text x="0" y="34.762499999999996" font-family="Cascadia, Segoe UI Emoji" font-size="36px" fill="#f08c00" text-anchor="start" style="white-space: pre;" direction="ltr" dominant-baseline="alphabetic">...</text></g><g stroke-linecap="round" transform="translate(494.55198721906277 93.51331698093236) rotate(0 151.37946611623124 315.9043042215135)"><path d="M32 0 C92.68 -6.75, 157.8 -0.88, 270.76 0 M32 0 C116.07 0.72, 202.93 2.14, 270.76 0 M270.76 0 C291.4 3.9, 299.22 13.85, 302.76 32 M270.76 0 C290.38 1.64, 306.1 10.88, 302.76 32 M302.76 32 C303.64 202.43, 301.82 368.34, 302.76 599.81 M302.76 32 C302.81 236.73, 302.86 441.02, 302.76 599.81 M302.76 599.81 C301.52 622.2, 290.25 635.22, 270.76 631.81 M302.76 599.81 C299.65 621.96, 293.13 632.25, 270.76 631.81 M270.76 631.81 C209.44 634.89, 148.16 631.43, 32 631.81 M270.76 631.81 C181.85 630.83, 91.49 630.1, 32 631.81 M32 631.81 C9.42 629.71, -2.3 620.28, 0 599.81 M32 631.81 C12.18 633.64, 3.27 622.66, 0 599.81 M0 599.81 C-1.26 375.43, -1.83 151.41, 0 32 M0 599.81 C1.13 399.31, 0.67 199.38, 0 32 M0 32 C-1.48 6.74, 12.65 -3.56, 32 0 M0 32 C3.34 11.64, 6.37 0.81, 32 0" stroke="#f08c00" stroke-width="1" fill="none"></path></g><g stroke-linecap="round" transform="translate(549.7245286376208 146.02781437389604) rotate(0 38.13127743104792 38.1119539778083)"><path d="M48.75 9.75 C56.43 21.25, 64.78 27.42, 66.51 29.25 M48.75 9.75 C55.22 17.23, 58.42 22.84, 66.51 29.25 M66.51 29.25 C72.73 42.18, 74.77 40.43, 66.51 48.75 M66.51 29.25 C79.61 39.22, 76.14 38.57, 66.51 48.75 M66.51 48.75 C58.52 52.62, 55.24 62.48, 48.75 66.47 M66.51 48.75 C63.12 54.54, 55.14 60.43, 48.75 66.47 M48.75 66.47 C37.16 79.64, 36.3 76.93, 29.25 66.47 M48.75 66.47 C40.04 76.66, 36.94 72.43, 29.25 66.47 M29.25 66.47 C21.52 57.13, 18.29 51.58, 9.75 48.75 M29.25 66.47 C21.62 59.11, 17.06 54.7, 9.75 48.75 M9.75 48.75 C-2.3 38.13, 1.31 40.59, 9.75 29.25 M9.75 48.75 C3.27 40.52, 4.34 40.68, 9.75 29.25 M9.75 29.25 C13.68 23.27, 20.65 19.58, 29.25 9.75 M9.75 29.25 C14.51 23.24, 20.28 16.14, 29.25 9.75 M29.25 9.75 C40.99 -3.56, 41.91 0.85, 48.75 9.75 M29.25 9.75 C34.7 0.81, 40.23 -1.4, 48.75 9.75" stroke="#f08c00" stroke-width="1" fill="none"></path></g><g stroke-linecap="round" transform="translate(547.7029921633027 260.3191973726989) rotate(0 38.13127743104792 38.1119539778083)"><path d="M48.75 9.75 C54.8 15.51, 55.82 15.89, 66.51 29.25 M48.75 9.75 C54.25 17.44, 58.36 23.16, 66.51 29.25 M66.51 29.25 C74.77 40.43, 79.17 39.19, 66.51 48.75 M66.51 29.25 C76.14 38.57, 80.55 42.75, 66.51 48.75 M66.51 48.75 C61.73 54.95, 52.7 65.99, 48.75 66.47 M66.51 48.75 C60.33 55.18, 54.14 62.23, 48.75 66.47 M48.75 66.47 C36.3 76.93, 39.9 76.6, 29.25 66.47 M48.75 66.47 C36.94 72.43, 41.57 75.72, 29.25 66.47 M29.25 66.47 C25.86 58.02, 16.51 54.52, 9.75 48.75 M29.25 66.47 C24.11 60.65, 18.74 56.86, 9.75 48.75 M9.75 48.75 C1.31 40.59, 2.84 40.32, 9.75 29.25 M9.75 48.75 C4.34 40.68, -3.3 40.17, 9.75 29.25 M9.75 29.25 C17.11 23.3, 19.87 19.6, 29.25 9.75 M9.75 29.25 C14.09 22.48, 20.73 17.75, 29.25 9.75 M29.25 9.75 C41.91 0.85, 35.26 0.71, 48.75 9.75 M29.25 9.75 C40.23 -1.4, 43.13 -2.37, 48.75 9.75" stroke="#f08c00" stroke-width="1" fill="none"></path></g><g stroke-linecap="round" transform="translate(547.7029921633027 379.05586886091623) rotate(0 38.13127743104792 38.1119539778083)"><path d="M48.75 9.75 C55.31 15.33, 63.19 27.78, 66.51 29.25 M48.75 9.75 C53.96 18.73, 62.03 25.58, 66.51 29.25 M66.51 29.25 C79.17 39.19, 76.16 38.63, 66.51 48.75 M66.51 29.25 C80.55 42.75, 80.78 37.5, 66.51 48.75 M66.51 48.75 C63.38 55.93, 60.38 59.94, 48.75 66.47 M66.51 48.75 C60 56.01, 54.1 60.13, 48.75 66.47 M48.75 66.47 C39.9 76.6, 37.21 72.93, 29.25 66.47 M48.75 66.47 C41.57 75.72, 40.17 75.28, 29.25 66.47 M29.25 66.47 C24.55 62.2, 18.28 54.68, 9.75 48.75 M29.25 66.47 C24.21 62.2, 22.02 59.8, 9.75 48.75 M9.75 48.75 C2.84 40.32, 3.77 40.46, 9.75 29.25 M9.75 48.75 C-3.3 40.17, -1.48 38.51, 9.75 29.25 M9.75 29.25 C14.22 24.93, 17.7 17.55, 29.25 9.75 M9.75 29.25 C16.22 22.52, 22.01 19.4, 29.25 9.75 M29.25 9.75 C35.26 0.71, 40.07 -1.22, 48.75 9.75 M29.25 9.75 C43.13 -2.37, 35.15 -2.43, 48.75 9.75" stroke="#f08c00" stroke-width="1" fill="none"></path></g><g stroke-linecap="round" transform="translate(545.8308333697616 602.0967306777256) rotate(0 38.13127743104792 38.1119539778083)"><path d="M48.75 9.75 C55.36 19.82, 64.95 22.82, 66.51 29.25 M48.75 9.75 C54.72 17.93, 63.98 25.06, 66.51 29.25 M66.51 29.25 C76.16 38.63, 79.99 42.26, 66.51 48.75 M66.51 29.25 C80.78 37.5, 72.3 41.77, 66.51 48.75 M66.51 48.75 C62.72 57.78, 56.72 57.95, 48.75 66.47 M66.51 48.75 C59.2 55.2, 55.2 60.82, 48.75 66.47 M48.75 66.47 C37.21 72.93, 41.24 75.78, 29.25 66.47 M48.75 66.47 C40.17 75.28, 35.4 79.54, 29.25 66.47 M29.25 66.47 C22.51 58.5, 16.07 56.69, 9.75 48.75 M29.25 66.47 C25.29 62.8, 21.22 58.28, 9.75 48.75 M9.75 48.75 C3.77 40.46, -2.87 40.02, 9.75 29.25 M9.75 48.75 C-1.48 38.51, -1.9 41.41, 9.75 29.25 M9.75 29.25 C13.27 22.07, 19.55 16.87, 29.25 9.75 M9.75 29.25 C14.94 26.09, 15.56 22.08, 29.25 9.75 M29.25 9.75 C40.07 -1.22, 42.59 -2.06, 48.75 9.75 M29.25 9.75 C35.15 -2.43, 42.24 -0.06, 48.75 9.75" stroke="#f08c00" stroke-width="1" fill="none"></path></g><g transform="translate(553.3244954408385 507.6174471162685) rotate(0 32.216214973359 21.992936088479837)"><text x="0" y="35.3948815173971" font-family="Cascadia, Segoe UI Emoji" font-size="36.654893480799586px" fill="#f08c00" text-anchor="start" style="white-space: pre;" direction="ltr" dominant-baseline="alphabetic">...</text></g><g stroke-linecap="round"><g transform="translate(218.18158520665634 188.27765980515687) rotate(0 189.68328964192028 0.19734284993319307)"><path d="M1.19 2.14 C65.17 1.79, 318.67 -1.83, 381.31 -2.19 M-1.61 0.83 C62.41 0.73, 316.09 -0.3, 380.13 0.04" stroke="#f08c00" stroke-width="1" fill="none"></path></g><g transform="translate(218.18158520665634 188.27765980515687) rotate(0 189.68328964192028 0.19734284993319307)"><path d="M2.16 -11.82 C-0.34 -10.98, 0.86 -6.77, 1.37 1.38 M0.57 -12.59 C1.28 -7.97, 1.28 -3.73, 1.05 2.72" stroke="#f08c00" stroke-width="1" fill="none"></path></g><g transform="translate(218.18158520665634 188.27765980515687) rotate(0 189.68328964192028 0.19734284993319307)"><path d="M2.51 18.18 C-0.05 12.78, 1.08 10.75, 1.37 1.38 M0.92 17.41 C1.24 12.5, 1.13 7.22, 1.05 2.72" stroke="#f08c00" stroke-width="1" fill="none"></path></g><g transform="translate(218.18158520665634 188.27765980515687) rotate(0 189.68328964192028 0.19734284993319307)"><path d="M358.16 9.98 C359.68 5.06, 366.12 4.74, 380.36 -0.97 M356.04 8.96 C364.11 5.86, 371.5 2.46, 379.94 0.82" stroke="#f08c00" stroke-width="1" fill="none"></path></g><g transform="translate(218.18158520665634 188.27765980515687) rotate(0 189.68328964192028 0.19734284993319307)"><path d="M358.16 -7.12 C359.67 -8.48, 366.11 -5.25, 380.36 -0.97 M356.04 -8.14 C364.27 -5.81, 371.66 -3.79, 379.94 0.82" stroke="#f08c00" stroke-width="1" fill="none"></path></g></g><mask></mask><g stroke-linecap="round"><g transform="translate(215.4072177471719 301.548123674831) rotate(0 189.68328964192028 0.19734284993319307)"><path d="M1.21 2.22 C64.16 2.21, 314.72 1.03, 377.98 0.88 M-1.58 0.96 C62.29 -0.05, 320.08 -3.09, 383.63 -3.87" stroke="#f08c00" stroke-width="1" fill="none"></path></g><g transform="translate(215.4072177471719 301.548123674831) rotate(0 189.68328964192028 0.19734284993319307)"><path d="M2.35 -13.52 C1.49 -7.36, 1.75 -2.34, 0.98 1.43 M1.17 -12.92 C1.4 -9.33, 1.07 -6.89, 1.81 2.41" stroke="#f08c00" stroke-width="1" fill="none"></path></g><g transform="translate(215.4072177471719 301.548123674831) rotate(0 189.68328964192028 0.19734284993319307)"><path d="M2.45 16.48 C1.46 13.32, 1.68 9.01, 0.98 1.43 M1.28 17.08 C1.57 14.13, 1.22 10.02, 1.81 2.41" stroke="#f08c00" stroke-width="1" fill="none"></path></g><g transform="translate(215.4072177471719 301.548123674831) rotate(0 189.68328964192028 0.19734284993319307)"><path d="M361.83 3.98 C367.83 3.13, 375.42 0.87, 383.33 -4.91 M360.27 4.78 C365.74 3.31, 370.38 0.27, 384.43 -3.62" stroke="#f08c00" stroke-width="1" fill="none"></path></g><g transform="translate(215.4072177471719 301.548123674831) rotate(0 189.68328964192028 0.19734284993319307)"><path d="M361.62 -13.12 C367.75 -8.65, 375.4 -5.61, 383.33 -4.91 M360.06 -12.32 C365.53 -10.06, 370.22 -9.37, 384.43 -3.62" stroke="#f08c00" stroke-width="1" fill="none"></path></g></g><mask></mask><g stroke-linecap="round"><g transform="translate(215.27979199752258 416.6673147934671) rotate(0 189.68328964192028 0.19734284993319307)"><path d="M2.55 2.37 C65.4 2, 316.17 -2.07, 378.57 -2.35 M0.49 1.19 C62.76 1.06, 312.24 -0.68, 375.89 -0.21" stroke="#f08c00" stroke-width="1" fill="none"></path></g><g transform="translate(215.27979199752258 416.6673147934671) rotate(0 189.68328964192028 0.19734284993319307)"><path d="M3.63 -13.05 C0.95 -8.64, 2.65 -3.17, 1.8 1.27 M2.54 -12.82 C2.3 -7.36, 2.9 -2.64, 3.18 2.16" stroke="#f08c00" stroke-width="1" fill="none"></path></g><g transform="translate(215.27979199752258 416.6673147934671) rotate(0 189.68328964192028 0.19734284993319307)"><path d="M4.02 16.94 C1.21 10.78, 2.78 5.67, 1.8 1.27 M2.94 17.17 C2.38 13.21, 2.86 8.49, 3.18 2.16" stroke="#f08c00" stroke-width="1" fill="none"></path></g><g transform="translate(215.27979199752258 416.6673147934671) rotate(0 189.68328964192028 0.19734284993319307)"><path d="M354.1 7.78 C358.73 3.37, 369.19 0.6, 374.89 -1.69 M352.66 8.09 C359.46 6.3, 367.57 3.61, 376.73 -0.49" stroke="#f08c00" stroke-width="1" fill="none"></path></g><g transform="translate(215.27979199752258 416.6673147934671) rotate(0 189.68328964192028 0.19734284993319307)"><path d="M354.09 -9.32 C358.72 -7.69, 369.18 -4.44, 374.89 -1.69 M352.64 -9.01 C359.56 -5.42, 367.67 -2.73, 376.73 -0.49" stroke="#f08c00" stroke-width="1" fill="none"></path></g></g><mask></mask><g stroke-linecap="round"><g transform="translate(215.16016997019938 639.7535239481258) rotate(0 189.68328964192028 0.19734284993319307)"><path d="M-2.31 -1.62 C61.33 -1.46, 316.01 -0.25, 379.21 0.47 M1.63 3.68 C65.12 4.36, 313.44 5.01, 376.88 4.14" stroke="#f08c00" stroke-width="1" fill="none"></path></g><g transform="translate(215.16016997019938 639.7535239481258) rotate(0 189.68328964192028 0.19734284993319307)"><path d="M-3.11 -16.7 C-2.24 -14.88, -1.05 -9.3, -3.1 -2.78 M-2.49 -16.07 C-2.48 -13.27, -2.42 -10.07, -1.99 -2.07" stroke="#f08c00" stroke-width="1" fill="none"></path></g><g transform="translate(215.16016997019938 639.7535239481258) rotate(0 189.68328964192028 0.19734284993319307)"><path d="M-3.25 13.3 C-2.3 8.94, -1.08 8.34, -3.1 -2.78 M-2.63 13.93 C-2.83 9.97, -2.74 6.43, -1.99 -2.07" stroke="#f08c00" stroke-width="1" fill="none"></path></g><g transform="translate(215.16016997019938 639.7535239481258) rotate(0 189.68328964192028 0.19734284993319307)"><path d="M352.27 12.67 C358.32 9.4, 364.76 10.93, 375.83 2.58 M353.09 13.52 C358.17 10.73, 363.55 8.56, 377.31 3.54" stroke="#f08c00" stroke-width="1" fill="none"></path></g><g transform="translate(215.16016997019938 639.7535239481258) rotate(0 189.68328964192028 0.19734284993319307)"><path d="M352.2 -4.43 C358.24 -4.18, 364.69 0.87, 375.83 2.58 M353.02 -3.58 C358.26 -2.52, 363.65 -0.85, 377.31 3.54" stroke="#f08c00" stroke-width="1" fill="none"></path></g></g><mask></mask><g transform="translate(44.57929395994097 121.23561977344798) rotate(0 73.82812500000011 21.600000000000364)"><text x="0" y="34.762499999999996" font-family="Cascadia, Segoe UI Emoji" font-size="36px" fill="#f08c00" text-anchor="start" style="white-space: pre;" direction="ltr" dominant-baseline="alphabetic">m ports</text></g><g transform="translate(614.3080447167602 113.01476238501527) rotate(0 73.828125 21.600000000000364)"><text x="0" y="34.762499999999996" font-family="Cascadia, Segoe UI Emoji" font-size="36px" fill="#f08c00" text-anchor="start" style="white-space: pre;" direction="ltr" dominant-baseline="alphabetic">m ports</text></g><g transform="translate(263.8735768481945 10) rotate(0 137.109375 21.600000000000364)"><text x="0" y="34.762499999999996" font-family="Cascadia, Segoe UI Emoji" font-size="36px" fill="#f08c00" text-anchor="start" style="white-space: pre;" direction="ltr" dominant-baseline="alphabetic">m connections</text></g></svg>