<svg version="1.1" xmlns="http://www.w3.org/2000/svg" viewBox="0 0 1281.827022290472 866.2390459230246" width="1281.827022290472" height="866.2390459230246">
  <!-- svg-source:excalidraw -->
  
  <defs>
    <style class="style-fonts">
      @font-face {
        font-family: "Virgil";
        src: url("https://excalidraw.com/Virgil.woff2");
      }
      @font-face {
        font-family: "Cascadia";
        src: url("https://excalidraw.com/Cascadia.woff2");
      }
      @font-face {
        font-family: "Assistant";
        src: url("https://excalidraw.com/Assistant-Regular.woff2");
      }
    </style>
    
  </defs>
  <g stroke-linecap="round" transform="translate(10 160.81261035331227) rotate(0 148.67484973156297 310.26021008440784)"><path d="M32 0 C119.64 -0.47, 204.61 -3.45, 265.35 0 M32 0 C124.53 0.05, 214.66 0.09, 265.35 0 M265.35 0 C288.65 -3.56, 294.95 8.24, 297.35 32 M265.35 0 C287.26 -1.97, 298.53 10.08, 297.35 32 M297.35 32 C295.55 223.66, 295.13 415.83, 297.35 588.52 M297.35 32 C297.02 253.35, 297.45 474.62, 297.35 588.52 M297.35 588.52 C298.77 612.89, 290.62 621.78, 265.35 620.52 M297.35 588.52 C300.66 613.87, 289.38 622.85, 265.35 620.52 M265.35 620.52 C179.77 616.55, 94 616.45, 32 620.52 M265.35 620.52 C182.68 622.45, 102.07 621.05, 32 620.52 M32 620.52 C14.02 620.44, 0.83 608.38, 0 588.52 M32 620.52 C12.34 620.96, -4.2 614.32, 0 588.52 M0 588.52 C-3.3 470.75, -2.25 355.15, 0 32 M0 588.52 C4.53 473.83, 4.63 359.35, 0 32 M0 32 C-2.07 13.24, 7.27 -1.2, 32 0 M0 32 C0.58 13.59, 11.83 1.23, 32 0" stroke="#f08c00" stroke-width="1" fill="none"></path></g><g stroke-linecap="round" transform="translate(178.2628841220294 212.3888591599516) rotate(0 37.45000618367044 37.431027972289485)"><path d="M47.5 9.5 C56.25 12.21, 62.92 24.57, 65.4 28.5 M47.5 9.5 C51.12 15.35, 59.36 19.14, 65.4 28.5 M65.4 28.5 C72.5 35.58, 75.4 36.29, 65.4 47.5 M65.4 28.5 C76.08 37.41, 76.96 34.78, 65.4 47.5 M65.4 47.5 C62.15 53.4, 57.99 58.4, 47.5 65.36 M65.4 47.5 C62.12 54.65, 55.42 60.01, 47.5 65.36 M47.5 65.36 C41.94 76.12, 40.88 78.36, 28.5 65.36 M47.5 65.36 C40.7 77.19, 40.84 70.84, 28.5 65.36 M28.5 65.36 C20.62 57.04, 20.43 54.58, 9.5 47.5 M28.5 65.36 C21.45 57.73, 17.34 53.02, 9.5 47.5 M9.5 47.5 C0.83 36.53, 1.45 38.38, 9.5 28.5 M9.5 47.5 C-4.2 42.46, -4.13 41.49, 9.5 28.5 M9.5 28.5 C17.78 24.5, 16.66 13.83, 28.5 9.5 M9.5 28.5 C14.05 23.56, 16.27 22.05, 28.5 9.5 M28.5 9.5 C34.61 -1.2, 38.51 2.54, 47.5 9.5 M28.5 9.5 C39.16 1.23, 39.15 -2.88, 47.5 9.5" stroke="#f08c00" stroke-width="1" fill="none"></path></g><g stroke-linecap="round" transform="translate(180.24830287965142 324.63825882365745) rotate(0 37.45000618367044 37.431027972289485)"><path d="M47.5 9.5 C57.03 18.66, 58.77 22.41, 65.4 28.5 M47.5 9.5 C53.6 13.49, 56.88 19.86, 65.4 28.5 M65.4 28.5 C75.4 36.29, 75.92 37.49, 65.4 47.5 M65.4 28.5 C76.96 34.78, 76 41.79, 65.4 47.5 M65.4 47.5 C64.37 52, 55.5 59.54, 47.5 65.36 M65.4 47.5 C60.31 55.44, 55.41 60.7, 47.5 65.36 M47.5 65.36 C40.88 78.36, 40.35 76.89, 28.5 65.36 M47.5 65.36 C40.84 70.84, 36.47 73.31, 28.5 65.36 M28.5 65.36 C26.49 60.14, 22.17 53.92, 9.5 47.5 M28.5 65.36 C24.46 59.53, 17.33 53.32, 9.5 47.5 M9.5 47.5 C1.45 38.38, -3.65 41.88, 9.5 28.5 M9.5 47.5 C-4.13 41.49, -0.54 38.22, 9.5 28.5 M9.5 28.5 C10.16 19.75, 14.96 19.81, 28.5 9.5 M9.5 28.5 C13.25 25.09, 17.5 18.29, 28.5 9.5 M28.5 9.5 C38.51 2.54, 39.01 1.07, 47.5 9.5 M28.5 9.5 C39.15 -2.88, 35.89 -0.51, 47.5 9.5" stroke="#f08c00" stroke-width="1" fill="none"></path></g><g stroke-linecap="round" transform="translate(180.24830287965324 441.253525372309) rotate(0 37.45000618367044 37.431027972289485)"><path d="M47.5 9.5 C51.8 14.35, 55.87 13.78, 65.4 28.5 M47.5 9.5 C51.99 14.45, 58.95 20.65, 65.4 28.5 M65.4 28.5 C75.92 37.49, 76.69 35.2, 65.4 47.5 M65.4 28.5 C76 41.79, 74.25 40.59, 65.4 47.5 M65.4 47.5 C60.43 54.69, 56.61 62.29, 47.5 65.36 M65.4 47.5 C60.72 55.17, 53.41 63.05, 47.5 65.36 M47.5 65.36 C40.35 76.89, 40.47 71.36, 28.5 65.36 M47.5 65.36 C36.47 73.31, 34.38 71.49, 28.5 65.36 M28.5 65.36 C25.99 58.14, 20.37 55.91, 9.5 47.5 M28.5 65.36 C24.34 60.6, 20.37 57.5, 9.5 47.5 M9.5 47.5 C-3.65 41.88, -3.59 41.03, 9.5 28.5 M9.5 47.5 C-0.54 38.22, -2.39 41.24, 9.5 28.5 M9.5 28.5 C12.47 23.42, 20.82 17.63, 28.5 9.5 M9.5 28.5 C12.61 23.05, 19.16 20.31, 28.5 9.5 M28.5 9.5 C39.01 1.07, 39 -2.5, 47.5 9.5 M28.5 9.5 C35.89 -0.51, 38.21 0.37, 47.5 9.5" stroke="#f08c00" stroke-width="1" fill="none"></path></g><g stroke-linecap="round" transform="translate(182.08701280804962 660.30943477254) rotate(0 37.45000618367044 37.431027972289485)"><path d="M47.5 9.5 C54.45 12.84, 61.28 25.68, 65.4 28.5 M47.5 9.5 C51.3 12.87, 55.34 17.48, 65.4 28.5 M65.4 28.5 C76.69 35.2, 75.85 41.3, 65.4 47.5 M65.4 28.5 C74.25 40.59, 75.09 42.47, 65.4 47.5 M65.4 47.5 C62.07 56.72, 58.37 59.24, 47.5 65.36 M65.4 47.5 C60.46 56.08, 53.46 62.06, 47.5 65.36 M47.5 65.36 C40.47 71.36, 36.67 73.51, 28.5 65.36 M47.5 65.36 C34.38 71.49, 34.25 77.09, 28.5 65.36 M28.5 65.36 C23.43 58.57, 14.86 58.55, 9.5 47.5 M28.5 65.36 C23.49 60.09, 15.27 56.51, 9.5 47.5 M9.5 47.5 C-3.59 41.03, -0.47 38.19, 9.5 28.5 M9.5 47.5 C-2.39 41.24, 1.47 33.65, 9.5 28.5 M9.5 28.5 C12.04 25.95, 15.23 18.66, 28.5 9.5 M9.5 28.5 C17 22.96, 24.17 15.3, 28.5 9.5 M28.5 9.5 C39 -2.5, 36.16 -0.44, 47.5 9.5 M28.5 9.5 C38.21 0.37, 38.04 -1.18, 47.5 9.5" stroke="#f08c00" stroke-width="1" fill="none"></path></g><g transform="translate(186.34599837778387 567.5181623059016) rotate(0 31.640625 21.600000000000364)"><text x="0" y="34.762499999999996" font-family="Cascadia, Segoe UI Emoji" font-size="36px" fill="#f08c00" text-anchor="start" style="white-space: pre;" direction="ltr" dominant-baseline="alphabetic">...</text></g><g stroke-linecap="round" transform="translate(494.0180882974655 154.1919020408077) rotate(0 151.30804792151093 315.7552660745923)"><path d="M32 0 C78.43 -3.97, 128.79 -1.55, 270.62 0 M32 0 C94.11 -0.66, 155.13 1.89, 270.62 0 M270.62 0 C291.38 2.25, 302.78 14.55, 302.62 32 M270.62 0 C291.24 0.15, 304.7 12.68, 302.62 32 M302.62 32 C307.41 260.26, 306.69 486.53, 302.62 599.51 M302.62 32 C305.77 251.13, 305.01 471.38, 302.62 599.51 M302.62 599.51 C299.47 617.91, 288.69 633.45, 270.62 631.51 M302.62 599.51 C301.52 622.93, 288.24 631.9, 270.62 631.51 M270.62 631.51 C208.25 635.55, 144.79 636.07, 32 631.51 M270.62 631.51 C195.26 636.64, 122.71 635.46, 32 631.51 M32 631.51 C8.59 634.33, 1.28 617.06, 0 599.51 M32 631.51 C6.17 627.26, 0.99 618.94, 0 599.51 M0 599.51 C3.64 408.47, 2.13 220.34, 0 32 M0 599.51 C-0.94 392.7, -1.51 186.79, 0 32 M0 32 C0.19 10.99, 10.7 -1.03, 32 0 M0 32 C-0.91 7.83, 9.47 -2.73, 32 0" stroke="#f08c00" stroke-width="1" fill="none"></path></g><g stroke-linecap="round" transform="translate(549.16460027222 206.6816240088283) rotate(0 38.11328775869424 38.09397342192369)"><path d="M48.75 9.75 C52.17 17.27, 59.07 24.61, 66.48 29.25 M48.75 9.75 C54.49 17.25, 58.82 22.32, 66.48 29.25 M66.48 29.25 C76.39 42.88, 75.61 39.13, 66.48 48.75 M66.48 29.25 C78.31 41.02, 80.8 42.62, 66.48 48.75 M66.48 48.75 C62.06 57.91, 58.35 63.31, 48.75 66.44 M66.48 48.75 C59.81 53.97, 52.69 59.38, 48.75 66.44 M48.75 66.44 C35.74 78.13, 38.04 78, 29.25 66.44 M48.75 66.44 C35.29 76.58, 37.21 72.75, 29.25 66.44 M29.25 66.44 C20.3 61.18, 14.66 49.29, 9.75 48.75 M29.25 66.44 C21.59 59.81, 13.05 54.1, 9.75 48.75 M9.75 48.75 C1.28 35.22, -3.91 35.31, 9.75 29.25 M9.75 48.75 C0.99 37.1, 1.58 36.35, 9.75 29.25 M9.75 29.25 C13.14 25.25, 21.72 20.91, 29.25 9.75 M9.75 29.25 C15.1 22.9, 22.48 16.92, 29.25 9.75 M29.25 9.75 C39.04 -1.03, 38.21 -2.47, 48.75 9.75 M29.25 9.75 C37.81 -2.73, 38.53 -3.17, 48.75 9.75" stroke="#f08c00" stroke-width="1" fill="none"></path></g><g stroke-linecap="round" transform="translate(547.1440175235912 320.91908632436207) rotate(0 38.11328775869424 38.09397342192369)"><path d="M48.75 9.75 C51.05 15.41, 56.51 20.86, 66.48 29.25 M48.75 9.75 C52.64 15.07, 57.08 20.37, 66.48 29.25 M66.48 29.25 C75.61 39.13, 78.04 40.75, 66.48 48.75 M66.48 29.25 C80.8 42.62, 77.85 42.49, 66.48 48.75 M66.48 48.75 C63.02 58.4, 54.49 65.57, 48.75 66.44 M66.48 48.75 C61.02 50.92, 57.19 57.12, 48.75 66.44 M48.75 66.44 C38.04 78, 35.77 76.53, 29.25 66.44 M48.75 66.44 C37.21 72.75, 42.86 76.1, 29.25 66.44 M29.25 66.44 C23.51 57.26, 20.75 51.64, 9.75 48.75 M29.25 66.44 C20.92 61.22, 15.27 51.27, 9.75 48.75 M9.75 48.75 C-3.91 35.31, 0.86 37.35, 9.75 29.25 M9.75 48.75 C1.58 36.35, -2.38 41.96, 9.75 29.25 M9.75 29.25 C16.6 26.01, 19.32 21.81, 29.25 9.75 M9.75 29.25 C14.65 24.83, 19.21 19.52, 29.25 9.75 M29.25 9.75 C38.21 -2.47, 37.96 -2.37, 48.75 9.75 M29.25 9.75 C38.53 -3.17, 38.61 3.98, 48.75 9.75" stroke="#f08c00" stroke-width="1" fill="none"></path></g><g stroke-linecap="round" transform="translate(547.1440175235912 439.5997399196549) rotate(0 38.11328775869424 38.09397342192369)"><path d="M48.75 9.75 C53.61 17.55, 56.86 22.8, 66.48 29.25 M48.75 9.75 C55.56 18.95, 61.94 24.53, 66.48 29.25 M66.48 29.25 C78.04 40.75, 80.2 42.15, 66.48 48.75 M66.48 29.25 C77.85 42.49, 80.75 40.45, 66.48 48.75 M66.48 48.75 C62.22 58.01, 50.1 60.78, 48.75 66.44 M66.48 48.75 C59.85 54.17, 56.28 58.81, 48.75 66.44 M48.75 66.44 C35.77 76.53, 37.44 73.2, 29.25 66.44 M48.75 66.44 C42.86 76.1, 39.95 74.5, 29.25 66.44 M29.25 66.44 C26.54 56.54, 19.13 53.72, 9.75 48.75 M29.25 66.44 C24.13 59.43, 15.59 54.09, 9.75 48.75 M9.75 48.75 C0.86 37.35, 1.37 36.7, 9.75 29.25 M9.75 48.75 C-2.38 41.96, -3.9 37.62, 9.75 29.25 M9.75 29.25 C16.67 24.06, 19.19 15.12, 29.25 9.75 M9.75 29.25 C15.38 23.07, 20.61 16.71, 29.25 9.75 M29.25 9.75 C37.96 -2.37, 38.59 -2.76, 48.75 9.75 M29.25 9.75 C38.61 3.98, 42.73 -3.2, 48.75 9.75" stroke="#f08c00" stroke-width="1" fill="none"></path></g><g stroke-linecap="round" transform="translate(545.2727419819512 662.5353749437618) rotate(0 38.11328775869424 38.09397342192369)"><path d="M48.75 9.75 C51.67 16.89, 63.54 21.72, 66.48 29.25 M48.75 9.75 C54.77 16.42, 62.3 24.18, 66.48 29.25 M66.48 29.25 C80.2 42.15, 77.64 42.04, 66.48 48.75 M66.48 29.25 C80.75 40.45, 79.54 43.02, 66.48 48.75 M66.48 48.75 C56.8 53.98, 52.59 58.51, 48.75 66.44 M66.48 48.75 C61.69 53.84, 56.54 57.11, 48.75 66.44 M48.75 66.44 C37.44 73.2, 42.36 76.11, 29.25 66.44 M48.75 66.44 C39.95 74.5, 40.67 76.63, 29.25 66.44 M29.25 66.44 C27.87 61.93, 20.96 56.62, 9.75 48.75 M29.25 66.44 C19.96 57.67, 15.12 52.14, 9.75 48.75 M9.75 48.75 C1.37 36.7, -2.07 41.58, 9.75 29.25 M9.75 48.75 C-3.9 37.62, 0.58 41.92, 9.75 29.25 M9.75 29.25 C13.48 20.97, 21.89 16.66, 29.25 9.75 M9.75 29.25 C15.36 22.11, 21.25 16.15, 29.25 9.75 M29.25 9.75 C38.59 -2.76, 38.66 3.46, 48.75 9.75 M29.25 9.75 C42.73 -3.2, 42.69 2.36, 48.75 9.75" stroke="#f08c00" stroke-width="1" fill="none"></path></g><g transform="translate(552.7628686738199 568.1006650622348) rotate(0 32.20101592441824 21.982560204402944)"><text x="0" y="35.37818282896091" font-family="Cascadia, Segoe UI Emoji" font-size="36.63760034067149px" fill="#f08c00" text-anchor="start" style="white-space: pre;" direction="ltr" dominant-baseline="alphabetic">...</text></g><g transform="translate(44.579293959940514 182.21655790719342) rotate(0 73.828125 21.600000000000364)"><text x="0" y="34.762499999999996" font-family="Cascadia, Segoe UI Emoji" font-size="36px" fill="#f08c00" text-anchor="start" style="white-space: pre;" direction="ltr" dominant-baseline="alphabetic">m ports</text></g><g transform="translate(448.9885046352001 813.0390459230239) rotate(0 189.84375 21.600000000000364)"><text x="189.84375" y="34.762499999999996" font-family="Cascadia, Segoe UI Emoji" font-size="36px" fill="#f08c00" text-anchor="middle" style="white-space: pre;" direction="ltr" dominant-baseline="alphabetic">mn - 2 connections</text></g><g stroke-linecap="round" transform="translate(974.4773228273461 157.33750865428556) rotate(0 148.67484973156297 310.26021008440784)"><path d="M32 0 C127.92 -0.85, 219.66 -0.75, 265.35 0 M32 0 C80.26 0.09, 129.8 2.15, 265.35 0 M265.35 0 C285.73 1.81, 294.12 11.01, 297.35 32 M265.35 0 C284.89 -3.44, 301.21 10.58, 297.35 32 M297.35 32 C295.86 209.03, 297.26 387.55, 297.35 588.52 M297.35 32 C296.41 241.69, 297.09 449.49, 297.35 588.52 M297.35 588.52 C293.44 606.16, 287.54 618.87, 265.35 620.52 M297.35 588.52 C298.92 607.21, 284.3 623.48, 265.35 620.52 M265.35 620.52 C217.29 621.87, 165.85 621.87, 32 620.52 M265.35 620.52 C210.02 620.22, 154.55 619.65, 32 620.52 M32 620.52 C9.87 618.05, -1.04 607.48, 0 588.52 M32 620.52 C10.2 617.35, -0.39 613.84, 0 588.52 M0 588.52 C3.91 375, 3.43 163.96, 0 32 M0 588.52 C1.85 469.08, 2.91 349.03, 0 32 M0 32 C3.5 13.05, 8.3 -0.24, 32 0 M0 32 C-3.62 6.25, 14.39 -4.29, 32 0" stroke="#f08c00" stroke-width="1" fill="none"></path></g><g stroke-linecap="round" transform="translate(1142.7402069493755 208.9137574609249) rotate(0 37.450006183670666 37.431027972289485)"><path d="M47.5 9.5 C56.52 18.83, 57.65 22.09, 65.4 28.5 M47.5 9.5 C50.34 15.79, 56.25 20.79, 65.4 28.5 M65.4 28.5 C71.67 38.34, 73.34 35.01, 65.4 47.5 M65.4 28.5 C78.76 37.91, 75.85 36.31, 65.4 47.5 M65.4 47.5 C63.29 49.59, 56.42 58.72, 47.5 65.36 M65.4 47.5 C60.4 51.31, 52.35 56.79, 47.5 65.36 M47.5 65.36 C38.86 73.21, 39.37 72.56, 28.5 65.36 M47.5 65.36 C35.62 77.82, 34.1 73.48, 28.5 65.36 M28.5 65.36 C23.4 60.87, 13.89 52.45, 9.5 47.5 M28.5 65.36 C23.01 59.72, 17.11 53.83, 9.5 47.5 M9.5 47.5 C-1.04 35.63, -0.41 35.24, 9.5 28.5 M9.5 47.5 C-0.39 41.98, 3.73 34.8, 9.5 28.5 M9.5 28.5 C17.37 20.69, 20.34 12.21, 28.5 9.5 M9.5 28.5 C17.21 20.62, 23.98 17.24, 28.5 9.5 M28.5 9.5 C35.63 -0.24, 34.85 -3.84, 47.5 9.5 M28.5 9.5 C41.72 -4.29, 38.14 -1.26, 47.5 9.5" stroke="#f08c00" stroke-width="1" fill="none"></path></g><g stroke-linecap="round" transform="translate(1144.7256257069985 321.163157124638) rotate(0 37.45000618367021 37.431027972289485)"><path d="M47.5 9.5 C50.61 14.76, 59.18 19.76, 65.4 28.5 M47.5 9.5 C50.77 14.54, 53.69 18.11, 65.4 28.5 M65.4 28.5 C73.34 35.01, 78.26 37.92, 65.4 47.5 M65.4 28.5 C75.85 36.31, 76.57 38.44, 65.4 47.5 M65.4 47.5 C65.04 50.44, 58.46 52.56, 47.5 65.36 M65.4 47.5 C56.93 51.93, 52.68 59.57, 47.5 65.36 M47.5 65.36 C39.37 72.56, 35.93 77.44, 28.5 65.36 M47.5 65.36 C34.1 73.48, 38.58 77.78, 28.5 65.36 M28.5 65.36 C19.72 57.81, 15.61 54.03, 9.5 47.5 M28.5 65.36 C22.25 58.53, 16.27 53.07, 9.5 47.5 M9.5 47.5 C-0.41 35.24, -0.34 41.46, 9.5 28.5 M9.5 47.5 C3.73 34.8, 3.69 40.36, 9.5 28.5 M9.5 28.5 C10.01 22.4, 18.55 17.68, 28.5 9.5 M9.5 28.5 C16.66 24.36, 19.37 17.41, 28.5 9.5 M28.5 9.5 C34.85 -3.84, 41.23 -3.73, 47.5 9.5 M28.5 9.5 C38.14 -1.26, 37.29 1.96, 47.5 9.5" stroke="#f08c00" stroke-width="1" fill="none"></path></g><g stroke-linecap="round" transform="translate(1144.7256257069994 437.7784236732823) rotate(0 37.450006183670666 37.431027972289485)"><path d="M47.5 9.5 C52.29 13.35, 57.19 20.11, 65.4 28.5 M47.5 9.5 C52.03 16.13, 59.11 21.08, 65.4 28.5 M65.4 28.5 C78.26 37.92, 75.73 36.53, 65.4 47.5 M65.4 28.5 C76.57 38.44, 70.7 42.46, 65.4 47.5 M65.4 47.5 C62.1 49.13, 60.97 56.24, 47.5 65.36 M65.4 47.5 C61.8 50.01, 58.38 53.36, 47.5 65.36 M47.5 65.36 C35.93 77.44, 34.61 73.66, 28.5 65.36 M47.5 65.36 C38.58 77.78, 39.16 76.09, 28.5 65.36 M28.5 65.36 C22.11 59.57, 16.7 53.61, 9.5 47.5 M28.5 65.36 C22.84 59.04, 17.94 53.95, 9.5 47.5 M9.5 47.5 C-0.34 41.46, 3.24 35.22, 9.5 28.5 M9.5 47.5 C3.69 40.36, -4.1 38.97, 9.5 28.5 M9.5 28.5 C16.2 20.55, 20.23 20.6, 28.5 9.5 M9.5 28.5 C12.1 24.04, 15.83 18.12, 28.5 9.5 M28.5 9.5 C41.23 -3.73, 38.12 -1.1, 47.5 9.5 M28.5 9.5 C37.29 1.96, 38.75 -2.38, 47.5 9.5" stroke="#f08c00" stroke-width="1" fill="none"></path></g><g stroke-linecap="round" transform="translate(1146.5643356353958 656.8343330735133) rotate(0 37.45000618367021 37.431027972289485)"><path d="M47.5 9.5 C49.21 11.59, 58.86 18.96, 65.4 28.5 M47.5 9.5 C52.6 14.54, 61.24 22.56, 65.4 28.5 M65.4 28.5 C75.73 36.53, 76.35 38.38, 65.4 47.5 M65.4 28.5 C70.7 42.46, 70.77 41.49, 65.4 47.5 M65.4 47.5 C63.07 53.74, 51.31 53.7, 47.5 65.36 M65.4 47.5 C62.44 49.91, 57 56.06, 47.5 65.36 M47.5 65.36 C34.61 73.66, 38.51 77.4, 28.5 65.36 M47.5 65.36 C39.16 76.09, 39.15 71.98, 28.5 65.36 M28.5 65.36 C24.04 60.88, 17.86 55.51, 9.5 47.5 M28.5 65.36 C23.86 59.5, 19.37 58.36, 9.5 47.5 M9.5 47.5 C3.24 35.22, 3.21 40.05, 9.5 28.5 M9.5 47.5 C-4.1 38.97, -1.06 34.07, 9.5 28.5 M9.5 28.5 C13.94 26.53, 15.39 22.95, 28.5 9.5 M9.5 28.5 C14.98 19.77, 25 13, 28.5 9.5 M28.5 9.5 C38.12 -1.1, 37.38 1.71, 47.5 9.5 M28.5 9.5 C38.75 -2.38, 36.39 -3.23, 47.5 9.5" stroke="#f08c00" stroke-width="1" fill="none"></path></g><g transform="translate(1150.82332120513 564.0430606068749) rotate(0 31.640625 21.600000000000364)"><text x="0" y="34.762499999999996" font-family="Cascadia, Segoe UI Emoji" font-size="36px" fill="#f08c00" text-anchor="start" style="white-space: pre;" direction="ltr" dominant-baseline="alphabetic">...</text></g><g transform="translate(1009.0566167872876 179.0398379863018) rotate(0 73.828125 21.600000000000364)"><text x="0" y="34.762499999999996" font-family="Cascadia, Segoe UI Emoji" font-size="36px" fill="#f08c00" text-anchor="start" style="white-space: pre;" direction="ltr" dominant-baseline="alphabetic">m ports</text></g><g transform="translate(84.85219613340678 10.904779945956761) rotate(0 63.28125 64.80000000000018)"><text x="63.28125" y="34.762499999999996" font-family="Cascadia, Segoe UI Emoji" font-size="36px" fill="#f08c00" text-anchor="middle" style="white-space: pre;" direction="ltr" dominant-baseline="alphabetic">client</text><text x="63.28125" y="77.96249999999999" font-family="Cascadia, Segoe UI Emoji" font-size="36px" fill="#f08c00" text-anchor="middle" style="white-space: pre;" direction="ltr" dominant-baseline="alphabetic">+</text><text x="63.28125" y="121.1625" font-family="Cascadia, Segoe UI Emoji" font-size="36px" fill="#f08c00" text-anchor="middle" style="white-space: pre;" direction="ltr" dominant-baseline="alphabetic">server</text></g><g transform="translate(581.4868618889668 10) rotate(0 63.28125 64.80000000000018)"><text x="63.28125" y="34.762499999999996" font-family="Cascadia, Segoe UI Emoji" font-size="36px" fill="#f08c00" text-anchor="middle" style="white-space: pre;" direction="ltr" dominant-baseline="alphabetic">client</text><text x="63.28125" y="77.96249999999999" font-family="Cascadia, Segoe UI Emoji" font-size="36px" fill="#f08c00" text-anchor="middle" style="white-space: pre;" direction="ltr" dominant-baseline="alphabetic">+</text><text x="63.28125" y="121.1625" font-family="Cascadia, Segoe UI Emoji" font-size="36px" fill="#f08c00" text-anchor="middle" style="white-space: pre;" direction="ltr" dominant-baseline="alphabetic">server</text></g><g transform="translate(1071.3559671221474 76.47781055210544) rotate(0 63.28125 21.600000000000364)"><text x="63.28125" y="34.762499999999996" font-family="Cascadia, Segoe UI Emoji" font-size="36px" fill="#f08c00" text-anchor="middle" style="white-space: pre;" direction="ltr" dominant-baseline="alphabetic">client</text></g><g stroke-linecap="round"><g transform="translate(223.4313517856349 366.16220742182486) rotate(0 182.26338177502703 -56.46067527015384)"><path d="M0.87 -2.42 C61.83 -20.79, 302.98 -92.72, 363.18 -110.78 M-2.1 2.43 C60.04 -16.64, 307.24 -95.03, 368.84 -114.63" stroke="#f08c00" stroke-width="1" fill="none"></path></g><g transform="translate(223.4313517856349 366.16220742182486) rotate(0 182.26338177502703 -56.46067527015384)"><path d="M-4.73 -17.52 C-1.42 -15.16, -0.52 -10.56, 1.45 -1.87 M-3.52 -17.11 C-3.09 -13.14, -1.96 -10.16, 0.82 -2.51" stroke="#f08c00" stroke-width="1" fill="none"></path></g><g transform="translate(223.4313517856349 366.16220742182486) rotate(0 182.26338177502703 -56.46067527015384)"><path d="M3.87 11.22 C5.45 7.64, 4.57 6.28, 1.45 -1.87 M5.07 11.63 C3.73 9.29, 2.96 5.92, 0.82 -2.51" stroke="#f08c00" stroke-width="1" fill="none"></path></g><g transform="translate(223.4313517856349 366.16220742182486) rotate(0 182.26338177502703 -56.46067527015384)"><path d="M347.31 -100.34 C354.71 -104.38, 358.83 -105.39, 369.62 -113.9 M348.91 -99.8 C352.74 -102.14, 357.35 -105.76, 368.78 -114.74" stroke="#f08c00" stroke-width="1" fill="none"></path></g><g transform="translate(223.4313517856349 366.16220742182486) rotate(0 182.26338177502703 -56.46067527015384)"><path d="M342.13 -116.64 C350.58 -117.32, 355.77 -114.94, 369.62 -113.9 M343.74 -116.1 C348.64 -114.86, 354.39 -114.89, 368.78 -114.74" stroke="#f08c00" stroke-width="1" fill="none"></path></g></g><mask></mask><g stroke-linecap="round"><g transform="translate(244.74665003760538 466.8743040224399) rotate(0 170.93333123126786 -107.29531625032178)"><path d="M-2.71 1.35 C53.59 -34.03, 282.27 -176.28, 339.64 -212.3 M1.01 -0.39 C58.01 -36.52, 288.42 -180.83, 344.84 -216.07" stroke="#f08c00" stroke-width="1" fill="none"></path></g><g transform="translate(244.74665003760538 466.8743040224399) rotate(0 170.93333123126786 -107.29531625032178)"><path d="M-9.93 -12.57 C-6.52 -6.84, -4.96 -2.43, -3.4 0.19 M-11.17 -10.95 C-8.4 -8.19, -7.09 -5.82, -3.09 0.76" stroke="#f08c00" stroke-width="1" fill="none"></path></g><g transform="translate(244.74665003760538 466.8743040224399) rotate(0 170.93333123126786 -107.29531625032178)"><path d="M5.95 12.88 C3.55 9.14, -0.7 4.24, -3.4 0.19 M4.71 14.51 C3.42 11.09, 0.81 7.18, -3.09 0.76" stroke="#f08c00" stroke-width="1" fill="none"></path></g><g transform="translate(244.74665003760538 466.8743040224399) rotate(0 170.93333123126786 -107.29531625032178)"><path d="M330.42 -197.95 C336.72 -203.69, 340.55 -211.22, 343.93 -217.62 M328.77 -195.79 C333.44 -201.2, 336.37 -207.08, 344.34 -216.86" stroke="#f08c00" stroke-width="1" fill="none"></path></g><g transform="translate(244.74665003760538 466.8743040224399) rotate(0 170.93333123126786 -107.29531625032178)"><path d="M321.35 -212.45 C330.97 -212.79, 338.12 -215.03, 343.93 -217.62 M319.7 -210.28 C326.69 -212.18, 331.86 -214.49, 344.34 -216.86" stroke="#f08c00" stroke-width="1" fill="none"></path></g></g><mask></mask><g stroke-linecap="round"><g transform="translate(214.02855836251956 698.3429922364903) rotate(0 182.9931837386323 -223.84659037292022)"><path d="M-0.27 -1.56 C60.41 -76.13, 305.78 -374.19, 366.78 -448.71 M-3.86 3.76 C56.28 -70.3, 303.71 -370.65, 364.98 -445.64" stroke="#f08c00" stroke-width="1" fill="none"></path></g><g transform="translate(214.02855836251956 698.3429922364903) rotate(0 182.9931837386323 -223.84659037292022)"><path d="M-12.7 -10.65 C-7.86 -7.44, -3.28 -2.56, 0.8 -1.17 M-12.31 -10.39 C-9.24 -8.75, -6.98 -7.41, 0.41 -2.28" stroke="#f08c00" stroke-width="1" fill="none"></path></g><g transform="translate(214.02855836251956 698.3429922364903) rotate(0 182.9931837386323 -223.84659037292022)"><path d="M10.49 8.38 C6.23 4.04, 1.63 1.38, 0.8 -1.17 M10.88 8.65 C8.96 6.06, 6.27 3.34, 0.41 -2.28" stroke="#f08c00" stroke-width="1" fill="none"></path></g><g transform="translate(214.02855836251956 698.3429922364903) rotate(0 182.9931837386323 -223.84659037292022)"><path d="M355.57 -421.48 C359.35 -431.57, 362.62 -439.42, 366.41 -445.12 M356.09 -421.13 C358.58 -426.74, 360.06 -432.69, 365.88 -446.6" stroke="#f08c00" stroke-width="1" fill="none"></path></g><g transform="translate(214.02855836251956 698.3429922364903) rotate(0 182.9931837386323 -223.84659037292022)"><path d="M342.35 -432.33 C351.31 -438.11, 359.82 -441.67, 366.41 -445.12 M342.87 -431.98 C348.2 -435.18, 352.5 -438.82, 365.88 -446.6" stroke="#f08c00" stroke-width="1" fill="none"></path></g></g><mask></mask><g stroke-linecap="round"><g transform="translate(1182.2536640334401 251.2793422694158) rotate(0 -298.2278140484682 -0.2815037712271078)"><path d="M0.31 0.21 C-98.85 0.05, -497.27 1.45, -596.78 0.92 M-2.96 -2.14 C-102.36 -3.3, -499.9 -3.45, -599.19 -3.29" stroke="#f08c00" stroke-width="1" fill="none"></path></g><g transform="translate(1182.2536640334401 251.2793422694158) rotate(0 -298.2278140484682 -0.2815037712271078)"><path d="M0.45 15.04 C1.02 11.53, -1.07 8.56, -0.06 -0.97 M-0.22 14.89 C0.23 8.99, 0.75 3.13, 0.21 -0.28" stroke="#f08c00" stroke-width="1" fill="none"></path></g><g transform="translate(1182.2536640334401 251.2793422694158) rotate(0 -298.2278140484682 -0.2815037712271078)"><path d="M0.4 -14.96 C1.19 -11.43, -0.89 -7.35, -0.06 -0.97 M-0.27 -15.11 C0.26 -9.63, 0.81 -4.1, 0.21 -0.28" stroke="#f08c00" stroke-width="1" fill="none"></path></g><g transform="translate(1182.2536640334401 251.2793422694158) rotate(0 -298.2278140484682 -0.2815037712271078)"><path d="M-575.55 -12.07 C-580.1 -10.02, -588.41 -7.27, -599.69 -4.86 M-576.45 -12.28 C-584.69 -9.52, -592.89 -6.5, -599.33 -3.94" stroke="#f08c00" stroke-width="1" fill="none"></path></g><g transform="translate(1182.2536640334401 251.2793422694158) rotate(0 -298.2278140484682 -0.2815037712271078)"><path d="M-575.55 5.03 C-580.22 3.06, -588.52 1.8, -599.69 -4.86 M-576.44 4.83 C-584.72 1.09, -592.92 -2.37, -599.33 -3.94" stroke="#f08c00" stroke-width="1" fill="none"></path></g></g><mask></mask><g stroke-linecap="round"><g transform="translate(1178.4625806273953 362.1413696669115) rotate(0 -294.29898062279744 -52.76064957606104)"><path d="M-2.05 -2.25 C-100.19 -19.87, -492.81 -86.88, -590.19 -104.51 M2.03 2.7 C-95.07 -15.9, -486.49 -90.81, -584.65 -108.98" stroke="#f08c00" stroke-width="1" fill="none"></path></g><g transform="translate(1178.4625806273953 362.1413696669115) rotate(0 -294.29898062279744 -52.76064957606104)"><path d="M-5.82 11.68 C-3.49 10.01, -4.74 6.54, -2.68 -1.98 M-4.11 12.34 C-3.74 7.13, -3.11 3.15, -1.71 -2.13" stroke="#f08c00" stroke-width="1" fill="none"></path></g><g transform="translate(1178.4625806273953 362.1413696669115) rotate(0 -294.29898062279744 -52.76064957606104)"><path d="M-0.69 -17.88 C0.47 -12.12, -2.08 -8.12, -2.68 -1.98 M1.02 -17.22 C-0.53 -12.88, -1.55 -7.33, -1.71 -2.13" stroke="#f08c00" stroke-width="1" fill="none"></path></g><g transform="translate(1178.4625806273953 362.1413696669115) rotate(0 -294.29898062279744 -52.76064957606104)"><path d="M-561.59 -114.16 C-565.48 -110.59, -574.25 -109.22, -585.5 -108.62 M-559.31 -113.29 C-568.08 -112.36, -576.29 -110.01, -584.2 -108.82" stroke="#f08c00" stroke-width="1" fill="none"></path></g><g transform="translate(1178.4625806273953 362.1413696669115) rotate(0 -294.29898062279744 -52.76064957606104)"><path d="M-564.76 -97.36 C-567.92 -98.01, -575.89 -100.89, -585.5 -108.62 M-562.49 -96.48 C-570.08 -100.99, -577.27 -104.05, -584.2 -108.82" stroke="#f08c00" stroke-width="1" fill="none"></path></g></g><mask></mask><g stroke-linecap="round"><g transform="translate(1188.2319679227794 478.5417449396464) rotate(0 -298.84336488842837 -112.13167365628942)"><path d="M-2.65 -0.25 C-102.73 -37.38, -498.67 -184.62, -598.07 -221.6 M1.11 -2.85 C-99.59 -40.8, -500.07 -187.9, -600.51 -225.17" stroke="#f08c00" stroke-width="1" fill="none"></path></g><g transform="translate(1188.2319679227794 478.5417449396464) rotate(0 -298.84336488842837 -112.13167365628942)"><path d="M-8.01 13.61 C-4.49 7.73, -2.74 3.82, -3.85 -1.07 M-7.52 13.88 C-6.23 10.24, -5.52 6.65, -3.02 -0.35" stroke="#f08c00" stroke-width="1" fill="none"></path></g><g transform="translate(1188.2319679227794 478.5417449396464) rotate(0 -298.84336488842837 -112.13167365628942)"><path d="M2.44 -14.51 C2.05 -9.64, -0.24 -2.71, -3.85 -1.07 M2.93 -14.24 C1.47 -10.02, -0.77 -5.67, -3.02 -0.35" stroke="#f08c00" stroke-width="1" fill="none"></path></g><g transform="translate(1188.2319679227794 478.5417449396464) rotate(0 -298.84336488842837 -112.13167365628942)"><path d="M-575.69 -225.32 C-583.25 -226.28, -593.25 -224.3, -602.11 -226.26 M-575.03 -224.97 C-582.21 -224.8, -590.29 -224.33, -601.01 -225.29" stroke="#f08c00" stroke-width="1" fill="none"></path></g><g transform="translate(1188.2319679227794 478.5417449396464) rotate(0 -298.84336488842837 -112.13167365628942)"><path d="M-581.61 -209.28 C-586.95 -216.37, -594.67 -220.58, -602.11 -226.26 M-580.95 -208.92 C-586.57 -213.24, -592.99 -217.3, -601.01 -225.29" stroke="#f08c00" stroke-width="1" fill="none"></path></g></g><mask></mask><g stroke-linecap="round"><g transform="translate(1187.217709200625 691.3825690013382) rotate(0 -299.6171565894799 -220.88698222143466)"><path d="M0.26 0.8 C-99.61 -72.89, -501.08 -366.01, -601.06 -439.86 M-3.04 -1.23 C-101.84 -75.92, -495.88 -370.8, -595.65 -443.82" stroke="#f08c00" stroke-width="1" fill="none"></path></g><g transform="translate(1187.217709200625 691.3825690013382) rotate(0 -299.6171565894799 -220.88698222143466)"><path d="M-8.17 11.92 C-5.6 9.85, -4.81 7.18, -0.03 -0.16 M-8.11 13.35 C-6.53 9.01, -3.19 5.29, 0.73 0.54" stroke="#f08c00" stroke-width="1" fill="none"></path></g><g transform="translate(1187.217709200625 691.3825690013382) rotate(0 -299.6171565894799 -220.88698222143466)"><path d="M9.55 -12.28 C8.18 -8.67, 4.82 -5.69, -0.03 -0.16 M9.62 -10.86 C5.84 -7.73, 3.59 -3.82, 0.73 0.54" stroke="#f08c00" stroke-width="1" fill="none"></path></g><g transform="translate(1187.217709200625 691.3825690013382) rotate(0 -299.6171565894799 -220.88698222143466)"><path d="M-571.11 -438 C-575.98 -438.62, -583.3 -440.09, -596.04 -445.11 M-571.03 -436.11 C-580.11 -439.38, -586.94 -441.5, -595.02 -444.18" stroke="#f08c00" stroke-width="1" fill="none"></path></g><g transform="translate(1187.217709200625 691.3825690013382) rotate(0 -299.6171565894799 -220.88698222143466)"><path d="M-581.3 -424.27 C-583.9 -428.11, -588.83 -432.79, -596.04 -445.11 M-581.22 -422.37 C-587.22 -429.88, -590.84 -436.33, -595.02 -444.18" stroke="#f08c00" stroke-width="1" fill="none"></path></g></g><mask></mask><g stroke-linecap="round"><g transform="translate(553.8524470347302 350.8941745336924) rotate(0 -168.30953298235158 -49.21355467661306)"><path d="M-1.89 -0.44 C-57.89 -16.67, -278.61 -80.44, -334.51 -96.42 M2.27 -3.15 C-54.04 -20.24, -278.64 -84.08, -335.61 -100.34" stroke="#f08c00" stroke-width="1" fill="none"></path></g><g transform="translate(553.8524470347302 350.8941745336924) rotate(0 -168.30953298235158 -49.21355467661306)"><path d="M-6.29 15.1 C-3.57 8.55, -2.06 5.36, -0.7 0.73 M-6.28 13.26 C-5.26 9.09, -3 5.06, -2.62 0.07" stroke="#f08c00" stroke-width="1" fill="none"></path></g><g transform="translate(553.8524470347302 350.8941745336924) rotate(0 -168.30953298235158 -49.21355467661306)"><path d="M2.03 -13.72 C1.93 -10.19, 0.5 -3.24, -0.7 0.73 M2.04 -15.56 C0.76 -11.12, 0.51 -6.45, -2.62 0.07" stroke="#f08c00" stroke-width="1" fill="none"></path></g><g transform="translate(553.8524470347302 350.8941745336924) rotate(0 -168.30953298235158 -49.21355467661306)"><path d="M-310.99 -100.62 C-318.01 -102.18, -326.73 -99.05, -334.02 -98.79 M-310.98 -103.07 C-318.66 -102.6, -324.84 -101.63, -336.58 -99.66" stroke="#f08c00" stroke-width="1" fill="none"></path></g><g transform="translate(553.8524470347302 350.8941745336924) rotate(0 -168.30953298235158 -49.21355467661306)"><path d="M-315.68 -84.18 C-321.1 -91.49, -328.17 -94.14, -334.02 -98.79 M-315.66 -86.62 C-322.06 -91.07, -326.82 -95.07, -336.58 -99.66" stroke="#f08c00" stroke-width="1" fill="none"></path></g></g><mask></mask><g stroke-linecap="round"><g transform="translate(584.0570562028888 475.8122443730208) rotate(0 -180.82561997439552 -110.17451219529084)"><path d="M-0.19 -1.54 C-60.31 -38.86, -303.59 -185.17, -363.37 -221.43 M-3.74 3.8 C-62.7 -31.93, -298.67 -180.43, -357.9 -218.39" stroke="#f08c00" stroke-width="1" fill="none"></path></g><g transform="translate(584.0570562028888 475.8122443730208) rotate(0 -180.82561997439552 -110.17451219529084)"><path d="M-8.79 10.37 C-7.07 10.17, -4.25 5.5, -1.18 -0.61 M-7.67 11.76 C-5.16 6.92, -4.01 3.84, -0.72 -2.09" stroke="#f08c00" stroke-width="1" fill="none"></path></g><g transform="translate(584.0570562028888 475.8122443730208) rotate(0 -180.82561997439552 -110.17451219529084)"><path d="M6.76 -15.29 C5.53 -10.25, 5.17 -9.67, -1.18 -0.61 M7.88 -13.9 C6.03 -11.18, 2.6 -6.67, -0.72 -2.09" stroke="#f08c00" stroke-width="1" fill="none"></path></g><g transform="translate(584.0570562028888 475.8122443730208) rotate(0 -180.82561997439552 -110.17451219529084)"><path d="M-334.58 -214.27 C-339.3 -212.15, -342.66 -215.98, -359.22 -217.15 M-333.09 -212.41 C-339.91 -215.43, -348.64 -216.06, -358.61 -219.12" stroke="#f08c00" stroke-width="1" fill="none"></path></g><g transform="translate(584.0570562028888 475.8122443730208) rotate(0 -180.82561997439552 -110.17451219529084)"><path d="M-343.73 -199.82 C-346.71 -200.66, -348.19 -207.44, -359.22 -217.15 M-342.24 -197.97 C-346.49 -205.25, -352.52 -210.14, -358.61 -219.12" stroke="#f08c00" stroke-width="1" fill="none"></path></g></g><mask></mask><g stroke-linecap="round"><g transform="translate(578.2434275041364 696.6010527632443) rotate(0 -182.5262510046971 -222.38553539534314)"><path d="M-1.12 1.36 C-61.89 -72.59, -302.83 -368.02, -363.82 -441.97 M3.47 -0.37 C-57.64 -75.18, -304.6 -371.1, -365.39 -445.46" stroke="#f08c00" stroke-width="1" fill="none"></path></g><g transform="translate(578.2434275041364 696.6010527632443) rotate(0 -182.5262510046971 -222.38553539534314)"><path d="M-12 11.52 C-7.48 6.72, -3.87 6.1, -0.66 1.91 M-12.94 11.06 C-8.59 8.11, -4.92 4.5, -1.15 1.82" stroke="#f08c00" stroke-width="1" fill="none"></path></g><g transform="translate(578.2434275041364 696.6010527632443) rotate(0 -182.5262510046971 -222.38553539534314)"><path d="M11.22 -7.47 C8.24 -6.13, 4.22 -0.51, -0.66 1.91 M10.28 -7.93 C7.09 -4.74, 3.15 -2.12, -1.15 1.82" stroke="#f08c00" stroke-width="1" fill="none"></path></g><g transform="translate(578.2434275041364 696.6010527632443) rotate(0 -182.5262510046971 -222.38553539534314)"><path d="M-342.86 -431.93 C-348.99 -438.47, -356.34 -439.3, -364.77 -444.73 M-344.11 -432.54 C-350.47 -436.61, -357.72 -441.42, -365.43 -444.84" stroke="#f08c00" stroke-width="1" fill="none"></path></g><g transform="translate(578.2434275041364 696.6010527632443) rotate(0 -182.5262510046971 -222.38553539534314)"><path d="M-356.04 -421.03 C-357.91 -431.1, -360.93 -435.51, -364.77 -444.73 M-357.29 -421.64 C-359.36 -429.24, -362.29 -437.62, -365.43 -444.84" stroke="#f08c00" stroke-width="1" fill="none"></path></g></g><mask></mask></svg>