<svg version="1.1" xmlns="http://www.w3.org/2000/svg" viewBox="0 0 1281.827022290473 722.3567522079247" width="1281.827022290473" height="722.3567522079247">
  <!-- svg-source:excalidraw -->
  
  <defs>
    <style class="style-fonts">
      @font-face {
        font-family: "Virgil";
        src: url("https://excalidraw.com/Virgil.woff2");
      }
      @font-face {
        font-family: "Cascadia";
        src: url("https://excalidraw.com/Cascadia.woff2");
      }
      @font-face {
        font-family: "Assistant";
        src: url("https://excalidraw.com/Assistant-Regular.woff2");
      }
    </style>
    
  </defs>
  <g stroke-linecap="round" transform="translate(10 16.93031663821239) rotate(0 148.67484973156297 310.26021008440784)"><path d="M32 0 C97.14 3.21, 161.23 -0.24, 265.35 0 M32 0 C106.13 0.25, 178.88 0.72, 265.35 0 M265.35 0 C283.69 -0.78, 293.69 13.33, 297.35 32 M265.35 0 C290.17 -3.89, 300.13 12.87, 297.35 32 M297.35 32 C295.62 204.55, 295.77 376.02, 297.35 588.52 M297.35 32 C301.87 254.81, 301.73 477.39, 297.35 588.52 M297.35 588.52 C299.14 613.72, 285.39 621.73, 265.35 620.52 M297.35 588.52 C295.95 612.72, 291.13 617.21, 265.35 620.52 M265.35 620.52 C218.42 621.04, 169.46 619.23, 32 620.52 M265.35 620.52 C184.46 618.96, 105.77 618.47, 32 620.52 M32 620.52 C9.52 619.54, -2.04 610.75, 0 588.52 M32 620.52 C15.12 616.67, 0.23 608.78, 0 588.52 M0 588.52 C2.75 441.16, 4.5 293.66, 0 32 M0 588.52 C-0.18 420.81, 0.18 252.48, 0 32 M0 32 C0.18 7.6, 7.69 -0.85, 32 0 M0 32 C-2.39 15.24, 7.76 -1.95, 32 0" stroke="#f08c00" stroke-width="1" fill="none"></path></g><g stroke-linecap="round" transform="translate(178.2628841220294 68.50656544485173) rotate(0 37.45000618367044 37.431027972289485)"><path d="M47.5 9.5 C53.59 13.09, 58.04 20.99, 65.4 28.5 M47.5 9.5 C53.14 14.72, 56.14 19.8, 65.4 28.5 M65.4 28.5 C71.25 40.66, 77.94 34.62, 65.4 47.5 M65.4 28.5 C77.68 40.2, 75.31 35.92, 65.4 47.5 M65.4 47.5 C61.83 52.62, 60.05 60.37, 47.5 65.36 M65.4 47.5 C61.98 54.76, 55.9 60.36, 47.5 65.36 M47.5 65.36 C36.71 76.07, 36.78 77.35, 28.5 65.36 M47.5 65.36 C42.45 71.55, 33.51 76.72, 28.5 65.36 M28.5 65.36 C20.56 56.63, 17.83 56.01, 9.5 47.5 M28.5 65.36 C25.07 58.55, 17.28 54.61, 9.5 47.5 M9.5 47.5 C-2.04 38.9, 3.87 34.65, 9.5 28.5 M9.5 47.5 C0.23 36.92, -1.63 33.72, 9.5 28.5 M9.5 28.5 C15.44 22.77, 19.34 19.18, 28.5 9.5 M9.5 28.5 C17.38 21.73, 24.02 12.38, 28.5 9.5 M28.5 9.5 C35.03 -0.85, 35.92 3.98, 47.5 9.5 M28.5 9.5 C35.1 -1.95, 40.39 -3.85, 47.5 9.5" stroke="#f08c00" stroke-width="1" fill="none"></path></g><g stroke-linecap="round" transform="translate(180.24830287965142 180.75596510855758) rotate(0 37.45000618367044 37.431027972289485)"><path d="M47.5 9.5 C54.72 17.84, 59.84 25.68, 65.4 28.5 M47.5 9.5 C50.79 14.13, 55.16 20.83, 65.4 28.5 M65.4 28.5 C77.94 34.62, 77.32 39.92, 65.4 47.5 M65.4 28.5 C75.31 35.92, 73.17 38.81, 65.4 47.5 M65.4 47.5 C63.44 56.91, 53.42 63.49, 47.5 65.36 M65.4 47.5 C60.18 56.12, 52.24 61.18, 47.5 65.36 M47.5 65.36 C36.78 77.35, 41.87 71.98, 28.5 65.36 M47.5 65.36 C33.51 76.72, 39.27 75.27, 28.5 65.36 M28.5 65.36 C25.09 62.46, 17.17 54.24, 9.5 47.5 M28.5 65.36 C22.85 60.11, 17.66 56.59, 9.5 47.5 M9.5 47.5 C3.87 34.65, 0.2 37.07, 9.5 28.5 M9.5 47.5 C-1.63 33.72, -2.39 34, 9.5 28.5 M9.5 28.5 C15.03 23.14, 23.61 17.05, 28.5 9.5 M9.5 28.5 C16.21 20.1, 21.38 14.47, 28.5 9.5 M28.5 9.5 C35.92 3.98, 35.48 -1.69, 47.5 9.5 M28.5 9.5 C40.39 -3.85, 34.72 -2.46, 47.5 9.5" stroke="#f08c00" stroke-width="1" fill="none"></path></g><g stroke-linecap="round" transform="translate(180.24830287965324 297.37123165720914) rotate(0 37.45000618367044 37.431027972289485)"><path d="M47.5 9.5 C51.4 16.53, 55.53 20.39, 65.4 28.5 M47.5 9.5 C50.59 16.42, 59.13 18.92, 65.4 28.5 M65.4 28.5 C77.32 39.92, 75.26 36.19, 65.4 47.5 M65.4 28.5 C73.17 38.81, 76.62 39.23, 65.4 47.5 M65.4 47.5 C60.26 57.2, 57.05 62, 47.5 65.36 M65.4 47.5 C58.03 55.32, 51.18 62.83, 47.5 65.36 M47.5 65.36 C41.87 71.98, 34.1 76.48, 28.5 65.36 M47.5 65.36 C39.27 75.27, 37.22 72.92, 28.5 65.36 M28.5 65.36 C23.25 60.75, 17.6 61.11, 9.5 47.5 M28.5 65.36 C23.39 61.78, 22.15 55.71, 9.5 47.5 M9.5 47.5 C0.2 37.07, -1.42 34.28, 9.5 28.5 M9.5 47.5 C-2.39 34, -0.41 39.03, 9.5 28.5 M9.5 28.5 C17.83 22.8, 22.09 19.37, 28.5 9.5 M9.5 28.5 C14.3 22.07, 21.05 18.18, 28.5 9.5 M28.5 9.5 C35.48 -1.69, 40.08 -3.35, 47.5 9.5 M28.5 9.5 C34.72 -2.46, 40.72 -2.42, 47.5 9.5" stroke="#f08c00" stroke-width="1" fill="none"></path></g><g stroke-linecap="round" transform="translate(182.08701280804962 516.4271410574402) rotate(0 37.45000618367044 37.431027972289485)"><path d="M47.5 9.5 C51.84 16.55, 58.89 18.9, 65.4 28.5 M47.5 9.5 C53.69 12.9, 58.41 20.88, 65.4 28.5 M65.4 28.5 C75.26 36.19, 73.4 38.71, 65.4 47.5 M65.4 28.5 C76.62 39.23, 75.24 42.58, 65.4 47.5 M65.4 47.5 C60.83 57.92, 55.04 63.36, 47.5 65.36 M65.4 47.5 C57.58 55.94, 53.02 60.34, 47.5 65.36 M47.5 65.36 C34.1 76.48, 39.11 75.22, 28.5 65.36 M47.5 65.36 C37.22 72.92, 34.76 76.95, 28.5 65.36 M28.5 65.36 C19.7 62.58, 11.69 51.27, 9.5 47.5 M28.5 65.36 C25.38 58.85, 18.32 55.14, 9.5 47.5 M9.5 47.5 C-1.42 34.28, -2.08 34.52, 9.5 28.5 M9.5 47.5 C-0.41 39.03, -1.21 38.1, 9.5 28.5 M9.5 28.5 C17.14 24.09, 21.93 17.25, 28.5 9.5 M9.5 28.5 C12.99 26.33, 17.01 19.25, 28.5 9.5 M28.5 9.5 C40.08 -3.35, 35.15 -2.14, 47.5 9.5 M28.5 9.5 C40.72 -2.42, 36.79 2.96, 47.5 9.5" stroke="#f08c00" stroke-width="1" fill="none"></path></g><g transform="translate(186.34599837778387 423.6358685908017) rotate(0 31.640625 21.600000000000364)"><text x="0" y="34.762499999999996" font-family="Cascadia, Segoe UI Emoji" font-size="36px" fill="#f08c00" text-anchor="start" style="white-space: pre;" direction="ltr" dominant-baseline="alphabetic">...</text></g><g stroke-linecap="round" transform="translate(494.0180882974655 10) rotate(0 151.30804792151093 315.7552660745923)"><path d="M32 0 C108.56 -0.07, 188.64 5.52, 270.62 0 M32 0 C83.58 -2.66, 134.23 -1.61, 270.62 0 M270.62 0 C293.45 1.07, 302.92 14.65, 302.62 32 M270.62 0 C295.81 0.01, 307.11 13.32, 302.62 32 M302.62 32 C308 247.29, 306.94 463.13, 302.62 599.51 M302.62 32 C306.23 237.89, 307.23 443.21, 302.62 599.51 M302.62 599.51 C301.94 619.16, 289.13 633.32, 270.62 631.51 M302.62 599.51 C305.4 620.01, 291.1 629.2, 270.62 631.51 M270.62 631.51 C175.99 628.66, 83.76 633.6, 32 631.51 M270.62 631.51 C218.42 629.02, 166.53 629.13, 32 631.51 M32 631.51 C10.31 632.41, -1.05 620.93, 0 599.51 M32 631.51 C10.75 635.12, -0.57 623.37, 0 599.51 M0 599.51 C-2.66 409.98, -1.77 221.99, 0 32 M0 599.51 C3.28 372.17, 2.29 145.74, 0 32 M0 32 C2.37 8.57, 9.61 2.57, 32 0 M0 32 C1 11, 8.53 -1.36, 32 0" stroke="#f08c00" stroke-width="1" fill="none"></path></g><g stroke-linecap="round" transform="translate(549.16460027222 62.4897219680206) rotate(0 38.11328775869424 38.09397342192369)"><path d="M48.75 9.75 C55.32 17.5, 53.28 21.27, 66.48 29.25 M48.75 9.75 C54.2 17.05, 61.87 24.01, 66.48 29.25 M66.48 29.25 C76.53 42.98, 79.59 39.01, 66.48 48.75 M66.48 29.25 C80.72 41.65, 79.92 42.89, 66.48 48.75 M66.48 48.75 C61.92 53.52, 57.08 64.7, 48.75 66.44 M66.48 48.75 C62.64 53.1, 57.71 56.11, 48.75 66.44 M48.75 66.44 C36.18 78, 41.42 75.46, 29.25 66.44 M48.75 66.44 C38.15 73.87, 43.28 72.53, 29.25 66.44 M29.25 66.44 C24.94 65.31, 15.41 56.84, 9.75 48.75 M29.25 66.44 C22.94 59.44, 18.41 56.74, 9.75 48.75 M9.75 48.75 C-1.05 39.09, 0.07 42.14, 9.75 29.25 M9.75 48.75 C-0.57 41.53, 1.47 40.45, 9.75 29.25 M9.75 29.25 C15.14 21.53, 25.9 15.15, 29.25 9.75 M9.75 29.25 C13.15 23.48, 20.78 18.48, 29.25 9.75 M29.25 9.75 C37.95 2.57, 39.87 0.29, 48.75 9.75 M29.25 9.75 C36.87 -1.36, 34.46 -2.28, 48.75 9.75" stroke="#f08c00" stroke-width="1" fill="none"></path></g><g stroke-linecap="round" transform="translate(547.1440175235912 176.72718428355438) rotate(0 38.11328775869424 38.09397342192369)"><path d="M48.75 9.75 C49.33 15.97, 58.32 17.98, 66.48 29.25 M48.75 9.75 C53.87 15.19, 57.79 21.62, 66.48 29.25 M66.48 29.25 C79.59 39.01, 80.14 41.3, 66.48 48.75 M66.48 29.25 C79.92 42.89, 78.29 43.45, 66.48 48.75 M66.48 48.75 C64.33 57.25, 54.21 54.21, 48.75 66.44 M66.48 48.75 C60.2 53.96, 53.1 61.73, 48.75 66.44 M48.75 66.44 C41.42 75.46, 38.26 74.18, 29.25 66.44 M48.75 66.44 C43.28 72.53, 37.68 75.06, 29.25 66.44 M29.25 66.44 C20.97 62.61, 18.53 56.59, 9.75 48.75 M29.25 66.44 C25.22 62.89, 20.84 58.82, 9.75 48.75 M9.75 48.75 C0.07 42.14, -0.49 41.2, 9.75 29.25 M9.75 48.75 C1.47 40.45, 0.2 35.47, 9.75 29.25 M9.75 29.25 C18.21 22.53, 16.94 22.73, 29.25 9.75 M9.75 29.25 C15.43 24.19, 17.94 22.31, 29.25 9.75 M29.25 9.75 C39.87 0.29, 37.15 -1.18, 48.75 9.75 M29.25 9.75 C34.46 -2.28, 37.15 2.99, 48.75 9.75" stroke="#f08c00" stroke-width="1" fill="none"></path></g><g stroke-linecap="round" transform="translate(547.1440175235912 295.4078378788472) rotate(0 38.11328775869424 38.09397342192369)"><path d="M48.75 9.75 C57 17.22, 59.94 22.69, 66.48 29.25 M48.75 9.75 C54.68 17.84, 61.84 22.05, 66.48 29.25 M66.48 29.25 C80.14 41.3, 79.44 42.39, 66.48 48.75 M66.48 29.25 C78.29 43.45, 74.74 40.39, 66.48 48.75 M66.48 48.75 C59.04 49.96, 58.76 59.73, 48.75 66.44 M66.48 48.75 C59.53 54.97, 56.67 59.17, 48.75 66.44 M48.75 66.44 C38.26 74.18, 42.72 73.01, 29.25 66.44 M48.75 66.44 C37.68 75.06, 36.65 77.22, 29.25 66.44 M29.25 66.44 C20.87 58.02, 10.35 50.34, 9.75 48.75 M29.25 66.44 C24.6 62.8, 21.01 60.56, 9.75 48.75 M9.75 48.75 C-0.49 41.2, 1.28 40.26, 9.75 29.25 M9.75 48.75 C0.2 35.47, -3.42 38.03, 9.75 29.25 M9.75 29.25 C12.51 26.74, 15.69 16.97, 29.25 9.75 M9.75 29.25 C13.8 25.93, 19.57 19.98, 29.25 9.75 M29.25 9.75 C37.15 -1.18, 35.05 -1.98, 48.75 9.75 M29.25 9.75 C37.15 2.99, 37.56 3.33, 48.75 9.75" stroke="#f08c00" stroke-width="1" fill="none"></path></g><g stroke-linecap="round" transform="translate(545.2727419819512 518.3434729029541) rotate(0 38.11328775869424 38.09397342192369)"><path d="M48.75 9.75 C53.52 15.25, 62.42 25.28, 66.48 29.25 M48.75 9.75 C56.25 15.77, 62.32 23.29, 66.48 29.25 M66.48 29.25 C79.44 42.39, 78.02 42.87, 66.48 48.75 M66.48 29.25 C74.74 40.39, 74.83 41.86, 66.48 48.75 M66.48 48.75 C60.8 56.53, 52.51 61.76, 48.75 66.44 M66.48 48.75 C62.87 53.11, 56.72 57.03, 48.75 66.44 M48.75 66.44 C42.72 73.01, 37.85 75.2, 29.25 66.44 M48.75 66.44 C36.65 77.22, 43.45 72.34, 29.25 66.44 M29.25 66.44 C19.66 58.82, 13.96 55.15, 9.75 48.75 M29.25 66.44 C23.09 62.31, 16.52 56.14, 9.75 48.75 M9.75 48.75 C1.28 40.26, 0.18 35.93, 9.75 29.25 M9.75 48.75 C-3.42 38.03, -2.39 43.57, 9.75 29.25 M9.75 29.25 C11.19 21.58, 17.02 22.18, 29.25 9.75 M9.75 29.25 C15.11 24.32, 18.58 18.76, 29.25 9.75 M29.25 9.75 C35.05 -1.98, 37.39 2.6, 48.75 9.75 M29.25 9.75 C37.56 3.33, 43.27 4.1, 48.75 9.75" stroke="#f08c00" stroke-width="1" fill="none"></path></g><g transform="translate(552.7628686738199 423.90876302142715) rotate(0 32.20101592441824 21.982560204402944)"><text x="0" y="35.37818282896091" font-family="Cascadia, Segoe UI Emoji" font-size="36.63760034067149px" fill="#f08c00" text-anchor="start" style="white-space: pre;" direction="ltr" dominant-baseline="alphabetic">...</text></g><g transform="translate(543.9103796352001 669.156752207924) rotate(0 94.921875 21.600000000000364)"><text x="94.921875" y="34.762499999999996" font-family="Cascadia, Segoe UI Emoji" font-size="36px" fill="#f08c00" text-anchor="middle" style="white-space: pre;" direction="ltr" dominant-baseline="alphabetic">n^2 * m^2</text></g><g stroke-linecap="round" transform="translate(974.477322827347 13.45521493918568) rotate(0 148.67484973156297 310.26021008440784)"><path d="M32 0 C103.76 -0.01, 177.45 -0.6, 265.35 0 M32 0 C121.21 -3.3, 210.99 -2.76, 265.35 0 M265.35 0 C290.55 -2.88, 293.45 12.28, 297.35 32 M265.35 0 C287.95 0.41, 296.57 8.73, 297.35 32 M297.35 32 C299.08 159.49, 298.56 289.06, 297.35 588.52 M297.35 32 C295.66 154.94, 296.85 276.85, 297.35 588.52 M297.35 588.52 C297.55 608.92, 285.26 616.8, 265.35 620.52 M297.35 588.52 C294.96 605.85, 286.27 621.55, 265.35 620.52 M265.35 620.52 C204.12 620.17, 139.45 621.67, 32 620.52 M265.35 620.52 C186.71 617.14, 109.71 619.18, 32 620.52 M32 620.52 C8.14 618.83, 2.08 606.5, 0 588.52 M32 620.52 C7.39 618.06, 2.72 607.44, 0 588.52 M0 588.52 C-2.75 435.46, -3.34 282.3, 0 32 M0 588.52 C1.54 449.75, 2.53 310.54, 0 32 M0 32 C0.17 7.04, 13.18 -3.05, 32 0 M0 32 C4.5 12.41, 10.16 -0.41, 32 0" stroke="#f08c00" stroke-width="1" fill="none"></path></g><g stroke-linecap="round" transform="translate(1142.7402069493755 65.03146374582502) rotate(0 37.45000618367044 37.431027972289485)"><path d="M47.5 9.5 C56.68 19.66, 64.63 25.53, 65.4 28.5 M47.5 9.5 C53.87 18.17, 63.51 23.02, 65.4 28.5 M65.4 28.5 C71 39.62, 76.01 38.36, 65.4 47.5 M65.4 28.5 C74.12 36.06, 71.66 40.08, 65.4 47.5 M65.4 47.5 C56.87 57.6, 49.26 59.16, 47.5 65.36 M65.4 47.5 C62.22 50.82, 55.46 56.95, 47.5 65.36 M47.5 65.36 C36.58 71.14, 35.92 71.38, 28.5 65.36 M47.5 65.36 C37.59 75.89, 36.79 74.96, 28.5 65.36 M28.5 65.36 C24.69 61.2, 18.02 54.71, 9.5 47.5 M28.5 65.36 C23.48 63.28, 19.02 56.46, 9.5 47.5 M9.5 47.5 C2.08 34.65, -2.85 35.86, 9.5 28.5 M9.5 47.5 C2.72 35.58, -1.21 40.96, 9.5 28.5 M9.5 28.5 C14.4 18.61, 19.72 14.84, 28.5 9.5 M9.5 28.5 C18.41 23.07, 23.58 12.54, 28.5 9.5 M28.5 9.5 C40.51 -3.05, 41.91 1.51, 47.5 9.5 M28.5 9.5 C37.5 -0.41, 40.22 3.47, 47.5 9.5" stroke="#f08c00" stroke-width="1" fill="none"></path></g><g stroke-linecap="round" transform="translate(1144.7256257069994 177.28086340953814) rotate(0 37.45000618367044 37.431027972289485)"><path d="M47.5 9.5 C58.22 18.56, 65.82 23.03, 65.4 28.5 M47.5 9.5 C55.23 14.11, 57.26 22.64, 65.4 28.5 M65.4 28.5 C76.01 38.36, 74.22 36.31, 65.4 47.5 M65.4 28.5 C71.66 40.08, 77.68 37.17, 65.4 47.5 M65.4 47.5 C57.01 51.71, 54.16 55.85, 47.5 65.36 M65.4 47.5 C60.07 52.49, 53.49 56.86, 47.5 65.36 M47.5 65.36 C35.92 71.38, 37.64 75.76, 28.5 65.36 M47.5 65.36 C36.79 74.96, 38.08 78.47, 28.5 65.36 M28.5 65.36 C24.1 60.52, 14.31 52.23, 9.5 47.5 M28.5 65.36 C22.13 59.91, 19.13 54.11, 9.5 47.5 M9.5 47.5 C-2.85 35.86, 2.37 35.9, 9.5 28.5 M9.5 47.5 C-1.21 40.96, 1 38.33, 9.5 28.5 M9.5 28.5 C12.45 22.45, 21.85 17.98, 28.5 9.5 M9.5 28.5 C16.31 19.27, 24.55 12.49, 28.5 9.5 M28.5 9.5 C41.91 1.51, 37.56 -0.36, 47.5 9.5 M28.5 9.5 C40.22 3.47, 38.02 2.48, 47.5 9.5" stroke="#f08c00" stroke-width="1" fill="none"></path></g><g stroke-linecap="round" transform="translate(1144.7256257069994 293.8961299581824) rotate(0 37.45000618367044 37.431027972289485)"><path d="M47.5 9.5 C58.49 15.27, 62.65 22.57, 65.4 28.5 M47.5 9.5 C52.4 17.45, 61.39 23.7, 65.4 28.5 M65.4 28.5 C74.22 36.31, 72.08 39.81, 65.4 47.5 M65.4 28.5 C77.68 37.17, 74.05 35.69, 65.4 47.5 M65.4 47.5 C57.1 52.38, 51.94 65.31, 47.5 65.36 M65.4 47.5 C60.84 49.42, 56.63 53.4, 47.5 65.36 M47.5 65.36 C37.64 75.76, 36.95 74.95, 28.5 65.36 M47.5 65.36 C38.08 78.47, 37.43 77.39, 28.5 65.36 M28.5 65.36 C19.01 56.48, 14.93 51.44, 9.5 47.5 M28.5 65.36 C22.18 56.39, 12.12 49.86, 9.5 47.5 M9.5 47.5 C2.37 35.9, -1.05 40.57, 9.5 28.5 M9.5 47.5 C1 38.33, -2.13 36.64, 9.5 28.5 M9.5 28.5 C16.12 23.58, 20.23 24.72, 28.5 9.5 M9.5 28.5 C18.13 19.93, 26.22 14.82, 28.5 9.5 M28.5 9.5 C37.56 -0.36, 39.93 3.01, 47.5 9.5 M28.5 9.5 C38.02 2.48, 36.36 3.67, 47.5 9.5" stroke="#f08c00" stroke-width="1" fill="none"></path></g><g stroke-linecap="round" transform="translate(1146.5643356353967 512.9520393584135) rotate(0 37.45000618367044 37.431027972289485)"><path d="M47.5 9.5 C55.25 14.95, 62.7 26.59, 65.4 28.5 M47.5 9.5 C51.76 13.86, 54.95 17.17, 65.4 28.5 M65.4 28.5 C72.08 39.81, 77.32 37.28, 65.4 47.5 M65.4 28.5 C74.05 35.69, 79.18 34.35, 65.4 47.5 M65.4 47.5 C61.35 56.03, 52.25 57.21, 47.5 65.36 M65.4 47.5 C59.28 50.37, 55.19 57.5, 47.5 65.36 M47.5 65.36 C36.95 74.95, 38.07 78, 28.5 65.36 M47.5 65.36 C37.43 77.39, 39.47 76.32, 28.5 65.36 M28.5 65.36 C22.14 57.56, 21.18 51.68, 9.5 47.5 M28.5 65.36 C21.99 59.37, 19.71 54.79, 9.5 47.5 M9.5 47.5 C-1.05 40.57, 0.87 38.29, 9.5 28.5 M9.5 47.5 C-2.13 36.64, -4.54 35.72, 9.5 28.5 M9.5 28.5 C17.08 27.4, 22.69 18.92, 28.5 9.5 M9.5 28.5 C15.19 25.57, 17 20.66, 28.5 9.5 M28.5 9.5 C39.93 3.01, 38.01 2.15, 47.5 9.5 M28.5 9.5 C36.36 3.67, 39.6 0.7, 47.5 9.5" stroke="#f08c00" stroke-width="1" fill="none"></path></g><g transform="translate(1150.82332120513 420.160766891775) rotate(0 31.640625 21.600000000000364)"><text x="0" y="34.762499999999996" font-family="Cascadia, Segoe UI Emoji" font-size="36px" fill="#f08c00" text-anchor="start" style="white-space: pre;" direction="ltr" dominant-baseline="alphabetic">...</text></g><g stroke-linecap="round"><g transform="translate(223.43135178563443 222.2799137067268) rotate(0 182.26338177502703 -56.46067527015384)"><path d="M-1.97 1.27 C59.14 -17.44, 305.22 -94.16, 366.22 -113.43 M2.15 -0.51 C63.09 -18.68, 304.94 -91.49, 364.9 -110.07" stroke="#f08c00" stroke-width="1" fill="none"></path></g><g transform="translate(223.43135178563443 222.2799137067268) rotate(0 182.26338177502703 -56.46067527015384)"><path d="M-5.74 -12.15 C-5.5 -9.25, -4.72 -3.52, -3.16 0.84 M-5.7 -13.68 C-5.23 -9.3, -4.31 -5.87, -2.36 0.62" stroke="#f08c00" stroke-width="1" fill="none"></path></g><g transform="translate(223.43135178563443 222.2799137067268) rotate(0 182.26338177502703 -56.46067527015384)"><path d="M3.16 16.5 C1.01 11.23, -0.73 8.85, -3.16 0.84 M3.21 14.96 C1.37 11.48, -0.16 7.01, -2.36 0.62" stroke="#f08c00" stroke-width="1" fill="none"></path></g><g transform="translate(223.43135178563443 222.2799137067268) rotate(0 182.26338177502703 -56.46067527015384)"><path d="M345.83 -93.84 C350.28 -99.53, 355.28 -101.55, 363.31 -110.65 M345.89 -95.88 C350.55 -99.46, 355.65 -104.3, 364.38 -110.94" stroke="#f08c00" stroke-width="1" fill="none"></path></g><g transform="translate(223.43135178563443 222.2799137067268) rotate(0 182.26338177502703 -56.46067527015384)"><path d="M340.84 -110.2 C346.63 -111.22, 353.05 -108.61, 363.31 -110.65 M340.9 -112.24 C346.85 -111.33, 353.32 -111.66, 364.38 -110.94" stroke="#f08c00" stroke-width="1" fill="none"></path></g></g><mask></mask><g stroke-linecap="round"><g transform="translate(211.01915868660672 344.16284822858506) rotate(0 187.79707690676742 -117.8807352109443)"><path d="M1.69 -0.51 C64.53 -40.25, 312.32 -197.59, 375.08 -237.17 M-0.83 -3.25 C61.77 -42.75, 309.45 -195.5, 372.56 -234.31" stroke="#f08c00" stroke-width="1" fill="none"></path></g><g transform="translate(211.01915868660672 344.16284822858506) rotate(0 187.79707690676742 -117.8807352109443)"><path d="M-6.61 -13.45 C-5.19 -8.92, -3.79 -7.84, 1.32 -1.27 M-6.3 -13.35 C-3.89 -9.72, -1.43 -5.59, 1.62 -0.34" stroke="#f08c00" stroke-width="1" fill="none"></path></g><g transform="translate(211.01915868660672 344.16284822858506) rotate(0 187.79707690676742 -117.8807352109443)"><path d="M9.45 11.88 C7.07 10.7, 4.79 5.96, 1.32 -1.27 M9.76 11.99 C6.75 7.31, 4.03 3.27, 1.62 -0.34" stroke="#f08c00" stroke-width="1" fill="none"></path></g><g transform="translate(211.01915868660672 344.16284822858506) rotate(0 187.79707690676742 -117.8807352109443)"><path d="M356.68 -215.07 C359.51 -217.43, 362.49 -224.37, 372.06 -235.33 M357.09 -214.94 C361.5 -221.82, 366.34 -228.08, 372.47 -234.08" stroke="#f08c00" stroke-width="1" fill="none"></path></g><g transform="translate(211.01915868660672 344.16284822858506) rotate(0 187.79707690676742 -117.8807352109443)"><path d="M347.71 -229.63 C352.66 -228.7, 357.7 -232.3, 372.06 -235.33 M348.12 -229.49 C355.56 -231.61, 363.29 -233.18, 372.47 -234.08" stroke="#f08c00" stroke-width="1" fill="none"></path></g></g><mask></mask><g stroke-linecap="round"><g transform="translate(214.02855836252002 554.4606985213941) rotate(0 182.9931837386323 -223.84659037292022)"><path d="M-0.52 -1.41 C60.63 -76.31, 307.64 -375.42, 368.59 -449.92 M-4.25 4 C56.61 -70.58, 306.57 -372.55, 367.77 -447.49" stroke="#f08c00" stroke-width="1" fill="none"></path></g><g transform="translate(214.02855836252002 554.4606985213941) rotate(0 182.9931837386323 -223.84659037292022)"><path d="M-12.85 -9.55 C-9.13 -7.91, -4.14 -4.81, -0.18 0.04 M-12.37 -11.64 C-9.98 -9.51, -7.15 -6.62, -0.72 -1.39" stroke="#f08c00" stroke-width="1" fill="none"></path></g><g transform="translate(214.02855836252002 554.4606985213941) rotate(0 182.9931837386323 -223.84659037292022)"><path d="M10.31 9.52 C5.71 4.24, 2.36 0.46, -0.18 0.04 M10.8 7.43 C8.16 5.38, 5.98 4.14, -0.72 -1.39" stroke="#f08c00" stroke-width="1" fill="none"></path></g><g transform="translate(214.02855836252002 554.4606985213941) rotate(0 182.9931837386323 -223.84659037292022)"><path d="M358.44 -422.06 C360.9 -432.98, 365 -441.92, 368.22 -445.56 M359.09 -424.85 C360.72 -429.87, 362.95 -433.87, 367.51 -447.47" stroke="#f08c00" stroke-width="1" fill="none"></path></g><g transform="translate(214.02855836252002 554.4606985213941) rotate(0 182.9931837386323 -223.84659037292022)"><path d="M345.24 -432.92 C352.44 -439.9, 361.29 -444.93, 368.22 -445.56 M345.89 -435.72 C350.37 -438.35, 355.46 -440.01, 367.51 -447.47" stroke="#f08c00" stroke-width="1" fill="none"></path></g></g><mask></mask><g stroke-linecap="round"><g transform="translate(216.53084357910802 110.7838475090939) rotate(0 186.25667238542792 0.2633274561021608)"><path d="M2.7 2.43 C65.39 2.59, 312.44 3.09, 373.64 2.6 M0.72 1.27 C63.36 0.53, 309.58 -1.41, 372.02 -1.29" stroke="#f08c00" stroke-width="1" fill="none"></path></g><g transform="translate(216.53084357910802 110.7838475090939) rotate(0 186.25667238542792 0.2633274561021608)"><path d="M4.02 -11.97 C3.91 -10.78, 2.22 -6.16, 1.46 3.82 M2.03 -12.08 C2.02 -9.08, 2.21 -5.81, 2.88 2.45" stroke="#f08c00" stroke-width="1" fill="none"></path></g><g transform="translate(216.53084357910802 110.7838475090939) rotate(0 186.25667238542792 0.2633274561021608)"><path d="M3.98 18.03 C3.71 12.87, 2.03 11.14, 1.46 3.82 M1.99 17.92 C2.24 14.43, 2.44 11.2, 2.88 2.45" stroke="#f08c00" stroke-width="1" fill="none"></path></g><g transform="translate(216.53084357910802 110.7838475090939) rotate(0 186.25667238542792 0.2633274561021608)"><path d="M350.29 8.15 C354.95 3.45, 357.67 3.55, 370.36 0.57 M347.63 8.01 C352.94 5.99, 358.28 4.15, 372.25 -1.26" stroke="#f08c00" stroke-width="1" fill="none"></path></g><g transform="translate(216.53084357910802 110.7838475090939) rotate(0 186.25667238542792 0.2633274561021608)"><path d="M350.22 -8.95 C355 -10.03, 357.73 -6.31, 370.36 0.57 M347.57 -9.09 C352.75 -7.41, 358.09 -5.55, 372.25 -1.26" stroke="#f08c00" stroke-width="1" fill="none"></path></g></g><mask></mask><g stroke-linecap="round"><g transform="translate(221.90858898191573 112.55993315848718) rotate(0 184.07658376539075 56.22339034958895)"><path d="M2.41 -1.7 C63.09 16.94, 304.3 91.26, 365.47 110.35 M0.27 3.54 C61.65 22.61, 309.08 94.07, 370.41 112.84" stroke="#f08c00" stroke-width="1" fill="none"></path></g><g transform="translate(221.90858898191573 112.55993315848718) rotate(0 184.07658376539075 56.22339034958895)"><path d="M5.91 -17.48 C4.08 -10.32, 3.87 -7.2, 2.86 -1.9 M7.52 -16.75 C4.79 -11.79, 3.42 -5.86, 2.13 -1.83" stroke="#f08c00" stroke-width="1" fill="none"></path></g><g transform="translate(221.90858898191573 112.55993315848718) rotate(0 184.07658376539075 56.22339034958895)"><path d="M-2.92 11.19 C-1.51 8.25, 1.37 1.35, 2.86 -1.9 M-1.32 11.92 C-0.95 7.34, 0.61 3.76, 2.13 -1.83" stroke="#f08c00" stroke-width="1" fill="none"></path></g><g transform="translate(221.90858898191573 112.55993315848718) rotate(0 184.07658376539075 56.22339034958895)"><path d="M344.24 112.44 C352.69 114.51, 363.19 111.46, 371.02 112.59 M346.38 113.41 C353.1 113.09, 361.5 114.15, 370.03 112.67" stroke="#f08c00" stroke-width="1" fill="none"></path></g><g transform="translate(221.90858898191573 112.55993315848718) rotate(0 184.07658376539075 56.22339034958895)"><path d="M349.1 96.05 C355.76 103.89, 364.57 106.57, 371.02 112.59 M351.24 97.02 C356.25 102.15, 363.04 108.65, 370.03 112.67" stroke="#f08c00" stroke-width="1" fill="none"></path></g></g><mask></mask><g stroke-linecap="round"><g transform="translate(222.50138124243313 117.898423830311) rotate(0 184.94461736923517 111.00405477886943)"><path d="M-1.39 2.22 C60.27 39.47, 308.57 183.94, 370.26 220.78 M3.05 0.95 C64.34 38.82, 307.68 187.5, 368.22 223.74" stroke="#f08c00" stroke-width="1" fill="none"></path></g><g transform="translate(222.50138124243313 117.898423830311) rotate(0 184.94461736923517 111.00405477886943)"><path d="M7.4 -10.52 C3.06 -7.35, 2.02 -1.58, -2.75 1.71 M5.74 -10.14 C3.35 -5.09, 0.61 -0.48, -0.65 1.48" stroke="#f08c00" stroke-width="1" fill="none"></path></g><g transform="translate(222.50138124243313 117.898423830311) rotate(0 184.94461736923517 111.00405477886943)"><path d="M-7.81 15.35 C-7.16 10.53, -3.46 8.25, -2.75 1.71 M-9.46 15.72 C-5.83 10.84, -2.72 5.5, -0.65 1.48" stroke="#f08c00" stroke-width="1" fill="none"></path></g><g transform="translate(222.50138124243313 117.898423830311) rotate(0 184.94461736923517 111.00405477886943)"><path d="M345.28 219.14 C350.41 219.68, 359.82 223.52, 366.41 223.06 M343.07 219.64 C353.29 221.64, 362.97 223.02, 369.21 222.75" stroke="#f08c00" stroke-width="1" fill="none"></path></g><g transform="translate(222.50138124243313 117.898423830311) rotate(0 184.94461736923517 111.00405477886943)"><path d="M354.14 204.52 C356.37 209.56, 363.02 217.96, 366.41 223.06 M351.93 205.01 C358.64 212.63, 364.91 219.63, 369.21 222.75" stroke="#f08c00" stroke-width="1" fill="none"></path></g></g><mask></mask><g stroke-linecap="round"><g transform="translate(221.18672960979393 115.31311030247707) rotate(0 182.90367684230046 224.47481881082513)"><path d="M-1.52 -0.97 C59.13 73.67, 302.6 373.47, 364.08 448.69 M2.85 -3.97 C64.39 71.05, 308.96 377.25, 369.54 452.17" stroke="#f08c00" stroke-width="1" fill="none"></path></g><g transform="translate(221.18672960979393 115.31311030247707) rotate(0 182.90367684230046 224.47481881082513)"><path d="M9.6 -11.36 C6.43 -6.76, 3.75 -6.03, -2.63 -0.31 M10.3 -10.59 C7.06 -8.68, 3.3 -6.08, -1.35 -1.34" stroke="#f08c00" stroke-width="1" fill="none"></path></g><g transform="translate(221.18672960979393 115.31311030247707) rotate(0 182.90367684230046 224.47481881082513)"><path d="M-13.68 7.56 C-9.75 6.47, -5.29 1.39, -2.63 -0.31 M-12.98 8.33 C-9.97 5.37, -7.66 3.04, -1.35 -1.34" stroke="#f08c00" stroke-width="1" fill="none"></path></g><g transform="translate(221.18672960979393 115.31311030247707) rotate(0 182.90367684230046 224.47481881082513)"><path d="M347.47 437.98 C354.59 444.41, 362.34 445.5, 368.06 453.06 M348.4 439 C353.69 441.74, 358.3 445.3, 369.77 451.68" stroke="#f08c00" stroke-width="1" fill="none"></path></g><g transform="translate(221.18672960979393 115.31311030247707) rotate(0 182.90367684230046 224.47481881082513)"><path d="M360.8 427.27 C363.86 436.92, 367.51 441.3, 368.06 453.06 M361.73 428.29 C363.45 433.78, 364.59 440.13, 369.77 451.68" stroke="#f08c00" stroke-width="1" fill="none"></path></g></g><mask></mask><g stroke-linecap="round"><g transform="translate(220.74133351815044 117.61081037332588) rotate(0 485.52114736461795 -7.668801190395243)"><path d="M1.5 2.69 C163.62 0.07, 808.94 -12.22, 970.67 -14.84 M-1.13 1.69 C160.77 -1.94, 806.29 -16.41, 968.23 -19.58" stroke="#f08c00" stroke-width="1" fill="none"></path></g><g transform="translate(220.74133351815044 117.61081037332588) rotate(0 485.52114736461795 -7.668801190395243)"><path d="M2.67 -12.5 C1.61 -8.47, 2.64 -6.07, 2.44 2.21 M1.15 -12.69 C1.32 -7.64, 0.99 -3.78, 1.23 2.7" stroke="#f08c00" stroke-width="1" fill="none"></path></g><g transform="translate(220.74133351815044 117.61081037332588) rotate(0 485.52114736461795 -7.668801190395243)"><path d="M3.22 17.49 C1.93 14.75, 2.84 10.37, 2.44 2.21 M1.7 17.31 C1.9 13.34, 1.4 8.2, 1.23 2.7" stroke="#f08c00" stroke-width="1" fill="none"></path></g><g transform="translate(220.74133351815044 117.61081037332588) rotate(0 485.52114736461795 -7.668801190395243)"><path d="M946.85 -10.8 C950.52 -12.11, 957.08 -15.47, 969.49 -20.22 M944.82 -11.04 C952.13 -13.01, 958.58 -16.58, 967.87 -19.57" stroke="#f08c00" stroke-width="1" fill="none"></path></g><g transform="translate(220.74133351815044 117.61081037332588) rotate(0 485.52114736461795 -7.668801190395243)"><path d="M946.48 -27.89 C950.29 -25.34, 956.94 -24.84, 969.49 -20.22 M944.46 -28.14 C951.77 -24.97, 958.32 -23.4, 967.87 -19.57" stroke="#f08c00" stroke-width="1" fill="none"></path></g></g><mask></mask><g stroke-linecap="round"><g transform="translate(222.82809668825803 115.88207478854565) rotate(0 481.54282548432025 52.169690221271594)"><path d="M0.25 1.3 C160.66 18.43, 800.56 87.82, 961.15 105.38 M-3.05 -0.46 C158.36 17.01, 805.59 83.79, 966.5 100.94" stroke="#f08c00" stroke-width="1" fill="none"></path></g><g transform="translate(222.82809668825803 115.88207478854565) rotate(0 481.54282548432025 52.169690221271594)"><path d="M2.56 -14.65 C2.15 -9.44, 2.46 -6.01, -0.17 2.68 M2.22 -14 C1.67 -8.57, 1.33 -3.58, -0.19 1.08" stroke="#f08c00" stroke-width="1" fill="none"></path></g><g transform="translate(222.82809668825803 115.88207478854565) rotate(0 481.54282548432025 52.169690221271594)"><path d="M-0.66 15.18 C-0.53 12.82, 0.59 8.69, -0.17 2.68 M-1 15.82 C-0.4 11.53, 0.31 6.82, -0.19 1.08" stroke="#f08c00" stroke-width="1" fill="none"></path></g><g transform="translate(222.82809668825803 115.88207478854565) rotate(0 481.54282548432025 52.169690221271594)"><path d="M943.17 105.61 C949.08 105.95, 956.19 103.95, 965.93 102.77 M942.72 106.47 C950.66 105.03, 958.79 103.24, 965.9 100.64" stroke="#f08c00" stroke-width="1" fill="none"></path></g><g transform="translate(222.82809668825803 115.88207478854565) rotate(0 481.54282548432025 52.169690221271594)"><path d="M944.96 88.61 C950.57 93.26, 957.22 95.57, 965.93 102.77 M944.5 89.47 C951.8 93.57, 959.35 97.31, 965.9 100.64" stroke="#f08c00" stroke-width="1" fill="none"></path></g></g><mask></mask><g stroke-linecap="round"><g transform="translate(227.73493806138913 115.53657205901982) rotate(0 478.77460323915466 107.88116527554303)"><path d="M2.17 -2.1 C161.3 33.7, 796.59 180.28, 955.78 216.14 M-0.1 2.92 C159.85 39.13, 801.98 184.68, 961.22 219.97" stroke="#f08c00" stroke-width="1" fill="none"></path></g><g transform="translate(227.73493806138913 115.53657205901982) rotate(0 478.77460323915466 107.88116527554303)"><path d="M4.39 -17.68 C4.66 -11.94, 1.86 -7.11, 3.3 -2.72 M5.2 -16.92 C3.96 -11.24, 2.83 -5.04, 2.91 -2.07" stroke="#f08c00" stroke-width="1" fill="none"></path></g><g transform="translate(227.73493806138913 115.53657205901982) rotate(0 478.77460323915466 107.88116527554303)"><path d="M-2.31 11.57 C0.08 7.43, -0.47 2.44, 3.3 -2.72 M-1.5 12.32 C0.03 6.5, 1.53 1.17, 2.91 -2.07" stroke="#f08c00" stroke-width="1" fill="none"></path></g><g transform="translate(227.73493806138913 115.53657205901982) rotate(0 478.77460323915466 107.88116527554303)"><path d="M934.92 221.9 C945 221.7, 951.1 220.52, 962.73 219.15 M936 222.9 C945.98 221.61, 955.99 220.93, 962.21 220.02" stroke="#f08c00" stroke-width="1" fill="none"></path></g><g transform="translate(227.73493806138913 115.53657205901982) rotate(0 478.77460323915466 107.88116527554303)"><path d="M938.67 205.21 C947.57 210.65, 952.41 215.07, 962.73 219.15 M939.75 206.21 C948.18 211.49, 956.71 217.39, 962.21 220.02" stroke="#f08c00" stroke-width="1" fill="none"></path></g></g><mask></mask><g stroke-linecap="round"><g transform="translate(221.69811030760684 115.07376336297057) rotate(0 482.1754834443982 222.51857380268848)"><path d="M0.58 0.87 C160.86 75.16, 803.1 372.51, 963.76 446.47 M-2.54 -1.13 C157.11 72.27, 800.3 367.46, 961.2 442.24" stroke="#f08c00" stroke-width="1" fill="none"></path></g><g transform="translate(221.69811030760684 115.07376336297057) rotate(0 482.1754834443982 222.51857380268848)"><path d="M7.35 -13.06 C5.32 -7.51, 1.98 -3.7, 0.02 1.9 M7.36 -13.35 C4.05 -7.62, 2.73 -3.04, 0.5 0.92" stroke="#f08c00" stroke-width="1" fill="none"></path></g><g transform="translate(221.69811030760684 115.07376336297057) rotate(0 482.1754834443982 222.51857380268848)"><path d="M-5.25 14.16 C-2.61 9.46, -1.22 3.03, 0.02 1.9 M-5.25 13.88 C-3.88 9.96, -0.74 4.89, 0.5 0.92" stroke="#f08c00" stroke-width="1" fill="none"></path></g><g transform="translate(221.69811030760684 115.07376336297057) rotate(0 482.1754834443982 222.51857380268848)"><path d="M936.91 439.74 C946.68 441.04, 954.75 440.07, 960.45 443.62 M936.91 439.36 C944.43 441.31, 954.47 441.71, 961.09 442.31" stroke="#f08c00" stroke-width="1" fill="none"></path></g><g transform="translate(221.69811030760684 115.07376336297057) rotate(0 482.1754834443982 222.51857380268848)"><path d="M944.07 424.21 C951.19 431.36, 956.56 436.23, 960.45 443.62 M944.08 423.83 C948.94 431.28, 956.45 437.19, 961.09 442.31" stroke="#f08c00" stroke-width="1" fill="none"></path></g></g><mask></mask><g stroke-linecap="round"><g transform="translate(220.33091537746213 229.04521614266378) rotate(0 188.0829338290962 -3.253331294225063)"><path d="M-0.4 2.69 C62.57 1.4, 314 -4.11, 376.47 -5.95 M-4.06 1.68 C58.68 -0.67, 310.34 -9.35, 374.4 -10.65" stroke="#f08c00" stroke-width="1" fill="none"></path></g><g transform="translate(220.33091537746213 229.04521614266378) rotate(0 188.0829338290962 -3.253331294225063)"><path d="M0.71 -12.14 C-0.25 -9.48, -1.43 -5.16, -1.47 2.83 M-1.11 -11.82 C-0.06 -7.69, -0.44 -3.47, -0.55 2.11" stroke="#f08c00" stroke-width="1" fill="none"></path></g><g transform="translate(220.33091537746213 229.04521614266378) rotate(0 188.0829338290962 -3.253331294225063)"><path d="M1.37 17.85 C0.05 12.95, -1.29 9.7, -1.47 2.83 M-0.44 18.17 C0.41 13.73, -0.16 9.39, -0.55 2.11" stroke="#f08c00" stroke-width="1" fill="none"></path></g><g transform="translate(220.33091537746213 229.04521614266378) rotate(0 188.0829338290962 -3.253331294225063)"><path d="M353.08 -1.22 C357.36 -5, 361.54 -6.61, 372.97 -10.47 M350.65 -0.79 C358.55 -3.43, 364.56 -6.14, 374.2 -11.43" stroke="#f08c00" stroke-width="1" fill="none"></path></g><g transform="translate(220.33091537746213 229.04521614266378) rotate(0 188.0829338290962 -3.253331294225063)"><path d="M352.59 -18.31 C357.1 -17.78, 361.41 -15.08, 372.97 -10.47 M350.17 -17.88 C358.21 -15.64, 364.35 -13.47, 374.2 -11.43" stroke="#f08c00" stroke-width="1" fill="none"></path></g></g><mask></mask><g stroke-linecap="round"><g transform="translate(214.47172673704836 218.45575604748046) rotate(0 188.9427957282412 57.53491076827777)"><path d="M2.09 -2.78 C65.25 16.67, 314.06 96.79, 376.6 116.88 M-0.22 1.88 C62.67 20.53, 311.09 94.22, 373.66 112.85" stroke="#f08c00" stroke-width="1" fill="none"></path></g><g transform="translate(214.47172673704836 218.45575604748046) rotate(0 188.9427957282412 57.53491076827777)"><path d="M5.15 -17.76 C6.64 -14.27, 6.14 -9.42, 2.96 -3.4 M7.22 -16.83 C5.13 -12.72, 4.12 -8.8, 2.7 -2.44" stroke="#f08c00" stroke-width="1" fill="none"></path></g><g transform="translate(214.47172673704836 218.45575604748046) rotate(0 188.9427957282412 57.53491076827777)"><path d="M-3.96 10.82 C-0.53 8.11, 0.92 6.83, 2.96 -3.4 M-1.9 11.75 C-1.51 7.28, 0.19 2.69, 2.7 -2.44" stroke="#f08c00" stroke-width="1" fill="none"></path></g><g transform="translate(214.47172673704836 218.45575604748046) rotate(0 188.9427957282412 57.53491076827777)"><path d="M346.72 113.44 C355.35 113.45, 361.33 115.51, 374.82 112.02 M349.47 114.68 C355.76 113.82, 363.65 112.93, 374.49 113.31" stroke="#f08c00" stroke-width="1" fill="none"></path></g><g transform="translate(214.47172673704836 218.45575604748046) rotate(0 188.9427957282412 57.53491076827777)"><path d="M351.59 97.05 C359.19 100.61, 364.12 106.19, 374.82 112.02 M354.34 98.28 C359.32 102.35, 365.76 106.34, 374.49 113.31" stroke="#f08c00" stroke-width="1" fill="none"></path></g></g><mask></mask><g stroke-linecap="round"><g transform="translate(215.68419387541098 221.69236207694848) rotate(0 182.71595674743457 167.73019589514024)"><path d="M2.41 2.64 C63.25 58.69, 305.36 278.52, 365.82 334.38 M0.27 1.61 C60.71 58.21, 303.3 282.1, 363.8 337.42" stroke="#f08c00" stroke-width="1" fill="none"></path></g><g transform="translate(215.68419387541098 221.69236207694848) rotate(0 182.71595674743457 167.73019589514024)"><path d="M13.93 -8.23 C8.56 -4.87, 7.09 -1.04, 2.25 3.11 M12.9 -8.04 C10.22 -5.46, 7.68 -4.09, 3.12 2.51" stroke="#f08c00" stroke-width="1" fill="none"></path></g><g transform="translate(215.68419387541098 221.69236207694848) rotate(0 182.71595674743457 167.73019589514024)"><path d="M-6.28 13.93 C-4.9 9.88, 0.23 6.47, 2.25 3.11 M-7.32 14.12 C-5.9 12.05, -4.32 8.89, 3.12 2.51" stroke="#f08c00" stroke-width="1" fill="none"></path></g><g transform="translate(215.68419387541098 221.69236207694848) rotate(0 182.71595674743457 167.73019589514024)"><path d="M342.6 328.09 C347.42 330.57, 357.4 333.99, 363.58 338.04 M341.22 328.34 C345.1 330.49, 349.18 331.26, 364.74 337.24" stroke="#f08c00" stroke-width="1" fill="none"></path></g><g transform="translate(215.68419387541098 221.69236207694848) rotate(0 182.71595674743457 167.73019589514024)"><path d="M354.18 315.5 C355.12 322.2, 361.33 329.73, 363.58 338.04 M352.8 315.75 C354.34 320.55, 356.05 323.88, 364.74 337.24" stroke="#f08c00" stroke-width="1" fill="none"></path></g></g><mask></mask><g stroke-linecap="round"><g transform="translate(218.10821169927385 223.85274696042143) rotate(0 484.22131171993806 -60.22599823076871)"><path d="M1.43 0.75 C163.3 -18.78, 807.48 -99.56, 968.6 -119.56 M-1.23 -1.31 C160.5 -21.5, 805.21 -103.62, 966.44 -124.08" stroke="#f08c00" stroke-width="1" fill="none"></path></g><g transform="translate(218.10821169927385 223.85274696042143) rotate(0 484.22131171993806 -60.22599823076871)"><path d="M-0.02 -14.05 C0.32 -11.21, 0.88 -7.55, 0.72 -0.27 M-0.23 -14.64 C0.25 -10.1, 0.79 -7.26, 0.91 1.13" stroke="#f08c00" stroke-width="1" fill="none"></path></g><g transform="translate(218.10821169927385 223.85274696042143) rotate(0 484.22131171993806 -60.22599823076871)"><path d="M3.68 15.72 C3.51 12.38, 3.29 9.86, 0.72 -0.27 M3.47 15.13 C2.78 12.34, 2.4 7.85, 0.91 1.13" stroke="#f08c00" stroke-width="1" fill="none"></path></g><g transform="translate(218.10821169927385 223.85274696042143) rotate(0 484.22131171993806 -60.22599823076871)"><path d="M944.75 -112.53 C949.58 -115.35, 954.43 -116.97, 965.49 -125.43 M944.47 -113.31 C949.7 -115.02, 955.29 -118.95, 965.74 -123.57" stroke="#f08c00" stroke-width="1" fill="none"></path></g><g transform="translate(218.10821169927385 223.85274696042143) rotate(0 484.22131171993806 -60.22599823076871)"><path d="M942.59 -129.49 C947.72 -128.79, 953.03 -126.89, 965.49 -125.43 M942.31 -130.28 C948.22 -127.81, 954.34 -127.55, 965.74 -123.57" stroke="#f08c00" stroke-width="1" fill="none"></path></g></g><mask></mask><g stroke-linecap="round"><g transform="translate(212.61972824213126 227.88193197463988) rotate(0 491.1824585575955 -3.1287700758666688)"><path d="M-0.69 0.74 C163.09 -0.58, 817.98 -6.49, 981.47 -7.82 M4.14 -1.32 C167.56 -2.32, 815.11 -4.49, 978.74 -5.05" stroke="#f08c00" stroke-width="1" fill="none"></path></g><g transform="translate(212.61972824213126 227.88193197463988) rotate(0 491.1824585575955 -3.1287700758666688)"><path d="M-0.42 -14.74 C-1.62 -11.51, -1.27 -7.1, 0.16 2.22 M-0.92 -13.54 C-1.1 -8.32, -0.74 -2.79, -0.79 0.36" stroke="#f08c00" stroke-width="1" fill="none"></path></g><g transform="translate(212.61972824213126 227.88193197463988) rotate(0 491.1824585575955 -3.1287700758666688)"><path d="M-0.16 15.26 C-1.43 10.75, -1.15 7.42, 0.16 2.22 M-0.65 16.45 C-1.08 10.81, -0.81 5.48, -0.79 0.36" stroke="#f08c00" stroke-width="1" fill="none"></path></g><g transform="translate(212.61972824213126 227.88193197463988) rotate(0 491.1824585575955 -3.1287700758666688)"><path d="M955.81 2.94 C960.21 -0.09, 966.68 -1.59, 979.87 -3.07 M955.15 4.53 C963.2 1.07, 972.12 -1.92, 978.61 -5.56" stroke="#f08c00" stroke-width="1" fill="none"></path></g><g transform="translate(212.61972824213126 227.88193197463988) rotate(0 491.1824585575955 -3.1287700758666688)"><path d="M955.75 -14.16 C960.18 -12.78, 966.66 -9.87, 979.87 -3.07 M955.09 -12.57 C963.24 -9.84, 972.18 -6.63, 978.61 -5.56" stroke="#f08c00" stroke-width="1" fill="none"></path></g></g><mask></mask><g stroke-linecap="round"><g transform="translate(213.00708231908857 228.00275101047373) rotate(0 484.95493223714107 54.69726721870575)"><path d="M-2.46 -2.42 C158.89 15.58, 808.24 91.78, 970.46 110.78 M1.4 2.44 C162.21 20.79, 807.16 89.05, 968.52 106.51" stroke="#f08c00" stroke-width="1" fill="none"></path></g><g transform="translate(213.00708231908857 228.00275101047373) rotate(0 484.95493223714107 54.69726721870575)"><path d="M-2.03 -17.03 C-0.51 -11.09, -0.75 -7.25, -3.56 -3.91 M-1.46 -17.53 C-1.35 -13.31, -2.31 -7.54, -2.15 -2.1" stroke="#f08c00" stroke-width="1" fill="none"></path></g><g transform="translate(213.00708231908857 228.00275101047373) rotate(0 484.95493223714107 54.69726721870575)"><path d="M-5.49 12.77 C-2.93 7.28, -1.85 -0.34, -3.56 -3.91 M-4.92 12.27 C-3.64 7.44, -3.55 4.14, -2.15 -2.1" stroke="#f08c00" stroke-width="1" fill="none"></path></g><g transform="translate(213.00708231908857 228.00275101047373) rotate(0 484.95493223714107 54.69726721870575)"><path d="M942.52 112.91 C954.51 111.1, 964.41 106.28, 967.06 104.53 M943.28 112.23 C951.62 110.21, 958.43 110.03, 968.94 106.94" stroke="#f08c00" stroke-width="1" fill="none"></path></g><g transform="translate(213.00708231908857 228.00275101047373) rotate(0 484.95493223714107 54.69726721870575)"><path d="M944.34 95.91 C955.8 100.62, 965 102.34, 967.06 104.53 M945.1 95.23 C952.81 98.37, 959.07 103.37, 968.94 106.94" stroke="#f08c00" stroke-width="1" fill="none"></path></g></g><mask></mask><g stroke-linecap="round"><g transform="translate(217.379173446388 225.37436419805817) rotate(0 481.01273387387823 165.51459472664465)"><path d="M1.95 2.3 C161.93 58.13, 800.84 278.59, 960.53 333.54 M-0.43 1.07 C160.42 56.31, 805.07 275.57, 966.12 329.89" stroke="#f08c00" stroke-width="1" fill="none"></path></g><g transform="translate(217.379173446388 225.37436419805817) rotate(0 481.01273387387823 165.51459472664465)"><path d="M8.09 -12.68 C6.54 -8.3, 4.13 -2.11, 0.87 2.28 M6.19 -11.18 C4.91 -7.19, 3.64 -2.07, 1.42 2.03" stroke="#f08c00" stroke-width="1" fill="none"></path></g><g transform="translate(217.379173446388 225.37436419805817) rotate(0 481.01273387387823 165.51459472664465)"><path d="M-1.72 15.67 C0.06 10.81, 0.82 7.81, 0.87 2.28 M-3.62 17.17 C-1.65 11.33, 0.46 6.66, 1.42 2.03" stroke="#f08c00" stroke-width="1" fill="none"></path></g><g transform="translate(217.379173446388 225.37436419805817) rotate(0 481.01273387387823 165.51459472664465)"><path d="M942.76 329.38 C951.01 328.71, 958.01 330.65, 964.68 329.87 M940.24 331.38 C949.32 329.84, 958.51 329.95, 965.41 329.54" stroke="#f08c00" stroke-width="1" fill="none"></path></g><g transform="translate(217.379173446388 225.37436419805817) rotate(0 481.01273387387823 165.51459472664465)"><path d="M948.25 313.18 C954.64 317.79, 959.86 324.98, 964.68 329.87 M945.73 315.19 C953 319.26, 960.3 324.96, 965.41 329.54" stroke="#f08c00" stroke-width="1" fill="none"></path></g></g><mask></mask><g stroke-linecap="round"><g transform="translate(220.73720948026448 345.1714023465065) rotate(0 183.37587918020063 -59.827799461592804)"><path d="M2.27 -2.11 C63.48 -21.81, 307.47 -98.55, 367.91 -118.45 M0.06 2.91 C60.93 -17.61, 304.52 -102.42, 366.3 -122.81" stroke="#f08c00" stroke-width="1" fill="none"></path></g><g transform="translate(220.73720948026448 345.1714023465065) rotate(0 183.37587918020063 -59.827799461592804)"><path d="M-3.4 -15.79 C-0.16 -12.79, -0.33 -6.25, 1.94 -3.42 M-2.16 -16.63 C-0.6 -12.47, 0.56 -10.44, 2.85 -2.09" stroke="#f08c00" stroke-width="1" fill="none"></path></g><g transform="translate(220.73720948026448 345.1714023465065) rotate(0 183.37587918020063 -59.827799461592804)"><path d="M5.68 12.81 C5.99 6.6, 2.88 3.86, 1.94 -3.42 M6.91 11.96 C6.11 9.38, 5.16 4.75, 2.85 -2.09" stroke="#f08c00" stroke-width="1" fill="none"></path></g><g transform="translate(220.73720948026448 345.1714023465065) rotate(0 183.37587918020063 -59.827799461592804)"><path d="M345.3 -106.32 C354.01 -113.7, 358.15 -116.24, 365.86 -124.55 M346.96 -107.44 C351.86 -109.87, 356.54 -115.25, 367.07 -122.78" stroke="#f08c00" stroke-width="1" fill="none"></path></g><g transform="translate(220.73720948026448 345.1714023465065) rotate(0 183.37587918020063 -59.827799461592804)"><path d="M339.8 -122.51 C350.28 -124.68, 356.2 -121.97, 365.86 -124.55 M341.45 -123.63 C347.78 -122.24, 353.74 -123.85, 367.07 -122.78" stroke="#f08c00" stroke-width="1" fill="none"></path></g></g><mask></mask><g stroke-linecap="round"><g transform="translate(215.98815074179356 344.50987612123026) rotate(0 187.81555870618058 -1.0551427301352305)"><path d="M0.3 -1.1 C62.77 -2.28, 311.33 -4.65, 373.86 -4.36 M-2.98 -4.16 C60.48 -3.87, 316.55 -2.07, 379.29 -1.95" stroke="#f08c00" stroke-width="1" fill="none"></path></g><g transform="translate(215.98815074179356 344.50987612123026) rotate(0 187.81555870618058 -1.0551427301352305)"><path d="M-0.44 -17.05 C-0.87 -12.2, 1.85 -6.79, 0.72 -2.54 M0.48 -16.52 C0.94 -10.65, -0.03 -5.88, 0.21 -0.63" stroke="#f08c00" stroke-width="1" fill="none"></path></g><g transform="translate(215.98815074179356 344.50987612123026) rotate(0 187.81555870618058 -1.0551427301352305)"><path d="M-0.13 12.95 C-0.93 9.79, 1.71 7.2, 0.72 -2.54 M0.79 13.48 C1.08 9.51, 0 4.44, 0.21 -0.63" stroke="#f08c00" stroke-width="1" fill="none"></path></g><g transform="translate(215.98815074179356 344.50987612123026) rotate(0 187.81555870618058 -1.0551427301352305)"><path d="M354.98 5.22 C360.35 4.07, 370.21 3.7, 379.86 -3.88 M356.2 5.93 C364.41 4.46, 370.76 1.49, 379.17 -1.33" stroke="#f08c00" stroke-width="1" fill="none"></path></g><g transform="translate(215.98815074179356 344.50987612123026) rotate(0 187.81555870618058 -1.0551427301352305)"><path d="M355.06 -11.88 C360.58 -8.47, 370.41 -4.28, 379.86 -3.88 M356.29 -11.17 C364.5 -7.04, 370.83 -4.4, 379.17 -1.33" stroke="#f08c00" stroke-width="1" fill="none"></path></g></g><mask></mask><g stroke-linecap="round"><g transform="translate(214.38435823073132 341.87492139662754) rotate(0 183.9899025987213 110.79342336241643)"><path d="M-0.62 1.96 C60.89 38.6, 307.18 182.74, 368.26 219.74 M4.24 0.55 C65.48 37.53, 304.96 185.84, 366.18 222.36" stroke="#f08c00" stroke-width="1" fill="none"></path></g><g transform="translate(214.38435823073132 341.87492139662754) rotate(0 183.9899025987213 110.79342336241643)"><path d="M8.05 -10.81 C3.93 -8.59, 4.12 -4.31, 0.71 0.93 M6.35 -11.45 C4.38 -7.96, 3.2 -3.9, -0.88 1.84" stroke="#f08c00" stroke-width="1" fill="none"></path></g><g transform="translate(214.38435823073132 341.87492139662754) rotate(0 183.9899025987213 110.79342336241643)"><path d="M-7.18 15.03 C-7.14 10.26, -2.81 7.51, 0.71 0.93 M-8.88 14.4 C-6.81 11.14, -3.99 8.39, -0.88 1.84" stroke="#f08c00" stroke-width="1" fill="none"></path></g><g transform="translate(214.38435823073132 341.87492139662754) rotate(0 183.9899025987213 110.79342336241643)"><path d="M343.07 217.65 C347.01 217.34, 356.69 219.7, 367.95 220.99 M340.8 216.8 C347.33 218.35, 354.88 220.52, 365.83 222.21" stroke="#f08c00" stroke-width="1" fill="none"></path></g><g transform="translate(214.38435823073132 341.87492139662754) rotate(0 183.9899025987213 110.79342336241643)"><path d="M351.96 203.04 C353.48 206.69, 360.74 213.02, 367.95 220.99 M349.7 202.19 C353.87 207.56, 359.08 213.57, 365.83 222.21" stroke="#f08c00" stroke-width="1" fill="none"></path></g></g><mask></mask><g stroke-linecap="round"><g transform="translate(219.41919752045942 340.98168533903663) rotate(0 481.3108865387917 -120.21700267313008)"><path d="M0.45 -2.36 C160.56 -42.53, 800.69 -199.36, 961.4 -239.21 M-2.75 2.54 C156.81 -38.65, 797.37 -203.32, 958.5 -243.56" stroke="#f08c00" stroke-width="1" fill="none"></path></g><g transform="translate(219.41919752045942 340.98168533903663) rotate(0 481.3108865387917 -120.21700267313008)"><path d="M-4.4 -17.58 C-1.21 -11.05, -1.24 -8.38, -0.5 -2.04 M-2.44 -16.41 C-1.31 -11.67, -0.2 -6.15, 0.28 -1.99" stroke="#f08c00" stroke-width="1" fill="none"></path></g><g transform="translate(219.41919752045942 340.98168533903663) rotate(0 481.3108865387917 -120.21700267313008)"><path d="M2.78 11.55 C3.43 8.56, 1.05 1.7, -0.5 -2.04 M4.74 12.72 C3.32 6.11, 1.64 0.33, 0.28 -1.99" stroke="#f08c00" stroke-width="1" fill="none"></path></g><g transform="translate(219.41919752045942 340.98168533903663) rotate(0 481.3108865387917 -120.21700267313008)"><path d="M936.15 -230.36 C945.37 -232.64, 950.53 -240.03, 957.22 -243.14 M938.76 -228.8 C946.7 -235.36, 954.34 -240.99, 958.27 -243.07" stroke="#f08c00" stroke-width="1" fill="none"></path></g><g transform="translate(219.41919752045942 340.98168533903663) rotate(0 481.3108865387917 -120.21700267313008)"><path d="M931.94 -246.94 C942.65 -243.8, 949.18 -245.78, 957.22 -243.14 M934.55 -245.38 C943.99 -245.48, 953.26 -244.68, 958.27 -243.07" stroke="#f08c00" stroke-width="1" fill="none"></path></g></g><mask></mask><g stroke-linecap="round"><g transform="translate(216.89391165518418 353.07519732531) rotate(0 482.28721432266866 -64.40830724425905)"><path d="M-2.37 -2.2 C157.84 -23.53, 801.78 -108.91, 962.97 -130.02 M1.53 2.77 C162.51 -17.99, 808.25 -105.62, 968.51 -127.04" stroke="#f08c00" stroke-width="1" fill="none"></path></g><g transform="translate(216.89391165518418 353.07519732531) rotate(0 482.28721432266866 -64.40830724425905)"><path d="M-5.53 -17.93 C-4.39 -11.58, -3.06 -7.3, -3.41 -0.77 M-4.26 -16.62 C-3.16 -11.29, -2.16 -5.23, -2.96 -2.81" stroke="#f08c00" stroke-width="1" fill="none"></path></g><g transform="translate(216.89391165518418 353.07519732531) rotate(0 482.28721432266866 -64.40830724425905)"><path d="M-1.58 11.81 C-1.65 7.39, -1.74 0.93, -3.41 -0.77 M-0.32 13.12 C-0.69 7.04, -1.2 1.72, -2.96 -2.81" stroke="#f08c00" stroke-width="1" fill="none"></path></g><g transform="translate(216.89391165518418 353.07519732531) rotate(0 482.28721432266866 -64.40830724425905)"><path d="M944.79 -116.57 C953.59 -119.29, 962.4 -124.93, 967.13 -125.13 M946.48 -114.82 C955.45 -119.64, 964.26 -123.58, 967.73 -127.85" stroke="#f08c00" stroke-width="1" fill="none"></path></g><g transform="translate(216.89391165518418 353.07519732531) rotate(0 482.28721432266866 -64.40830724425905)"><path d="M942.51 -133.52 C952 -130.1, 961.64 -129.63, 967.13 -125.13 M944.2 -131.77 C954.02 -130.08, 963.7 -127.54, 967.73 -127.85" stroke="#f08c00" stroke-width="1" fill="none"></path></g></g><mask></mask><g stroke-linecap="round"><g transform="translate(217.05276348485086 348.53402064470174) rotate(0 482.641346983326 -4.874612780766256)"><path d="M1.17 2.14 C162.11 0.1, 806.17 -7.68, 966.67 -9.66 M-1.63 0.83 C158.96 0.49, 804.61 -4.74, 965.19 -5.99" stroke="#f08c00" stroke-width="1" fill="none"></path></g><g transform="translate(217.05276348485086 348.53402064470174) rotate(0 482.641346983326 -4.874612780766256)"><path d="M2.14 -12.12 C1.23 -8.38, 1.23 -2.11, -0.14 3.6 M0.85 -13.11 C0.98 -7.66, 1.6 -2.66, 1.56 2.4" stroke="#f08c00" stroke-width="1" fill="none"></path></g><g transform="translate(217.05276348485086 348.53402064470174) rotate(0 482.641346983326 -4.874612780766256)"><path d="M2.5 17.88 C1.21 11.49, 1.08 7.62, -0.14 3.6 M1.22 16.89 C1.03 12.33, 1.52 7.32, 1.56 2.4" stroke="#f08c00" stroke-width="1" fill="none"></path></g><g transform="translate(217.05276348485086 348.53402064470174) rotate(0 482.641346983326 -4.874612780766256)"><path d="M943.29 3.74 C949.66 -1.07, 957.49 -2.43, 963.44 -4.03 M941.57 2.42 C949.3 0.08, 957.85 -2.85, 965.7 -5.64" stroke="#f08c00" stroke-width="1" fill="none"></path></g><g transform="translate(217.05276348485086 348.53402064470174) rotate(0 482.641346983326 -4.874612780766256)"><path d="M943.15 -13.36 C949.72 -12.4, 957.6 -7.97, 963.44 -4.03 M941.44 -14.68 C949.32 -11.32, 957.92 -8.54, 965.7 -5.64" stroke="#f08c00" stroke-width="1" fill="none"></path></g></g><mask></mask><g stroke-linecap="round"><g transform="translate(215.88138398320007 344.2784717732047) rotate(0 487.1809198714234 109.57874146296763)"><path d="M-1.76 -1.01 C161.03 35.15, 812.51 180.39, 975.21 216.94 M2.47 -4.02 C165.11 32.42, 811.73 181.87, 973.43 219.36" stroke="#f08c00" stroke-width="1" fill="none"></path></g><g transform="translate(215.88138398320007 344.2784717732047) rotate(0 487.1809198714234 109.57874146296763)"><path d="M0.96 -15.19 C-0.49 -12.03, -0.56 -7.02, -1.31 -0.97 M2.16 -16.3 C1.39 -11.6, -0.75 -7.73, -1.73 -0.64" stroke="#f08c00" stroke-width="1" fill="none"></path></g><g transform="translate(215.88138398320007 344.2784717732047) rotate(0 487.1809198714234 109.57874146296763)"><path d="M-5.57 14.09 C-5.42 10.12, -3.89 7.97, -1.31 -0.97 M-4.36 12.98 C-3.48 9.85, -3.89 5.95, -1.73 -0.64" stroke="#f08c00" stroke-width="1" fill="none"></path></g><g transform="translate(215.88138398320007 344.2784717732047) rotate(0 487.1809198714234 109.57874146296763)"><path d="M947.9 223.01 C953.11 221.88, 960.15 223.05, 974.04 219.41 M949.5 221.53 C956.16 221.54, 961.04 220.71, 973.48 219.85" stroke="#f08c00" stroke-width="1" fill="none"></path></g><g transform="translate(215.88138398320007 344.2784717732047) rotate(0 487.1809198714234 109.57874146296763)"><path d="M951.75 206.34 C956.02 209.28, 962.12 214.52, 974.04 219.41 M953.36 204.87 C959.03 209.33, 962.89 212.92, 973.48 219.85" stroke="#f08c00" stroke-width="1" fill="none"></path></g></g><mask></mask><g stroke-linecap="round"><g transform="translate(221.22476240362766 556.9923746161239) rotate(0 182.64149495227775 -168.38767445360463)"><path d="M1.52 2.07 C61.78 -54.59, 303.57 -282.07, 363.92 -338.1 M-1.1 0.72 C59.9 -55.74, 307.8 -278.71, 369.59 -335.2" stroke="#f08c00" stroke-width="1" fill="none"></path></g><g transform="translate(221.22476240362766 556.9923746161239) rotate(0 182.64149495227775 -168.38767445360463)"><path d="M-7.64 -9.59 C-5.45 -5.6, 0.63 0.6, 2.67 2.15 M-8.82 -9.24 C-5.14 -5.03, -1.3 -0.84, 1.45 2.25" stroke="#f08c00" stroke-width="1" fill="none"></path></g><g transform="translate(221.22476240362766 556.9923746161239) rotate(0 182.64149495227775 -168.38767445360463)"><path d="M12.9 12.27 C7.07 7.98, 5.26 5.79, 2.67 2.15 M11.73 12.62 C8.69 9.58, 5.61 6.4, 1.45 2.25" stroke="#f08c00" stroke-width="1" fill="none"></path></g><g transform="translate(221.22476240362766 556.9923746161239) rotate(0 182.64149495227775 -168.38767445360463)"><path d="M359.4 -314.06 C361.31 -322.8, 368.63 -328.61, 371.12 -335.09 M357.83 -313.58 C362.4 -320.32, 366.84 -327.1, 369.49 -334.95" stroke="#f08c00" stroke-width="1" fill="none"></path></g><g transform="translate(221.22476240362766 556.9923746161239) rotate(0 182.64149495227775 -168.38767445360463)"><path d="M347.91 -326.73 C354.31 -330.67, 366.05 -331.62, 371.12 -335.09 M346.35 -326.25 C354.67 -328.79, 362.97 -331.3, 369.49 -334.95" stroke="#f08c00" stroke-width="1" fill="none"></path></g></g><mask></mask><g stroke-linecap="round"><g transform="translate(221.83893856429268 564.8876160348664) rotate(0 182.42055344111077 -110.68604563524786)"><path d="M-0.07 -1.13 C61.05 -38.55, 303.18 -187.77, 364.44 -224.03 M-3.55 -4.21 C57.37 -41.44, 300.2 -185.41, 361.99 -221.84" stroke="#f08c00" stroke-width="1" fill="none"></path></g><g transform="translate(221.83893856429268 564.8876160348664) rotate(0 182.42055344111077 -110.68604563524786)"><path d="M-8.52 -14.13 C-7.61 -9.69, -3.05 -9.29, 0.53 -0.63 M-8.08 -14.23 C-7.01 -11.69, -5.29 -8.42, -0.71 -1.35" stroke="#f08c00" stroke-width="1" fill="none"></path></g><g transform="translate(221.83893856429268 564.8876160348664) rotate(0 182.42055344111077 -110.68604563524786)"><path d="M7.17 11.44 C4.62 10.31, 5.76 5.14, 0.53 -0.63 M7.61 11.34 C5.65 8.83, 4.21 6.95, -0.71 -1.35" stroke="#f08c00" stroke-width="1" fill="none"></path></g><g transform="translate(221.83893856429268 564.8876160348664) rotate(0 182.42055344111077 -110.68604563524786)"><path d="M345.32 -202.8 C347.65 -204.81, 354.91 -212.19, 362.8 -221.17 M345.91 -202.94 C348.62 -206.94, 352.01 -209.91, 361.14 -222.14" stroke="#f08c00" stroke-width="1" fill="none"></path></g><g transform="translate(221.83893856429268 564.8876160348664) rotate(0 182.42055344111077 -110.68604563524786)"><path d="M336.61 -217.52 C340.87 -216.32, 350.02 -220.5, 362.8 -221.17 M337.2 -217.65 C341.59 -218.75, 346.73 -218.75, 361.14 -222.14" stroke="#f08c00" stroke-width="1" fill="none"></path></g></g><mask></mask><g stroke-linecap="round"><g transform="translate(220.66129663474112 563.9442805540748) rotate(0 184.05481800988332 -0.39949707739833684)"><path d="M2.41 1.95 C63.55 2.31, 307.53 0.45, 368.35 0.32 M0.27 0.54 C60.92 0.2, 305.44 -3.45, 366.24 -4.09" stroke="#f08c00" stroke-width="1" fill="none"></path></g><g transform="translate(220.66129663474112 563.9442805540748) rotate(0 184.05481800988332 -0.39949707739833684)"><path d="M3.39 -12.92 C2.87 -8.16, 3.35 -2.7, 2.3 2.27 M1.9 -13.58 C1.9 -8.08, 2.87 -3.39, 2.18 1.46" stroke="#f08c00" stroke-width="1" fill="none"></path></g><g transform="translate(220.66129663474112 563.9442805540748) rotate(0 184.05481800988332 -0.39949707739833684)"><path d="M3.52 17.08 C3.15 11.19, 3.58 6, 2.3 2.27 M2.02 16.42 C2.06 12.15, 2.98 7.08, 2.18 1.46" stroke="#f08c00" stroke-width="1" fill="none"></path></g><g transform="translate(220.66129663474112 563.9442805540748) rotate(0 184.05481800988332 -0.39949707739833684)"><path d="M344.25 4.93 C352.01 0.83, 360.92 -2.12, 366.09 -3.66 M342.26 4.06 C349.92 2.09, 358.78 -1.04, 365.93 -4.75" stroke="#f08c00" stroke-width="1" fill="none"></path></g><g transform="translate(220.66129663474112 563.9442805540748) rotate(0 184.05481800988332 -0.39949707739833684)"><path d="M344.03 -12.17 C351.76 -10.2, 360.75 -7.08, 366.09 -3.66 M342.03 -13.04 C349.73 -9.44, 358.67 -7.01, 365.93 -4.75" stroke="#f08c00" stroke-width="1" fill="none"></path></g></g><mask></mask><g stroke-linecap="round"><g transform="translate(219.4017849160532 559.6331335421946) rotate(0 484.8955919142318 -230.00018949572222)"><path d="M0.82 1.87 C162.14 -74.05, 806.07 -381.48, 967.16 -458.2 M-2.19 0.42 C160.03 -76.06, 809.62 -384.97, 972.13 -462.24" stroke="#f08c00" stroke-width="1" fill="none"></path></g><g transform="translate(219.4017849160532 559.6331335421946) rotate(0 484.8955919142318 -230.00018949572222)"><path d="M-4.63 -13.09 C-3.04 -9.31, -1.43 -3.61, 0.65 1.48 M-6.28 -11.42 C-3.82 -8.73, -3.02 -5.97, 0.45 2.46" stroke="#f08c00" stroke-width="1" fill="none"></path></g><g transform="translate(219.4017849160532 559.6331335421946) rotate(0 484.8955919142318 -230.00018949572222)"><path d="M8.26 14 C6.59 10.42, 4.68 8.74, 0.65 1.48 M6.61 15.67 C5.98 11.92, 3.71 8.26, 0.45 2.46" stroke="#f08c00" stroke-width="1" fill="none"></path></g><g transform="translate(219.4017849160532 559.6331335421946) rotate(0 484.8955919142318 -230.00018949572222)"><path d="M955.92 -446.31 C960.82 -451.09, 965.4 -453.27, 971.91 -462.76 M953.71 -444.08 C959.08 -449.02, 962.27 -453.85, 971.64 -461.44" stroke="#f08c00" stroke-width="1" fill="none"></path></g><g transform="translate(219.4017849160532 559.6331335421946) rotate(0 484.8955919142318 -230.00018949572222)"><path d="M948.57 -461.75 C955.34 -462.34, 961.92 -460.31, 971.91 -462.76 M946.37 -459.52 C953.5 -460.8, 958.43 -461.96, 971.64 -461.44" stroke="#f08c00" stroke-width="1" fill="none"></path></g></g><mask></mask><g stroke-linecap="round"><g transform="translate(215.07918224338073 567.2584795926487) rotate(0 490.3671209934005 -173.10374088899061)"><path d="M-0.16 -2.16 C163.34 -60.51, 816.5 -290.43, 980.33 -347.79 M-3.7 2.84 C159.46 -55.38, 813.57 -287.33, 977.87 -345.03" stroke="#f08c00" stroke-width="1" fill="none"></path></g><g transform="translate(215.07918224338073 567.2584795926487) rotate(0 490.3671209934005 -173.10374088899061)"><path d="M-6.31 -16.52 C-4.51 -11.3, -2.36 -8.48, 1.25 -3.45 M-5.48 -16.19 C-3.97 -13.44, -2.44 -9.45, -0.54 -2.6" stroke="#f08c00" stroke-width="1" fill="none"></path></g><g transform="translate(215.07918224338073 567.2584795926487) rotate(0 490.3671209934005 -173.10374088899061)"><path d="M3.67 11.77 C2.49 9.19, 1.89 4.22, 1.25 -3.45 M4.5 12.1 C3.77 8.04, 2.89 5.18, -0.54 -2.6" stroke="#f08c00" stroke-width="1" fill="none"></path></g><g transform="translate(215.07918224338073 567.2584795926487) rotate(0 490.3671209934005 -173.10374088899061)"><path d="M957.03 -329.43 C962.62 -332.03, 968.97 -337.84, 979.76 -346.75 M958.13 -328.99 C963.43 -333.79, 968.53 -336.88, 977.37 -345.61" stroke="#f08c00" stroke-width="1" fill="none"></path></g><g transform="translate(215.07918224338073 567.2584795926487) rotate(0 490.3671209934005 -173.10374088899061)"><path d="M951.33 -345.55 C958.63 -343.71, 966.55 -345.08, 979.76 -346.75 M952.44 -345.12 C959.01 -346.03, 965.49 -345.22, 977.37 -345.61" stroke="#f08c00" stroke-width="1" fill="none"></path></g></g><mask></mask><g stroke-linecap="round"><g transform="translate(223.93547723161055 567.609939265787) rotate(0 478.44498569259554 -117.27938939036812)"><path d="M0.67 -2.25 C159.99 -40.93, 795.22 -193.08, 954.65 -231.98 M-2.41 2.7 C157.89 -36.71, 800.17 -196.29, 959.84 -235.59" stroke="#f08c00" stroke-width="1" fill="none"></path></g><g transform="translate(223.93547723161055 567.609939265787) rotate(0 478.44498569259554 -117.27938939036812)"><path d="M-4.04 -18.03 C-0.56 -12.95, -1.63 -8.61, 1.41 -3.73 M-2.37 -16.16 C-1.42 -12.86, -1.8 -9.5, 0.09 -1.98" stroke="#f08c00" stroke-width="1" fill="none"></path></g><g transform="translate(223.93547723161055 567.609939265787) rotate(0 478.44498569259554 -117.27938939036812)"><path d="M2.98 11.13 C4.67 8.82, 1.81 5.73, 1.41 -3.73 M4.65 13.01 C3.8 9.28, 1.72 5.56, 0.09 -1.98" stroke="#f08c00" stroke-width="1" fill="none"></path></g><g transform="translate(223.93547723161055 567.609939265787) rotate(0 478.44498569259554 -117.27938939036812)"><path d="M937.48 -223.25 C946.21 -225, 948.87 -227.71, 960.83 -237.56 M939.71 -220.75 C944.77 -224.56, 948.17 -228.19, 959.06 -235.23" stroke="#f08c00" stroke-width="1" fill="none"></path></g><g transform="translate(223.93547723161055 567.609939265787) rotate(0 478.44498569259554 -117.27938939036812)"><path d="M933.37 -239.85 C943.15 -237.39, 946.86 -235.87, 960.83 -237.56 M935.6 -237.35 C941.71 -237.16, 946.11 -236.76, 959.06 -235.23" stroke="#f08c00" stroke-width="1" fill="none"></path></g></g><mask></mask><g stroke-linecap="round"><g transform="translate(217.47876132421788 564.2702322891801) rotate(0 487.93210573517626 -2.450900441191152)"><path d="M2.33 -1.7 C165.05 -2.88, 815.21 -4.57, 977.91 -5.34 M0.15 3.55 C162.53 2.65, 813.78 -0.69, 976.78 -1.94" stroke="#f08c00" stroke-width="1" fill="none"></path></g><g transform="translate(217.47876132421788 564.2702322891801) rotate(0 487.93210573517626 -2.450900441191152)"><path d="M1.36 -15.61 C2.16 -9.92, 1.65 -5.27, 1.42 -1.07 M2.01 -16.1 C2.36 -13.13, 1.6 -10.23, 1.95 -1.85" stroke="#f08c00" stroke-width="1" fill="none"></path></g><g transform="translate(217.47876132421788 564.2702322891801) rotate(0 487.93210573517626 -2.450900441191152)"><path d="M1.48 14.39 C2.04 9.34, 1.5 3.26, 1.42 -1.07 M2.12 13.9 C2.49 10, 1.7 6.04, 1.95 -1.85" stroke="#f08c00" stroke-width="1" fill="none"></path></g><g transform="translate(217.47876132421788 564.2702322891801) rotate(0 487.93210573517626 -2.450900441191152)"><path d="M952.12 8.21 C961.36 5.33, 969.05 1.26, 975.56 -1.11 M952.98 7.55 C958.84 4.75, 963.16 2.05, 976.27 -2.14" stroke="#f08c00" stroke-width="1" fill="none"></path></g><g transform="translate(217.47876132421788 564.2702322891801) rotate(0 487.93210573517626 -2.450900441191152)"><path d="M952.02 -8.89 C961.4 -5.65, 969.13 -3.6, 975.56 -1.11 M952.87 -9.55 C958.73 -8.44, 963.08 -7.23, 976.27 -2.14" stroke="#f08c00" stroke-width="1" fill="none"></path></g></g><mask></mask><g stroke-linecap="round"><g transform="translate(595.893757051495 106.32515158619753) rotate(0 294.88024085144957 1.1892503324888821)"><path d="M-2.09 -0.57 C96.68 0.17, 493.81 4.98, 592.36 5.09 M1.98 -3.35 C100.62 -3.38, 494.01 0.66, 591.54 1.56" stroke="#f08c00" stroke-width="1" fill="none"></path></g><g transform="translate(595.893757051495 106.32515158619753) rotate(0 294.88024085144957 1.1892503324888821)"><path d="M-2.24 -14.18 C-0.49 -11.47, -3.19 -5.55, -2.53 0.69 M-2.48 -15.06 C-2.64 -10.36, -1.88 -5.22, -2.12 -0.55" stroke="#f08c00" stroke-width="1" fill="none"></path></g><g transform="translate(595.893757051495 106.32515158619753) rotate(0 294.88024085144957 1.1892503324888821)"><path d="M-2.55 15.82 C-0.78 9.77, -3.39 6.93, -2.53 0.69 M-2.78 14.94 C-2.93 8.63, -2.06 2.76, -2.12 -0.55" stroke="#f08c00" stroke-width="1" fill="none"></path></g><g transform="translate(595.893757051495 106.32515158619753) rotate(0 294.88024085144957 1.1892503324888821)"><path d="M567.56 11.74 C576.77 7.25, 580.11 6.88, 590.94 3.23 M567.24 10.57 C575.66 6.33, 585.4 2.79, 591.49 1.59" stroke="#f08c00" stroke-width="1" fill="none"></path></g><g transform="translate(595.893757051495 106.32515158619753) rotate(0 294.88024085144957 1.1892503324888821)"><path d="M567.72 -5.36 C576.92 -4.86, 580.22 -0.23, 590.94 3.23 M567.4 -6.53 C575.82 -4.49, 585.5 -1.76, 591.49 1.59" stroke="#f08c00" stroke-width="1" fill="none"></path></g></g><mask></mask><g stroke-linecap="round"><g transform="translate(592.8247091538974 111.80111018753996) rotate(0 300.82084105456806 54.96578790770036)"><path d="M-0.09 -0.19 C99.39 18.34, 499.55 92.22, 599.51 110.25 M-3.58 -2.77 C96.54 16.36, 503.25 95.25, 604.75 114.05" stroke="#f08c00" stroke-width="1" fill="none"></path></g><g transform="translate(592.8247091538974 111.80111018753996) rotate(0 300.82084105456806 54.96578790770036)"><path d="M2.53 -16.09 C1.68 -10.22, -0.6 -4.7, -0.11 -0.31 M2.43 -15.11 C2.48 -11.02, 1.77 -8.05, -0.83 0.02" stroke="#f08c00" stroke-width="1" fill="none"></path></g><g transform="translate(592.8247091538974 111.80111018753996) rotate(0 300.82084105456806 54.96578790770036)"><path d="M-2.92 13.41 C-1.52 7.69, -1.67 1.61, -0.11 -0.31 M-3.02 14.39 C-1.47 11.91, -0.97 8.29, -0.83 0.02" stroke="#f08c00" stroke-width="1" fill="none"></path></g><g transform="translate(592.8247091538974 111.80111018753996) rotate(0 300.82084105456806 54.96578790770036)"><path d="M579.93 116.54 C590.01 115.07, 598.09 113.12, 604.72 113.9 M579.8 117.84 C586.41 118.05, 591.77 116.71, 603.76 114.34" stroke="#f08c00" stroke-width="1" fill="none"></path></g><g transform="translate(592.8247091538974 111.80111018753996) rotate(0 300.82084105456806 54.96578790770036)"><path d="M583.13 99.74 C591.9 104.87, 598.72 109.52, 604.72 113.9 M583 101.04 C588.74 104.99, 593.39 107.41, 603.76 114.34" stroke="#f08c00" stroke-width="1" fill="none"></path></g></g><mask></mask><g stroke-linecap="round"><g transform="translate(591.8685433330165 100.48627765092351) rotate(0 297.7861601393504 117.995215447806)"><path d="M-1.78 0.99 C97.19 40.6, 495.83 199.25, 595.45 238.44 M2.46 -0.94 C100.89 37.86, 494.5 194.72, 593.15 234.76" stroke="#f08c00" stroke-width="1" fill="none"></path></g><g transform="translate(591.8685433330165 100.48627765092351) rotate(0 297.7861601393504 117.995215447806)"><path d="M4.3 -13.01 C3.13 -7.78, -0.09 -1.59, -2.25 1.6 M3.84 -12.99 C1.96 -7.83, 0.15 -3.6, -1.13 1.41" stroke="#f08c00" stroke-width="1" fill="none"></path></g><g transform="translate(591.8685433330165 100.48627765092351) rotate(0 297.7861601393504 117.995215447806)"><path d="M-6.79 14.86 C-4.06 10.16, -3.3 6.33, -2.25 1.6 M-7.25 14.88 C-5.32 10.71, -3.44 5.67, -1.13 1.41" stroke="#f08c00" stroke-width="1" fill="none"></path></g><g transform="translate(591.8685433330165 100.48627765092351) rotate(0 297.7861601393504 117.995215447806)"><path d="M568.87 233.86 C578.89 234.66, 586.22 236.53, 592.51 235.58 M568.25 233.88 C576.6 234.69, 584.96 234.42, 594 235.33" stroke="#f08c00" stroke-width="1" fill="none"></path></g><g transform="translate(591.8685433330165 100.48627765092351) rotate(0 297.7861601393504 117.995215447806)"><path d="M575.24 217.99 C583.02 224.45, 588.06 232.02, 592.51 235.58 M574.63 218.01 C580.79 224.14, 587.03 229.15, 594 235.33" stroke="#f08c00" stroke-width="1" fill="none"></path></g></g><mask></mask><g stroke-linecap="round"><g transform="translate(595.4744798664601 104.29917978936646) rotate(0 294.7394889658358 228.1378809060907)"><path d="M0.15 -2.38 C97.55 73.66, 488.58 377.95, 586.79 454.7 M-3.21 2.51 C94.79 79.02, 493.26 382.3, 591.73 457.47" stroke="#f08c00" stroke-width="1" fill="none"></path></g><g transform="translate(595.4744798664601 104.29917978936646) rotate(0 294.7394889658358 228.1378809060907)"><path d="M8.1 -15.65 C4.9 -9.67, 3.16 -5.48, 0.58 -2.91 M10 -13.58 C6.14 -10.74, 3.04 -7.34, -0.43 -1.81" stroke="#f08c00" stroke-width="1" fill="none"></path></g><g transform="translate(595.4744798664601 104.29917978936646) rotate(0 294.7394889658358 228.1378809060907)"><path d="M-10.34 8.02 C-6.29 4.85, -0.91 -0.09, 0.58 -2.91 M-8.43 10.09 C-6.31 5.48, -3.56 1.38, -0.43 -1.81" stroke="#f08c00" stroke-width="1" fill="none"></path></g><g transform="translate(595.4744798664601 104.29917978936646) rotate(0 294.7394889658358 228.1378809060907)"><path d="M566.17 448.11 C575.91 452.85, 587.55 455.22, 592.3 456.76 M568.71 450.87 C575.07 452.13, 582.41 454.02, 590.95 458.23" stroke="#f08c00" stroke-width="1" fill="none"></path></g><g transform="translate(595.4744798664601 104.29917978936646) rotate(0 294.7394889658358 228.1378809060907)"><path d="M576.54 434.51 C582.2 444.5, 589.84 452.12, 592.3 456.76 M579.08 437.27 C582.08 442.81, 586.12 449.01, 590.95 458.23" stroke="#f08c00" stroke-width="1" fill="none"></path></g></g><mask></mask><g stroke-linecap="round"><g transform="translate(586.1074151489934 227.75439228447613) rotate(0 299.52207460489535 -60.85292836045028)"><path d="M2.73 -1.19 C102.63 -22.2, 502.18 -103.01, 601.56 -123.37 M0.77 -4.31 C100.32 -23.79, 501.28 -101.18, 600.69 -120.65" stroke="#f08c00" stroke-width="1" fill="none"></path></g><g transform="translate(586.1074151489934 227.75439228447613) rotate(0 299.52207460489535 -60.85292836045028)"><path d="M-0.91 -14.54 C0.11 -10.37, 1.25 -6.15, 2.75 -0.79 M-0.55 -15.52 C0.92 -10.65, 1.07 -5.65, 2.32 -1.7" stroke="#f08c00" stroke-width="1" fill="none"></path></g><g transform="translate(586.1074151489934 227.75439228447613) rotate(0 299.52207460489535 -60.85292836045028)"><path d="M5.09 14.86 C3.56 7.99, 2.44 1.11, 2.75 -0.79 M5.46 13.88 C4.81 9.04, 2.99 4.39, 2.32 -1.7" stroke="#f08c00" stroke-width="1" fill="none"></path></g><g transform="translate(586.1074151489934 227.75439228447613) rotate(0 299.52207460489535 -60.85292836045028)"><path d="M578.41 -105.98 C586.03 -112.84, 594.13 -119.47, 600.72 -120.12 M578.9 -107.28 C586.42 -111.3, 592.33 -115.3, 600.15 -121.33" stroke="#f08c00" stroke-width="1" fill="none"></path></g><g transform="translate(586.1074151489934 227.75439228447613) rotate(0 299.52207460489535 -60.85292836045028)"><path d="M575.15 -122.77 C584.17 -123.33, 593.5 -123.62, 600.72 -120.12 M575.63 -124.07 C584.31 -122.55, 591.3 -121.03, 600.15 -121.33" stroke="#f08c00" stroke-width="1" fill="none"></path></g></g><mask></mask><g stroke-linecap="round"><g transform="translate(583.5958760766698 217.3572345484754) rotate(0 302.79243664816704 4.671465729364172)"><path d="M2.65 1.41 C103.88 3.23, 504.23 7.57, 604.83 8.98 M0.64 -0.3 C101.67 2.15, 501.48 10.15, 602.19 12.42" stroke="#f08c00" stroke-width="1" fill="none"></path></g><g transform="translate(583.5958760766698 217.3572345484754) rotate(0 302.79243664816704 4.671465729364172)"><path d="M3.59 -13.99 C2.5 -10.09, 2.95 -8.36, 1.32 0.74 M2.9 -14.22 C1.93 -9.42, 2.69 -3.97, 2.85 2.1" stroke="#f08c00" stroke-width="1" fill="none"></path></g><g transform="translate(583.5958760766698 217.3572345484754) rotate(0 302.79243664816704 4.671465729364172)"><path d="M3.21 16 C2.41 13.65, 2.94 9.12, 1.32 0.74 M2.52 15.78 C1.91 10.77, 2.79 6.41, 2.85 2.1" stroke="#f08c00" stroke-width="1" fill="none"></path></g><g transform="translate(583.5958760766698 217.3572345484754) rotate(0 302.79243664816704 4.671465729364172)"><path d="M579.52 19.93 C583.25 19.06, 588.85 15.51, 600.41 11.53 M578.6 19.63 C585.34 16.74, 594.17 14.83, 602.45 13.34" stroke="#f08c00" stroke-width="1" fill="none"></path></g><g transform="translate(583.5958760766698 217.3572345484754) rotate(0 302.79243664816704 4.671465729364172)"><path d="M579.88 2.83 C583.42 5.53, 588.94 5.55, 600.41 11.53 M578.96 2.54 C585.45 5.23, 594.17 8.91, 602.45 13.34" stroke="#f08c00" stroke-width="1" fill="none"></path></g></g><mask></mask><g stroke-linecap="round"><g transform="translate(587.2147956923459 220.4760763849863) rotate(0 301.0792043909928 56.30335086192645)"><path d="M-1.71 0.81 C98.45 19.76, 501.99 95.76, 602.56 113.94 M2.55 -1.21 C102.24 16.88, 501.02 90.85, 600.54 109.65" stroke="#f08c00" stroke-width="1" fill="none"></path></g><g transform="translate(587.2147956923459 220.4760763849863) rotate(0 301.0792043909928 56.30335086192645)"><path d="M1.49 -13.71 C0.8 -8.94, -2.34 -2.14, -1.94 2.07 M1.61 -14.55 C0.54 -10.12, -0.97 -6.41, -1.64 0.35" stroke="#f08c00" stroke-width="1" fill="none"></path></g><g transform="translate(587.2147956923459 220.4760763849863) rotate(0 301.0792043909928 56.30335086192645)"><path d="M-4.05 15.77 C-2.8 10.09, -3.96 6.4, -1.94 2.07 M-3.93 14.94 C-3.76 12.27, -3.94 8.88, -1.64 0.35" stroke="#f08c00" stroke-width="1" fill="none"></path></g><g transform="translate(587.2147956923459 220.4760763849863) rotate(0 301.0792043909928 56.30335086192645)"><path d="M576.46 114.03 C585.6 112.12, 591.51 112.74, 600.25 111.33 M576.62 112.92 C581.95 113.1, 586.75 112.32, 600.64 109.04" stroke="#f08c00" stroke-width="1" fill="none"></path></g><g transform="translate(587.2147956923459 220.4760763849863) rotate(0 301.0792043909928 56.30335086192645)"><path d="M579.6 97.22 C587.64 101.27, 592.43 107.87, 600.25 111.33 M579.76 96.11 C584.39 100.33, 588.44 103.61, 600.64 109.04" stroke="#f08c00" stroke-width="1" fill="none"></path></g></g><mask></mask><g stroke-linecap="round"><g transform="translate(589.0759587158977 220.46141313917178) rotate(0 298.23132711777794 167.40210577002017)"><path d="M1.6 -0.36 C100.8 55.43, 495.07 276.95, 594.13 332.38 M-0.97 -3.03 C99.17 53.25, 500.13 278.54, 599.26 334.7" stroke="#f08c00" stroke-width="1" fill="none"></path></g><g transform="translate(589.0759587158977 220.46141313917178) rotate(0 298.23132711777794 167.40210577002017)"><path d="M8.75 -14.69 C5.61 -10.26, 3.6 -6.5, 0.93 0.07 M9.28 -13.98 C7.46 -10.34, 5.38 -7.36, 1.05 -0.2" stroke="#f08c00" stroke-width="1" fill="none"></path></g><g transform="translate(589.0759587158977 220.46141313917178) rotate(0 298.23132711777794 167.40210577002017)"><path d="M-5.94 11.46 C-5 8.95, -3.16 5.84, 0.93 0.07 M-5.42 12.18 C-3.81 9.91, -2.5 6.86, 1.05 -0.2" stroke="#f08c00" stroke-width="1" fill="none"></path></g><g transform="translate(589.0759587158977 220.46141313917178) rotate(0 298.23132711777794 167.40210577002017)"><path d="M574.34 328.94 C579.31 331.15, 585.67 332.66, 598.37 335.27 M575.04 329.89 C580.58 331.95, 585.74 332.85, 598.53 334.91" stroke="#f08c00" stroke-width="1" fill="none"></path></g><g transform="translate(589.0759587158977 220.46141313917178) rotate(0 298.23132711777794 167.40210577002017)"><path d="M582.74 314.04 C585.38 320.22, 589.53 325.63, 598.37 335.27 M583.44 314.99 C587.01 320.42, 590.25 324.75, 598.53 334.91" stroke="#f08c00" stroke-width="1" fill="none"></path></g></g><mask></mask><g stroke-linecap="round"><g transform="translate(593.4028381685998 339.7504309169726) rotate(0 298.57660073408806 -115.54347492482339)"><path d="M-1.68 -1.37 C97.84 -40.16, 496.06 -191.68, 595.44 -230.29 M2.61 4.06 C103.18 -34.4, 501.34 -195.69, 600.92 -234.86" stroke="#f08c00" stroke-width="1" fill="none"></path></g><g transform="translate(593.4028381685998 339.7504309169726) rotate(0 298.57660073408806 -115.54347492482339)"><path d="M-7.78 -16.29 C-5.2 -13.33, -5.36 -9.65, -2.47 -1.9 M-6.48 -15.3 C-5.91 -11.21, -4.02 -8.1, -1.69 -1.05" stroke="#f08c00" stroke-width="1" fill="none"></path></g><g transform="translate(593.4028381685998 339.7504309169726) rotate(0 298.57660073408806 -115.54347492482339)"><path d="M2.95 11.72 C2.7 7.86, -0.06 4.78, -2.47 -1.9 M4.25 12.72 C1.88 9.47, 0.97 5.28, -1.69 -1.05" stroke="#f08c00" stroke-width="1" fill="none"></path></g><g transform="translate(593.4028381685998 339.7504309169726) rotate(0 298.57660073408806 -115.54347492482339)"><path d="M581.3 -219.42 C587.2 -223.93, 589.75 -227.55, 599.86 -235.57 M583.03 -218.1 C586.6 -221.82, 592.11 -226.88, 600.9 -234.44" stroke="#f08c00" stroke-width="1" fill="none"></path></g><g transform="translate(593.4028381685998 339.7504309169726) rotate(0 298.57660073408806 -115.54347492482339)"><path d="M574.95 -235.3 C582.53 -235.94, 586.61 -235.73, 599.86 -235.57 M576.69 -233.98 C581.98 -233.55, 589.15 -234.47, 600.9 -234.44" stroke="#f08c00" stroke-width="1" fill="none"></path></g></g><mask></mask><g stroke-linecap="round"><g transform="translate(587.9794228647629 336.88621023435917) rotate(0 301.76746049145436 -58.180399068444785)"><path d="M-0.88 0.58 C98.93 -18.88, 500.81 -98.86, 601.16 -118 M3.84 -1.57 C104.3 -20.58, 505.78 -95.74, 606.27 -115.25" stroke="#f08c00" stroke-width="1" fill="none"></path></g><g transform="translate(587.9794228647629 336.88621023435917) rotate(0 301.76746049145436 -58.180399068444785)"><path d="M-3.47 -15.4 C-3.61 -9.74, -0.49 -1.6, -1.6 0.91 M-3.98 -14.24 C-2.2 -10.62, -2.28 -6.16, -0.91 -0.04" stroke="#f08c00" stroke-width="1" fill="none"></path></g><g transform="translate(587.9794228647629 336.88621023435917) rotate(0 301.76746049145436 -58.180399068444785)"><path d="M2.34 14.03 C0.11 8.43, 1.01 5.33, -1.6 0.91 M1.83 15.19 C1.92 10.3, 0.15 6.24, -0.91 -0.04" stroke="#f08c00" stroke-width="1" fill="none"></path></g><g transform="translate(587.9794228647629 336.88621023435917) rotate(0 301.76746049145436 -58.180399068444785)"><path d="M585.21 -104.16 C591.89 -108.93, 602.78 -110.46, 605.31 -114.82 M584.52 -102.61 C591.99 -107.19, 596.97 -110.62, 606.23 -116.08" stroke="#f08c00" stroke-width="1" fill="none"></path></g><g transform="translate(587.9794228647629 336.88621023435917) rotate(0 301.76746049145436 -58.180399068444785)"><path d="M582.01 -120.96 C589.84 -119.3, 601.95 -114.42, 605.31 -114.82 M581.33 -119.41 C589.73 -119.13, 595.63 -117.7, 606.23 -116.08" stroke="#f08c00" stroke-width="1" fill="none"></path></g></g><mask></mask><g stroke-linecap="round"><g transform="translate(586.1590419936351 340.45029542037264) rotate(0 297.66831957532327 0.6914636854835408)"><path d="M-2.48 -2.33 C96.72 -1.99, 492.9 2.29, 592.97 3.35 M1.37 2.57 C101.62 2.01, 498.72 -0.15, 598.09 -0.59" stroke="#f08c00" stroke-width="1" fill="none"></path></g><g transform="translate(586.1590419936351 340.45029542037264) rotate(0 297.66831957532327 0.6914636854835408)"><path d="M-3.59 -18.6 C-1.25 -12.61, -0.93 -10.19, -2 -3.38 M-1.71 -17.64 C-2.47 -14.71, -2.99 -10.45, -2.23 -2.99" stroke="#f08c00" stroke-width="1" fill="none"></path></g><g transform="translate(586.1590419936351 340.45029542037264) rotate(0 297.66831957532327 0.6914636854835408)"><path d="M-3.86 11.4 C-1.6 10.77, -1.22 6.56, -2 -3.38 M-1.99 12.35 C-2.57 9.08, -3.04 7.14, -2.23 -2.99" stroke="#f08c00" stroke-width="1" fill="none"></path></g><g transform="translate(586.1590419936351 340.45029542037264) rotate(0 297.66831957532327 0.6914636854835408)"><path d="M572.98 6.39 C581.18 8.25, 586.83 5.14, 598.72 -1.99 M575.48 7.66 C579.47 5.55, 583.66 5.3, 598.42 -1.47" stroke="#f08c00" stroke-width="1" fill="none"></path></g><g transform="translate(586.1590419936351 340.45029542037264) rotate(0 297.66831957532327 0.6914636854835408)"><path d="M572.89 -10.72 C581.2 -5.07, 586.86 -4.41, 598.72 -1.99 M575.39 -9.45 C579.33 -8.02, 583.54 -4.73, 598.42 -1.47" stroke="#f08c00" stroke-width="1" fill="none"></path></g></g><mask></mask><g stroke-linecap="round"><g transform="translate(590.4396405767325 337.54269596888844) rotate(0 300.078285121946 112.91470625704824)"><path d="M-1.89 2.52 C97.77 40.63, 498.8 189.17, 599.53 226.49 M2.27 1.42 C101.37 38.83, 497.01 183.76, 596.95 221.84" stroke="#f08c00" stroke-width="1" fill="none"></path></g><g transform="translate(590.4396405767325 337.54269596888844) rotate(0 300.078285121946 112.91470625704824)"><path d="M4.7 -11.87 C1.73 -5.34, -0.16 -1.92, -1.46 2.73 M4 -11.91 C1.55 -8.45, 0.36 -3.59, -2.53 2.28" stroke="#f08c00" stroke-width="1" fill="none"></path></g><g transform="translate(590.4396405767325 337.54269596888844) rotate(0 300.078285121946 112.91470625704824)"><path d="M-5.79 16.24 C-4.81 12.86, -2.98 6.31, -1.46 2.73 M-6.49 16.2 C-6.07 12.45, -4.57 10.09, -2.53 2.28" stroke="#f08c00" stroke-width="1" fill="none"></path></g><g transform="translate(590.4396405767325 337.54269596888844) rotate(0 300.078285121946 112.91470625704824)"><path d="M573.75 221.2 C581.29 223.54, 590.13 221.52, 597.54 222.11 M572.82 221.15 C577.88 221.01, 584.51 222.73, 596.1 221.51" stroke="#f08c00" stroke-width="1" fill="none"></path></g><g transform="translate(590.4396405767325 337.54269596888844) rotate(0 300.078285121946 112.91470625704824)"><path d="M579.72 205.17 C585.02 213.16, 591.73 216.83, 597.54 222.11 M578.79 205.12 C582.22 209.1, 587.32 214.93, 596.1 221.51" stroke="#f08c00" stroke-width="1" fill="none"></path></g></g><mask></mask><g stroke-linecap="round"><g transform="translate(586.593135166629 562.1516987531377) rotate(0 298.33221330383117 -229.1300175018623)"><path d="M0.78 -2.17 C100.09 -78.23, 495 -380.36, 594.41 -456.53 M-2.24 2.82 C98.07 -74.03, 499.93 -384.03, 599.58 -460.61" stroke="#f08c00" stroke-width="1" fill="none"></path></g><g transform="translate(586.593135166629 562.1516987531377) rotate(0 298.33221330383117 -229.1300175018623)"><path d="M-9.5 -15.29 C-5.16 -10.87, -4.36 -8.3, -0.72 -2.73 M-7.69 -14.09 C-6.09 -10.89, -3.13 -7.25, 0.61 -2.02" stroke="#f08c00" stroke-width="1" fill="none"></path></g><g transform="translate(586.593135166629 562.1516987531377) rotate(0 298.33221330383117 -229.1300175018623)"><path d="M8.73 8.53 C8.57 7.11, 4.87 3.79, -0.72 -2.73 M10.54 9.74 C7.05 6.56, 5.1 3.77, 0.61 -2.02" stroke="#f08c00" stroke-width="1" fill="none"></path></g><g transform="translate(586.593135166629 562.1516987531377) rotate(0 298.33221330383117 -229.1300175018623)"><path d="M584.64 -441.11 C590.74 -444.37, 592.12 -450.09, 597.59 -461.36 M587.05 -439.51 C589.25 -445.22, 593.54 -450.34, 599.36 -460.4" stroke="#f08c00" stroke-width="1" fill="none"></path></g><g transform="translate(586.593135166629 562.1516987531377) rotate(0 298.33221330383117 -229.1300175018623)"><path d="M574.2 -454.66 C582.88 -454.6, 586.84 -456.96, 597.59 -461.36 M576.61 -453.05 C581.73 -455.14, 588.83 -456.62, 599.36 -460.4" stroke="#f08c00" stroke-width="1" fill="none"></path></g></g><mask></mask><g stroke-linecap="round"><g transform="translate(590.1170491687931 565.3348450322374) rotate(0 294.0904112252872 -171.300390766909)"><path d="M-1.85 -0.86 C95.78 -57.77, 486.8 -284.16, 585.57 -340.92 M2.34 -3.79 C100.82 -61.56, 492.56 -287.94, 590.55 -345.01" stroke="#f08c00" stroke-width="1" fill="none"></path></g><g transform="translate(590.1170491687931 565.3348450322374) rotate(0 294.0904112252872 -171.300390766909)"><path d="M-9.83 -15.24 C-6.25 -8.63, -4.3 -5.08, -1.13 -0.35 M-9.33 -13.59 C-6.92 -9.31, -3.03 -2.87, -1.88 -0.69" stroke="#f08c00" stroke-width="1" fill="none"></path></g><g transform="translate(590.1170491687931 565.3348450322374) rotate(0 294.0904112252872 -171.300390766909)"><path d="M5.21 10.72 C4.35 9.65, 1.9 5.61, -1.13 -0.35 M5.71 12.37 C2.34 6.34, 0.23 2.41, -1.88 -0.69" stroke="#f08c00" stroke-width="1" fill="none"></path></g><g transform="translate(590.1170491687931 565.3348450322374) rotate(0 294.0904112252872 -171.300390766909)"><path d="M573.91 -327.7 C580.37 -329.5, 584.72 -335.43, 591.52 -344.34 M574.57 -325.49 C580.5 -334.38, 588.09 -340.37, 590.52 -344.79" stroke="#f08c00" stroke-width="1" fill="none"></path></g><g transform="translate(590.1170491687931 565.3348450322374) rotate(0 294.0904112252872 -171.300390766909)"><path d="M565.33 -342.49 C574.32 -339.92, 581.18 -341.52, 591.52 -344.34 M565.99 -340.29 C575.22 -343.3, 586.24 -343.38, 590.52 -344.79" stroke="#f08c00" stroke-width="1" fill="none"></path></g></g><mask></mask><g stroke-linecap="round"><g transform="translate(588.9279515784478 567.4556697004373) rotate(0 301.26677174371525 -115.17750474801323)"><path d="M0.82 -2.66 C101.39 -41.55, 502.21 -192.89, 602.91 -230.56 M-2.17 2.07 C98.09 -35.17, 499.75 -187.81, 600.87 -227.05" stroke="#f08c00" stroke-width="1" fill="none"></path></g><g transform="translate(588.9279515784478 567.4556697004373) rotate(0 301.26677174371525 -115.17750474801323)"><path d="M-5.92 -16.49 C-2.96 -11.41, -0.47 -7.61, -0.46 -1.85 M-4.45 -16.98 C-2.88 -12.71, -1.11 -7.49, 0.14 -3.21" stroke="#f08c00" stroke-width="1" fill="none"></path></g><g transform="translate(588.9279515784478 567.4556697004373) rotate(0 301.26677174371525 -115.17750474801323)"><path d="M4.72 11.56 C4.39 8.73, 3.87 4.6, -0.46 -1.85 M6.19 11.07 C4.71 6.68, 3.23 3.31, 0.14 -3.21" stroke="#f08c00" stroke-width="1" fill="none"></path></g><g transform="translate(588.9279515784478 567.4556697004373) rotate(0 301.26677174371525 -115.17750474801323)"><path d="M580.09 -210.39 C587.02 -213.59, 593.68 -218.44, 599.16 -225.97 M582.05 -211.05 C588.02 -216.02, 593.99 -219.8, 599.96 -227.78" stroke="#f08c00" stroke-width="1" fill="none"></path></g><g transform="translate(588.9279515784478 567.4556697004373) rotate(0 301.26677174371525 -115.17750474801323)"><path d="M573.97 -226.36 C582.79 -225.05, 591.18 -225.39, 599.16 -225.97 M575.93 -227.01 C583.65 -227.05, 591.5 -225.95, 599.96 -227.78" stroke="#f08c00" stroke-width="1" fill="none"></path></g></g><mask></mask><g stroke-linecap="round"><g transform="translate(592.2852239016051 565.314377584953) rotate(0 292.4889862174557 -1.7610405482182614)"><path d="M-0.5 -2.73 C97.1 -3.15, 487.01 -3.05, 584.47 -2.78 M-4.22 1.97 C93.06 0.67, 484.24 -6.18, 581.95 -7.39" stroke="#f08c00" stroke-width="1" fill="none"></path></g><g transform="translate(592.2852239016051 565.314377584953) rotate(0 292.4889862174557 -1.7610405482182614)"><path d="M-1.97 -18 C-0.12 -14.21, 0.78 -8.87, 0.92 -1.92 M0.18 -17.85 C-1.1 -11.59, -0.76 -5.95, -1.18 -2.38" stroke="#f08c00" stroke-width="1" fill="none"></path></g><g transform="translate(592.2852239016051 565.314377584953) rotate(0 292.4889862174557 -1.7610405482182614)"><path d="M-1.95 12 C-0.09 7.99, 0.81 5.52, 0.92 -1.92 M0.2 12.15 C-0.99 7.2, -0.66 1.63, -1.18 -2.38" stroke="#f08c00" stroke-width="1" fill="none"></path></g><g transform="translate(592.2852239016051 565.314377584953) rotate(0 292.4889862174557 -1.7610405482182614)"><path d="M556.65 1.15 C565.21 -1.27, 572.48 -1.67, 583.85 -6.32 M559.52 1.35 C566.62 -1.04, 575.8 -4.32, 581.05 -6.93" stroke="#f08c00" stroke-width="1" fill="none"></path></g><g transform="translate(592.2852239016051 565.314377584953) rotate(0 292.4889862174557 -1.7610405482182614)"><path d="M556.39 -15.95 C565 -13.92, 572.34 -9.88, 583.85 -6.32 M559.26 -15.75 C566.41 -11.75, 575.68 -8.63, 581.05 -6.93" stroke="#f08c00" stroke-width="1" fill="none"></path></g></g><mask></mask></svg>