<svg version="1.1" xmlns="http://www.w3.org/2000/svg" viewBox="0 0 1281.827022290472 783.1309182797668" width="1281.827022290472" height="783.1309182797668">
  <!-- svg-source:excalidraw -->
  
  <defs>
    <style class="style-fonts">
      @font-face {
        font-family: "Virgil";
        src: url("https://excalidraw.com/Virgil.woff2");
      }
      @font-face {
        font-family: "Cascadia";
        src: url("https://excalidraw.com/Cascadia.woff2");
      }
      @font-face {
        font-family: "Assistant";
        src: url("https://excalidraw.com/Assistant-Regular.woff2");
      }
    </style>
    
  </defs>
  <g stroke-linecap="round" transform="translate(10 77.70448271005807) rotate(0 148.67484973156297 310.26021008440784)"><path d="M32 0 C116.62 5.55, 196.35 1.08, 265.35 0 M32 0 C89.11 1.98, 149.07 3.05, 265.35 0 M265.35 0 C287.51 3.06, 297.08 12.04, 297.35 32 M265.35 0 C288.03 -3.78, 296.55 13.51, 297.35 32 M297.35 32 C302.71 190.36, 301.4 350.83, 297.35 588.52 M297.35 32 C300.83 208.36, 300.59 384.04, 297.35 588.52 M297.35 588.52 C297.31 606.27, 287.95 620.09, 265.35 620.52 M297.35 588.52 C296.55 610.91, 290.82 624.36, 265.35 620.52 M265.35 620.52 C199.73 619.31, 138.64 618.44, 32 620.52 M265.35 620.52 C218.96 619.98, 168.99 619.6, 32 620.52 M32 620.52 C6.82 617.45, 2.42 609.18, 0 588.52 M32 620.52 C13.42 620.41, 4.28 605.61, 0 588.52 M0 588.52 C2.12 398.03, 3.8 209.01, 0 32 M0 588.52 C-0.57 435.53, -0.94 281.58, 0 32 M0 32 C-3.36 11.85, 7.01 1.16, 32 0 M0 32 C-0.26 10.55, 14.63 3.5, 32 0" stroke="#f08c00" stroke-width="1" fill="none"></path></g><g stroke-linecap="round" transform="translate(178.2628841220294 129.28073151669741) rotate(0 37.45000618367044 37.431027972289485)"><path d="M47.5 9.5 C51.87 11.2, 53.8 18.12, 65.4 28.5 M47.5 9.5 C51.65 14.38, 55.86 19.94, 65.4 28.5 M65.4 28.5 C74.63 39.37, 76.07 34.71, 65.4 47.5 M65.4 28.5 C74.1 40.84, 74.23 42.06, 65.4 47.5 M65.4 47.5 C61.25 54.69, 56.85 60.42, 47.5 65.36 M65.4 47.5 C59.77 51.61, 57.89 53.16, 47.5 65.36 M47.5 65.36 C39.27 74.43, 37.3 75.78, 28.5 65.36 M47.5 65.36 C42.14 78.7, 36.89 71.4, 28.5 65.36 M28.5 65.36 C26.05 59.79, 14.76 57.24, 9.5 47.5 M28.5 65.36 C22.08 59.61, 15.28 53.49, 9.5 47.5 M9.5 47.5 C2.42 37.33, 2.39 37.91, 9.5 28.5 M9.5 47.5 C4.28 33.75, 1.91 34.77, 9.5 28.5 M9.5 28.5 C17.05 24.47, 19.98 18.08, 28.5 9.5 M9.5 28.5 C16 20.32, 21.69 15, 28.5 9.5 M28.5 9.5 C34.35 1.16, 37.78 -0.1, 47.5 9.5 M28.5 9.5 C41.97 3.5, 42.3 3.47, 47.5 9.5" stroke="#f08c00" stroke-width="1" fill="none"></path></g><g stroke-linecap="round" transform="translate(180.24830287965142 241.53013118040326) rotate(0 37.45000618367044 37.431027972289485)"><path d="M47.5 9.5 C52.23 17.23, 58.14 20.91, 65.4 28.5 M47.5 9.5 C52.52 15.8, 56.52 19.78, 65.4 28.5 M65.4 28.5 C76.07 34.71, 74.21 40.47, 65.4 47.5 M65.4 28.5 C74.23 42.06, 73.32 42.11, 65.4 47.5 M65.4 47.5 C61.31 56.04, 52.03 54.88, 47.5 65.36 M65.4 47.5 C58.79 52.02, 53.17 59.86, 47.5 65.36 M47.5 65.36 C37.3 75.78, 41.6 78.2, 28.5 65.36 M47.5 65.36 C36.89 71.4, 36.41 73.19, 28.5 65.36 M28.5 65.36 C18.71 61.19, 16.27 58.05, 9.5 47.5 M28.5 65.36 C21.1 58.47, 18.65 54.42, 9.5 47.5 M9.5 47.5 C2.39 37.91, 3.72 34.31, 9.5 28.5 M9.5 47.5 C1.91 34.77, -0.21 35.13, 9.5 28.5 M9.5 28.5 C13.54 23.88, 22.41 19.09, 28.5 9.5 M9.5 28.5 C14.21 22.98, 20.38 16.65, 28.5 9.5 M28.5 9.5 C37.78 -0.1, 41.45 3.04, 47.5 9.5 M28.5 9.5 C42.3 3.47, 39.87 2.61, 47.5 9.5" stroke="#f08c00" stroke-width="1" fill="none"></path></g><g stroke-linecap="round" transform="translate(180.24830287965324 358.1453977290548) rotate(0 37.45000618367044 37.431027972289485)"><path d="M47.5 9.5 C48.86 11.03, 54.18 19.33, 65.4 28.5 M47.5 9.5 C53.12 15.94, 59.51 19.63, 65.4 28.5 M65.4 28.5 C74.21 40.47, 74.32 41.53, 65.4 47.5 M65.4 28.5 C73.32 42.11, 73.35 38.33, 65.4 47.5 M65.4 47.5 C55.08 51.96, 54.44 57.27, 47.5 65.36 M65.4 47.5 C60.39 52.59, 53.77 58.89, 47.5 65.36 M47.5 65.36 C41.6 78.2, 37.04 71.85, 28.5 65.36 M47.5 65.36 C36.41 73.19, 38.2 77.69, 28.5 65.36 M28.5 65.36 C23.1 64.15, 18 54.33, 9.5 47.5 M28.5 65.36 C24.9 59.89, 19.72 55.33, 9.5 47.5 M9.5 47.5 C3.72 34.31, 1.66 35.19, 9.5 28.5 M9.5 47.5 C-0.21 35.13, -1.25 39.96, 9.5 28.5 M9.5 28.5 C18.7 23.12, 23.7 14.87, 28.5 9.5 M9.5 28.5 C12.67 24.29, 19.06 18.98, 28.5 9.5 M28.5 9.5 C41.45 3.04, 41.74 3.02, 47.5 9.5 M28.5 9.5 C39.87 2.61, 37.34 -4.01, 47.5 9.5" stroke="#f08c00" stroke-width="1" fill="none"></path></g><g stroke-linecap="round" transform="translate(182.08701280804962 577.2013071292859) rotate(0 37.45000618367044 37.431027972289485)"><path d="M47.5 9.5 C50.95 16.3, 59.01 22.37, 65.4 28.5 M47.5 9.5 C54.8 14.89, 60.61 24.92, 65.4 28.5 M65.4 28.5 C74.32 41.53, 73.53 41.58, 65.4 47.5 M65.4 28.5 C73.35 38.33, 77.85 38.74, 65.4 47.5 M65.4 47.5 C60.12 50.68, 51.73 61.14, 47.5 65.36 M65.4 47.5 C61.4 51.68, 59.78 56.65, 47.5 65.36 M47.5 65.36 C37.04 71.85, 36.62 73.41, 28.5 65.36 M47.5 65.36 C38.2 77.69, 37.02 70.51, 28.5 65.36 M28.5 65.36 C21.96 58.55, 14.72 49.95, 9.5 47.5 M28.5 65.36 C25.24 61.26, 21.66 55.47, 9.5 47.5 M9.5 47.5 C1.66 35.19, -0.18 35.51, 9.5 28.5 M9.5 47.5 C-1.25 39.96, 1.71 36.87, 9.5 28.5 M9.5 28.5 C16.57 21.61, 19.16 12.97, 28.5 9.5 M9.5 28.5 C16 22.08, 24.1 17.39, 28.5 9.5 M28.5 9.5 C41.74 3.02, 39.62 2.27, 47.5 9.5 M28.5 9.5 C37.34 -4.01, 35.2 -2.31, 47.5 9.5" stroke="#f08c00" stroke-width="1" fill="none"></path></g><g transform="translate(186.34599837778387 484.4100346626474) rotate(0 31.640625 21.600000000000364)"><text x="0" y="34.762499999999996" font-family="Cascadia, Segoe UI Emoji" font-size="36px" fill="#f08c00" text-anchor="start" style="white-space: pre;" direction="ltr" dominant-baseline="alphabetic">...</text></g><g stroke-linecap="round" transform="translate(494.0180882974655 71.0837743975535) rotate(0 151.30804792151093 315.7552660745923)"><path d="M32 0 C109.94 -1.05, 183.9 0.15, 270.62 0 M32 0 C83.74 -0.99, 135.4 -0.97, 270.62 0 M270.62 0 C290.6 0.29, 305.18 11.31, 302.62 32 M270.62 0 C296.04 -4.44, 299.9 12.99, 302.62 32 M302.62 32 C301.86 152.33, 303.12 271.37, 302.62 599.51 M302.62 32 C306.51 214.68, 306.42 398.27, 302.62 599.51 M302.62 599.51 C302.79 623.31, 291.1 627.73, 270.62 631.51 M302.62 599.51 C304.16 620.33, 296.14 631.23, 270.62 631.51 M270.62 631.51 C203.64 629.7, 141.24 629.68, 32 631.51 M270.62 631.51 C200.29 626.66, 128.5 626.79, 32 631.51 M32 631.51 C9.58 633.21, 1.49 619.86, 0 599.51 M32 631.51 C11.48 634.62, 1.25 622.33, 0 599.51 M0 599.51 C2.92 438.47, 2.91 280.27, 0 32 M0 599.51 C-3.17 431.33, -3.59 262.39, 0 32 M0 32 C-0.58 7.18, 8.23 -2.01, 32 0 M0 32 C-0.78 13.8, 10.19 -2.6, 32 0" stroke="#f08c00" stroke-width="1" fill="none"></path></g><g stroke-linecap="round" transform="translate(549.16460027222 123.5734963655741) rotate(0 38.11328775869424 38.09397342192369)"><path d="M48.75 9.75 C56.1 17.19, 57.13 21.59, 66.48 29.25 M48.75 9.75 C54.42 18.28, 60.84 23.69, 66.48 29.25 M66.48 29.25 C78.79 39.65, 79.78 35.14, 66.48 48.75 M66.48 29.25 C73.51 41.33, 72.14 39.69, 66.48 48.75 M66.48 48.75 C60.43 53.46, 56.48 63.04, 48.75 66.44 M66.48 48.75 C58.9 54.54, 52.88 63.28, 48.75 66.44 M48.75 66.44 C38.15 72.4, 40.34 75.74, 29.25 66.44 M48.75 66.44 C43.19 75.9, 37.62 74.87, 29.25 66.44 M29.25 66.44 C24.87 65.46, 21.47 63.18, 9.75 48.75 M29.25 66.44 C24.96 61.24, 20.46 59.67, 9.75 48.75 M9.75 48.75 C1.49 38.02, 0.71 41.7, 9.75 29.25 M9.75 48.75 C1.25 40.49, -0.87 36.52, 9.75 29.25 M9.75 29.25 C15.01 25.17, 17.96 24.63, 29.25 9.75 M9.75 29.25 C17.53 22.76, 23.76 12.55, 29.25 9.75 M29.25 9.75 C36.56 -2.01, 38.33 2.72, 48.75 9.75 M29.25 9.75 C38.53 -2.6, 36.22 0.4, 48.75 9.75" stroke="#f08c00" stroke-width="1" fill="none"></path></g><g stroke-linecap="round" transform="translate(547.1440175235912 237.81095868110788) rotate(0 38.11328775869424 38.09397342192369)"><path d="M48.75 9.75 C50.8 14.67, 61.75 20.5, 66.48 29.25 M48.75 9.75 C54.83 17.15, 63.67 24.9, 66.48 29.25 M66.48 29.25 C79.78 35.14, 73.86 41.02, 66.48 48.75 M66.48 29.25 C72.14 39.69, 76.18 34.88, 66.48 48.75 M66.48 48.75 C61.48 58.15, 58.01 59.46, 48.75 66.44 M66.48 48.75 C62.46 53.83, 57.96 54.68, 48.75 66.44 M48.75 66.44 C40.34 75.74, 42.64 75.94, 29.25 66.44 M48.75 66.44 C37.62 74.87, 34.58 72.66, 29.25 66.44 M29.25 66.44 C22.18 64.01, 11.56 55.58, 9.75 48.75 M29.25 66.44 C24.24 62.98, 21.04 57.57, 9.75 48.75 M9.75 48.75 C0.71 41.7, 1.09 40.3, 9.75 29.25 M9.75 48.75 C-0.87 36.52, -3.86 40.36, 9.75 29.25 M9.75 29.25 C13.6 28.65, 20.82 24.88, 29.25 9.75 M9.75 29.25 C16.62 19.96, 23.02 13.38, 29.25 9.75 M29.25 9.75 C38.33 2.72, 38.59 -2.26, 48.75 9.75 M29.25 9.75 C36.22 0.4, 40.88 1.61, 48.75 9.75" stroke="#f08c00" stroke-width="1" fill="none"></path></g><g stroke-linecap="round" transform="translate(547.1440175235912 356.4916122764007) rotate(0 38.11328775869424 38.09397342192369)"><path d="M48.75 9.75 C56.74 15.65, 63.63 21.28, 66.48 29.25 M48.75 9.75 C56.81 17.64, 64.2 22.98, 66.48 29.25 M66.48 29.25 C73.86 41.02, 72.67 39.6, 66.48 48.75 M66.48 29.25 C76.18 34.88, 77.69 38.51, 66.48 48.75 M66.48 48.75 C64.89 53.11, 53.53 57.68, 48.75 66.44 M66.48 48.75 C61.39 51.74, 57.82 58.07, 48.75 66.44 M48.75 66.44 C42.64 75.94, 37.8 75.04, 29.25 66.44 M48.75 66.44 C34.58 72.66, 41.78 75.41, 29.25 66.44 M29.25 66.44 C18.55 62.1, 12.42 53.9, 9.75 48.75 M29.25 66.44 C25.45 61.91, 20.43 59.55, 9.75 48.75 M9.75 48.75 C1.09 40.3, -0.75 36.85, 9.75 29.25 M9.75 48.75 C-3.86 40.36, -4.2 40.33, 9.75 29.25 M9.75 29.25 C18.54 26.91, 24.26 19.06, 29.25 9.75 M9.75 29.25 C15.55 21.63, 23.38 17.04, 29.25 9.75 M29.25 9.75 C38.59 -2.26, 36.58 0.35, 48.75 9.75 M29.25 9.75 C40.88 1.61, 41.23 -4.03, 48.75 9.75" stroke="#f08c00" stroke-width="1" fill="none"></path></g><g stroke-linecap="round" transform="translate(545.2727419819512 579.4272473005076) rotate(0 38.11328775869424 38.09397342192369)"><path d="M48.75 9.75 C57.54 13.94, 62.59 19.48, 66.48 29.25 M48.75 9.75 C56.22 13.75, 58.71 22.69, 66.48 29.25 M66.48 29.25 C72.67 39.6, 76.19 35.42, 66.48 48.75 M66.48 29.25 C77.69 38.51, 75.42 40.06, 66.48 48.75 M66.48 48.75 C56.85 54.18, 51.49 62.63, 48.75 66.44 M66.48 48.75 C60.66 54.59, 55.4 61.08, 48.75 66.44 M48.75 66.44 C37.8 75.04, 35.16 73.12, 29.25 66.44 M48.75 66.44 C41.78 75.41, 41.75 76.08, 29.25 66.44 M29.25 66.44 C19.11 59.47, 11.76 51.61, 9.75 48.75 M29.25 66.44 C22.79 61.63, 16.3 54.87, 9.75 48.75 M9.75 48.75 C-0.75 36.85, -3.36 40.18, 9.75 29.25 M9.75 48.75 C-4.2 40.33, -0.26 38.88, 9.75 29.25 M9.75 29.25 C20 22.98, 26.79 13.24, 29.25 9.75 M9.75 29.25 C13.8 26.66, 18.08 20.01, 29.25 9.75 M29.25 9.75 C36.58 0.35, 40.64 1.4, 48.75 9.75 M29.25 9.75 C41.23 -4.03, 38.17 1.45, 48.75 9.75" stroke="#f08c00" stroke-width="1" fill="none"></path></g><g transform="translate(552.7628686738199 484.99253741898065) rotate(0 32.20101592441824 21.982560204402944)"><text x="0" y="35.37818282896091" font-family="Cascadia, Segoe UI Emoji" font-size="36.63760034067149px" fill="#f08c00" text-anchor="start" style="white-space: pre;" direction="ltr" dominant-baseline="alphabetic">...</text></g><g stroke-linecap="round"><g transform="translate(217.88541818961403 165.8481172217762) rotate(0 181.7232091830865 52.4954892142332)"><path d="M-0.94 0.2 C60.09 17.36, 304.1 88.43, 365.24 105.44 M3.74 -2.15 C64.65 15.3, 303.69 83, 363.98 100.68" stroke="#f08c00" stroke-width="1" fill="none"></path></g><g transform="translate(217.88541818961403 165.8481172217762) rotate(0 181.7232091830865 52.4954892142332)"><path d="M3.32 -13.25 C2.48 -9.06, -0.32 -7.45, -0.18 -1.13 M3.45 -14.29 C1.77 -9.54, 1.27 -4.54, -1.12 -0.36" stroke="#f08c00" stroke-width="1" fill="none"></path></g><g transform="translate(217.88541818961403 165.8481172217762) rotate(0 181.7232091830865 52.4954892142332)"><path d="M-4.99 15.58 C-3.88 12.13, -4.47 6.09, -0.18 -1.13 M-4.86 14.54 C-3.92 10.29, -1.8 6.2, -1.12 -0.36" stroke="#f08c00" stroke-width="1" fill="none"></path></g><g transform="translate(217.88541818961403 165.8481172217762) rotate(0 181.7232091830865 52.4954892142332)"><path d="M339.19 103.69 C345.98 103.81, 350.35 100.39, 364.99 98.9 M339.36 102.3 C346.72 102.31, 355.65 102.38, 363.74 99.93" stroke="#f08c00" stroke-width="1" fill="none"></path></g><g transform="translate(217.88541818961403 165.8481172217762) rotate(0 181.7232091830865 52.4954892142332)"><path d="M343.91 87.25 C349.59 91.72, 352.71 92.67, 364.99 98.9 M344.09 85.86 C349.96 91.01, 357.4 96.25, 363.74 99.93" stroke="#f08c00" stroke-width="1" fill="none"></path></g></g><mask></mask><g stroke-linecap="round"><g transform="translate(1179.2102985657602 281.39031499783596) rotate(0 -296.47402875208536 -4.079551736173926)"><path d="M1.8 0.45 C-96.45 -1.39, -491.06 -9.66, -590.46 -10.86 M-0.67 -1.77 C-98.99 -3.39, -493.35 -7.08, -591.35 -8.7" stroke="#f08c00" stroke-width="1" fill="none"></path></g><g transform="translate(1179.2102985657602 281.39031499783596) rotate(0 -296.47402875208536 -4.079551736173926)"><path d="M1.74 16.78 C0.12 10.57, 2.41 6.13, 2.02 0.44 M1.37 15.62 C2.19 12.92, 1.4 8.57, 1.54 0.18" stroke="#f08c00" stroke-width="1" fill="none"></path></g><g transform="translate(1179.2102985657602 281.39031499783596) rotate(0 -296.47402875208536 -4.079551736173926)"><path d="M2.34 -13.21 C0.58 -11.43, 2.71 -7.89, 2.02 0.44 M1.96 -14.37 C2.75 -10.76, 1.84 -8.8, 1.54 0.18" stroke="#f08c00" stroke-width="1" fill="none"></path></g><g transform="translate(1179.2102985657602 281.39031499783596) rotate(0 -296.47402875208536 -4.079551736173926)"><path d="M-567.43 -15.18 C-575.96 -15.79, -579.3 -14.19, -591.05 -8.72 M-567.92 -16.73 C-571.79 -14.41, -577.9 -14.26, -591.69 -9.07" stroke="#f08c00" stroke-width="1" fill="none"></path></g><g transform="translate(1179.2102985657602 281.39031499783596) rotate(0 -296.47402875208536 -4.079551736173926)"><path d="M-567.64 1.92 C-576.13 -3.25, -579.41 -6.2, -591.05 -8.72 M-568.14 0.37 C-572.01 -0.91, -578.08 -4.36, -591.69 -9.07" stroke="#f08c00" stroke-width="1" fill="none"></path></g></g><mask></mask><g stroke-linecap="round"><g transform="translate(214.69234571204242 393.946340199509) rotate(0 181.6823506595906 -57.39286057444042)"><path d="M2.49 -2.7 C62.47 -21.67, 301.98 -94.76, 361.71 -113.37 M0.39 2 C61.13 -17.84, 306.22 -98.77, 367.21 -117.61" stroke="#f08c00" stroke-width="1" fill="none"></path></g><g transform="translate(214.69234571204242 393.946340199509) rotate(0 181.6823506595906 -57.39286057444042)"><path d="M-3.38 -17.93 C0.46 -13.19, 1.54 -6.65, 1.14 -2.23 M-1.25 -16.41 C-0.86 -13.47, 0.34 -9.03, 2.52 -2.24" stroke="#f08c00" stroke-width="1" fill="none"></path></g><g transform="translate(214.69234571204242 393.946340199509) rotate(0 181.6823506595906 -57.39286057444042)"><path d="M5.46 10.74 C6.03 5.12, 3.89 1.21, 1.14 -2.23 M7.58 12.26 C5.47 6.93, 4.11 3.07, 2.52 -2.24" stroke="#f08c00" stroke-width="1" fill="none"></path></g><g transform="translate(214.69234571204242 393.946340199509) rotate(0 181.6823506595906 -57.39286057444042)"><path d="M345.53 -103.47 C355.64 -109.82, 362.12 -113.64, 365.42 -116.98 M348.36 -101.45 C352.96 -107.52, 358.57 -111.56, 367.26 -117" stroke="#f08c00" stroke-width="1" fill="none"></path></g><g transform="translate(214.69234571204242 393.946340199509) rotate(0 181.6823506595906 -57.39286057444042)"><path d="M340.3 -119.75 C352.34 -120.22, 360.73 -118.11, 365.42 -116.98 M343.13 -117.73 C349.22 -119.1, 356.34 -118.44, 367.26 -117" stroke="#f08c00" stroke-width="1" fill="none"></path></g></g><mask></mask><g stroke-linecap="round"><g transform="translate(1183.4135458937708 612.1943655747273) rotate(0 -297.5303934193721 -165.45876747304374)"><path d="M-1.65 1.42 C-101.66 -53.22, -498.64 -274.69, -597.55 -330.5 M2.64 -0.28 C-96.75 -54.15, -492.57 -271.41, -592.5 -326.64" stroke="#f08c00" stroke-width="1" fill="none"></path></g><g transform="translate(1183.4135458937708 612.1943655747273) rotate(0 -297.5303934193721 -165.45876747304374)"><path d="M-8.18 13.19 C-5.76 9.46, -4.49 4.85, -1.81 1.16 M-9.12 13.96 C-6.97 9.96, -4.32 6.46, -1.81 0.71" stroke="#f08c00" stroke-width="1" fill="none"></path></g><g transform="translate(1183.4135458937708 612.1943655747273) rotate(0 -297.5303934193721 -165.45876747304374)"><path d="M6.39 -13.03 C2.9 -6.65, -1.5 -1.06, -1.81 1.16 M5.45 -12.26 C3.14 -7.67, 1.08 -2.7, -1.81 0.71" stroke="#f08c00" stroke-width="1" fill="none"></path></g><g transform="translate(1183.4135458937708 612.1943655747273) rotate(0 -297.5303934193721 -165.45876747304374)"><path d="M-566.78 -324.58 C-577.06 -324.46, -588.76 -325.3, -592.71 -326.99 M-568.03 -323.56 C-576.15 -324.2, -583.74 -324.46, -592.71 -327.59" stroke="#f08c00" stroke-width="1" fill="none"></path></g><g transform="translate(1183.4135458937708 612.1943655747273) rotate(0 -297.5303934193721 -165.45876747304374)"><path d="M-575.03 -309.6 C-581.96 -315.26, -590.45 -321.92, -592.71 -326.99 M-576.28 -308.58 C-581.87 -314.13, -586.8 -319.23, -592.71 -327.59" stroke="#f08c00" stroke-width="1" fill="none"></path></g></g><mask></mask><g transform="translate(44.579293959940514 99.10843026393923) rotate(0 73.828125 21.600000000000364)"><text x="0" y="34.762499999999996" font-family="Cascadia, Segoe UI Emoji" font-size="36px" fill="#f08c00" text-anchor="start" style="white-space: pre;" direction="ltr" dominant-baseline="alphabetic">m ports</text></g><g transform="translate(595.2895094098653 84.69364982671505) rotate(0 94.921875 64.80000000000018)"><text x="189.84375" y="34.762499999999996" font-family="Cascadia, Segoe UI Emoji" font-size="36px" fill="#f08c00" text-anchor="end" style="white-space: pre;" direction="ltr" dominant-baseline="alphabetic">listening</text><text x="189.84375" y="77.96249999999999" font-family="Cascadia, Segoe UI Emoji" font-size="36px" fill="#f08c00" text-anchor="end" style="white-space: pre;" direction="ltr" dominant-baseline="alphabetic">on 1</text><text x="189.84375" y="121.1625" font-family="Cascadia, Segoe UI Emoji" font-size="36px" fill="#f08c00" text-anchor="end" style="white-space: pre;" direction="ltr" dominant-baseline="alphabetic">port</text></g><g transform="translate(438.44162963519966 729.930918279766) rotate(0 200.390625 21.600000000000364)"><text x="200.390625" y="34.762499999999996" font-family="Cascadia, Segoe UI Emoji" font-size="36px" fill="#f08c00" text-anchor="middle" style="white-space: pre;" direction="ltr" dominant-baseline="alphabetic">m*(n-1) connections</text></g><g stroke-linecap="round" transform="translate(974.4773228273461 74.22938101103136) rotate(0 148.67484973156297 310.26021008440784)"><path d="M32 0 C110.19 3.72, 189.65 -0.13, 265.35 0 M32 0 C84.5 2.47, 136.49 -0.16, 265.35 0 M265.35 0 C288.02 -0.44, 300.99 10.42, 297.35 32 M265.35 0 C285.3 -1.31, 292.93 7.14, 297.35 32 M297.35 32 C296.56 234.12, 295.12 433.93, 297.35 588.52 M297.35 32 C296.93 160.27, 297.45 287.66, 297.35 588.52 M297.35 588.52 C298.06 612.56, 287.77 621.82, 265.35 620.52 M297.35 588.52 C296.48 607.38, 282.82 621.88, 265.35 620.52 M265.35 620.52 C216.57 623.21, 170.53 623.46, 32 620.52 M265.35 620.52 C177.49 621.29, 89.09 621.91, 32 620.52 M32 620.52 C9.99 623.24, -0.41 607.59, 0 588.52 M32 620.52 C7.88 620.92, 1.88 611.46, 0 588.52 M0 588.52 C4.41 395.25, 4.95 199.64, 0 32 M0 588.52 C0.6 449.94, -0.63 311.25, 0 32 M0 32 C1.85 13.07, 11.13 -2.94, 32 0 M0 32 C2.36 7.56, 6.73 -3.21, 32 0" stroke="#f08c00" stroke-width="1" fill="none"></path></g><g stroke-linecap="round" transform="translate(1142.7402069493755 125.8056298176707) rotate(0 37.45000618367044 37.431027972289485)"><path d="M47.5 9.5 C55.98 13.59, 54.69 18.53, 65.4 28.5 M47.5 9.5 C51.81 12.4, 57.62 19.07, 65.4 28.5 M65.4 28.5 C78.54 37.75, 73.7 36.86, 65.4 47.5 M65.4 28.5 C70.48 34.47, 77.68 37.23, 65.4 47.5 M65.4 47.5 C55.26 55.92, 49.71 60.51, 47.5 65.36 M65.4 47.5 C61.79 51.41, 57.15 57.49, 47.5 65.36 M47.5 65.36 C39.09 76.16, 37.25 72.71, 28.5 65.36 M47.5 65.36 C34.14 76.22, 33.8 76.2, 28.5 65.36 M28.5 65.36 C25.96 64.17, 20.34 56.8, 9.5 47.5 M28.5 65.36 C20.56 57.65, 14.66 53.65, 9.5 47.5 M9.5 47.5 C-0.41 35.74, -2.42 38.35, 9.5 28.5 M9.5 47.5 C1.88 39.61, 2.23 33.97, 9.5 28.5 M9.5 28.5 C17.35 20.69, 18.07 17.75, 28.5 9.5 M9.5 28.5 C14.85 21.79, 23.88 15.84, 28.5 9.5 M28.5 9.5 C38.46 -2.94, 40.06 -2.7, 47.5 9.5 M28.5 9.5 C34.06 -3.21, 38.09 3.91, 47.5 9.5" stroke="#f08c00" stroke-width="1" fill="none"></path></g><g stroke-linecap="round" transform="translate(1144.7256257069985 238.05502948138383) rotate(0 37.45000618367044 37.431027972289485)"><path d="M47.5 9.5 C51.78 15.61, 60.32 24.58, 65.4 28.5 M47.5 9.5 C54.56 16.49, 62.18 23.45, 65.4 28.5 M65.4 28.5 C73.7 36.86, 71.06 34.93, 65.4 47.5 M65.4 28.5 C77.68 37.23, 77.65 37.89, 65.4 47.5 M65.4 47.5 C55.23 54.49, 48.51 60.6, 47.5 65.36 M65.4 47.5 C59.75 54.88, 53.81 60.3, 47.5 65.36 M47.5 65.36 C37.25 72.71, 34.64 76.05, 28.5 65.36 M47.5 65.36 C33.8 76.2, 37.74 74.74, 28.5 65.36 M28.5 65.36 C23.91 60.44, 15.82 51.34, 9.5 47.5 M28.5 65.36 C24.34 62.73, 20.42 56.44, 9.5 47.5 M9.5 47.5 C-2.42 38.35, 1.64 39.4, 9.5 28.5 M9.5 47.5 C2.23 33.97, -0.83 39.45, 9.5 28.5 M9.5 28.5 C13.77 22.3, 24.89 19.37, 28.5 9.5 M9.5 28.5 C16.61 23.69, 21.88 15.06, 28.5 9.5 M28.5 9.5 C40.06 -2.7, 34.58 -2.79, 47.5 9.5 M28.5 9.5 C38.09 3.91, 41.98 2.6, 47.5 9.5" stroke="#f08c00" stroke-width="1" fill="none"></path></g><g stroke-linecap="round" transform="translate(1144.7256257069994 354.6702960300281) rotate(0 37.45000618367044 37.431027972289485)"><path d="M47.5 9.5 C50.7 15.04, 59.55 19.26, 65.4 28.5 M47.5 9.5 C53.12 13.32, 54.38 16.77, 65.4 28.5 M65.4 28.5 C71.06 34.93, 77.32 37.33, 65.4 47.5 M65.4 28.5 C77.65 37.89, 79.18 33.75, 65.4 47.5 M65.4 47.5 C56.54 52.49, 54.63 61.17, 47.5 65.36 M65.4 47.5 C61.08 53.31, 55.23 56.5, 47.5 65.36 M47.5 65.36 C34.64 76.05, 34.35 76.02, 28.5 65.36 M47.5 65.36 C37.74 74.74, 41.97 78.36, 28.5 65.36 M28.5 65.36 C23.02 57.91, 9.79 49.02, 9.5 47.5 M28.5 65.36 C23.61 60.03, 17.86 56.87, 9.5 47.5 M9.5 47.5 C1.64 39.4, 1.94 34.49, 9.5 28.5 M9.5 47.5 C-0.83 39.45, 2.06 41, 9.5 28.5 M9.5 28.5 C16.85 27.63, 19.47 16.87, 28.5 9.5 M9.5 28.5 C15.49 20.87, 22.22 15.05, 28.5 9.5 M28.5 9.5 C34.58 -2.79, 38.08 3.4, 47.5 9.5 M28.5 9.5 C41.98 2.6, 39.41 -0.9, 47.5 9.5" stroke="#f08c00" stroke-width="1" fill="none"></path></g><g stroke-linecap="round" transform="translate(1146.5643356353958 573.7262054302591) rotate(0 37.45000618367044 37.431027972289485)"><path d="M47.5 9.5 C54.57 13.68, 53.08 20.91, 65.4 28.5 M47.5 9.5 C52.42 14.44, 56.27 18.97, 65.4 28.5 M65.4 28.5 C77.32 37.33, 77.29 37.91, 65.4 47.5 M65.4 28.5 C79.18 33.75, 76.81 34.77, 65.4 47.5 M65.4 47.5 C61.59 54.17, 53.61 58.67, 47.5 65.36 M65.4 47.5 C58.54 53.1, 50.66 61.34, 47.5 65.36 M47.5 65.36 C34.35 76.02, 37.78 74.76, 28.5 65.36 M47.5 65.36 C41.97 78.36, 42.3 78.33, 28.5 65.36 M28.5 65.36 C18.34 56.79, 13.35 52.46, 9.5 47.5 M28.5 65.36 C20.33 58.75, 15.37 52.7, 9.5 47.5 M9.5 47.5 C1.94 34.49, -0.72 39.26, 9.5 28.5 M9.5 47.5 C2.06 41, -2.63 35.66, 9.5 28.5 M9.5 28.5 C15.57 19.99, 21.28 18.46, 28.5 9.5 M9.5 28.5 C17.32 20.59, 21.42 13.7, 28.5 9.5 M28.5 9.5 C38.08 3.4, 41.46 2.27, 47.5 9.5 M28.5 9.5 C39.41 -0.9, 33.68 2.24, 47.5 9.5" stroke="#f08c00" stroke-width="1" fill="none"></path></g><g transform="translate(1150.82332120513 480.93493296362067) rotate(0 31.640625 21.600000000000364)"><text x="0" y="34.762499999999996" font-family="Cascadia, Segoe UI Emoji" font-size="36px" fill="#f08c00" text-anchor="start" style="white-space: pre;" direction="ltr" dominant-baseline="alphabetic">...</text></g><g transform="translate(1009.0566167872876 95.9317103430476) rotate(0 73.828125 21.600000000000364)"><text x="0" y="34.762499999999996" font-family="Cascadia, Segoe UI Emoji" font-size="36px" fill="#f08c00" text-anchor="start" style="white-space: pre;" direction="ltr" dominant-baseline="alphabetic">m ports</text></g><g transform="translate(572.1746474832144 10) rotate(0 63.28125 21.600000000000364)"><text x="63.28125" y="34.762499999999996" font-family="Cascadia, Segoe UI Emoji" font-size="36px" fill="#f08c00" text-anchor="middle" style="white-space: pre;" direction="ltr" dominant-baseline="alphabetic">server</text></g><g transform="translate(1057.9488726982408 20.20839872725628) rotate(0 63.28125 21.600000000000364)"><text x="63.28125" y="34.762499999999996" font-family="Cascadia, Segoe UI Emoji" font-size="36px" fill="#f08c00" text-anchor="middle" style="white-space: pre;" direction="ltr" dominant-baseline="alphabetic">client</text></g><g transform="translate(94.18565757921306 23.713830930009863) rotate(0 63.28125 21.600000000000364)"><text x="63.28125" y="34.762499999999996" font-family="Cascadia, Segoe UI Emoji" font-size="36px" fill="#f08c00" text-anchor="middle" style="white-space: pre;" direction="ltr" dominant-baseline="alphabetic">client</text></g><g stroke-linecap="round"><g transform="translate(1183.1633486441997 392.0986409717152) rotate(0 -301.5299464576731 -53.455053547814714)"><path d="M2.37 -2.38 C-98.26 -20.91, -500.4 -91.09, -601.11 -108.81 M0.22 2.5 C-100.85 -14.5, -501.74 -88.03, -602.28 -106.21" stroke="#f08c00" stroke-width="1" fill="none"></path></g><g transform="translate(1183.1633486441997 392.0986409717152) rotate(0 -301.5299464576731 -53.455053547814714)"><path d="M-1.51 13.44 C-0.35 7.17, 0.74 1.19, 1.94 -0.97 M-0.24 11.68 C1.11 7.24, 1.7 2.14, 1.91 -2.88" stroke="#f08c00" stroke-width="1" fill="none"></path></g><g transform="translate(1183.1633486441997 392.0986409717152) rotate(0 -301.5299464576731 -53.455053547814714)"><path d="M3.71 -16.11 C3.06 -10.64, 2.08 -4.92, 1.94 -0.97 M4.98 -17.86 C4.73 -11.99, 3.5 -6.83, 1.91 -2.88" stroke="#f08c00" stroke-width="1" fill="none"></path></g><g transform="translate(1183.1633486441997 392.0986409717152) rotate(0 -301.5299464576731 -53.455053547814714)"><path d="M-579.34 -109.02 C-588.71 -107.68, -598.39 -106.19, -602.87 -104.33 M-577.64 -111.36 C-585.45 -108.79, -594.44 -107.29, -602.9 -106.88" stroke="#f08c00" stroke-width="1" fill="none"></path></g><g transform="translate(1183.1633486441997 392.0986409717152) rotate(0 -301.5299464576731 -53.455053547814714)"><path d="M-582.4 -92.19 C-590.7 -97.54, -599.17 -102.7, -602.87 -104.33 M-580.71 -94.53 C-587.57 -97.84, -595.5 -102.19, -602.9 -106.88" stroke="#f08c00" stroke-width="1" fill="none"></path></g></g><mask></mask><g stroke-linecap="round"><g transform="translate(1180.2234241524234 165.12938826015852) rotate(0 -298.7677575271923 61.40688593087907)"><path d="M0.97 -2.76 C-98.74 17.79, -498.04 103.1, -598.14 124.23 M-1.94 1.91 C-102.09 21.55, -502.04 100.44, -600.7 119.99" stroke="#f08c00" stroke-width="1" fill="none"></path></g><g transform="translate(1180.2234241524234 165.12938826015852) rotate(0 -298.7677575271923 61.40688593087907)"><path d="M2.6 11.59 C3.85 6.35, 2.8 4.18, 1.23 -3.74 M3.36 12.12 C2.43 7.97, 2.06 3.68, 1.03 -2.04" stroke="#f08c00" stroke-width="1" fill="none"></path></g><g transform="translate(1180.2234241524234 165.12938826015852) rotate(0 -298.7677575271923 61.40688593087907)"><path d="M-3.61 -17.75 C-0.38 -14.1, 0.46 -7.34, 1.23 -3.74 M-2.85 -17.23 C-1.75 -12.73, -0.3 -8.38, 1.03 -2.04" stroke="#f08c00" stroke-width="1" fill="none"></path></g><g transform="translate(1180.2234241524234 165.12938826015852) rotate(0 -298.7677575271923 61.40688593087907)"><path d="M-581.28 106.62 C-584.76 109.57, -591.39 116.56, -600.36 118.68 M-580.27 107.31 C-586.37 111.39, -591.95 115.24, -600.62 120.95" stroke="#f08c00" stroke-width="1" fill="none"></path></g><g transform="translate(1180.2234241524234 165.12938826015852) rotate(0 -298.7677575271923 61.40688593087907)"><path d="M-577.97 123.39 C-582.51 121.25, -590.15 123.14, -600.36 118.68 M-576.95 124.09 C-584.14 123.22, -590.7 122.14, -600.62 120.95" stroke="#f08c00" stroke-width="1" fill="none"></path></g></g><mask></mask><g stroke-linecap="round"><g transform="translate(214.81831988945987 278.2456780588327) rotate(0 183.8997847338137 0.28975184699902456)"><path d="M-1.61 -2.41 C60.36 -1.79, 308.52 2.82, 369.78 2.97 M2.71 2.46 C64.67 2.4, 307.1 -0.41, 368.61 -0.75" stroke="#f08c00" stroke-width="1" fill="none"></path></g><g transform="translate(214.81831988945987 278.2456780588327) rotate(0 183.8997847338137 0.28975184699902456)"><path d="M-2.67 -16.35 C-0.19 -15, -2.65 -10.03, -0.82 -0.98 M-1.23 -16.7 C-1.64 -12.52, -2.04 -6.4, -1.65 -2.8" stroke="#f08c00" stroke-width="1" fill="none"></path></g><g transform="translate(214.81831988945987 278.2456780588327) rotate(0 183.8997847338137 0.28975184699902456)"><path d="M-3.13 13.65 C-0.47 8.21, -2.83 6.39, -0.82 -0.98 M-1.69 13.29 C-1.74 6.94, -1.98 2.52, -1.65 -2.8" stroke="#f08c00" stroke-width="1" fill="none"></path></g><g transform="translate(214.81831988945987 278.2456780588327) rotate(0 183.8997847338137 0.28975184699902456)"><path d="M343.48 9.42 C352.23 4.84, 354.33 4.96, 369.67 1.15 M345.4 8.94 C353.38 4.31, 361.18 2.36, 368.56 -1.27" stroke="#f08c00" stroke-width="1" fill="none"></path></g><g transform="translate(214.81831988945987 278.2456780588327) rotate(0 183.8997847338137 0.28975184699902456)"><path d="M343.33 -7.68 C352.07 -8.39, 354.2 -4.39, 369.67 1.15 M345.25 -8.16 C353.17 -6.78, 361.02 -2.72, 368.56 -1.27" stroke="#f08c00" stroke-width="1" fill="none"></path></g></g><mask></mask><g stroke-linecap="round"><g transform="translate(214.30236673630247 613.1775981629507) rotate(0 186.7767593854436 -170.21500509228008)"><path d="M0.89 1.75 C62.7 -55.66, 309.34 -284.78, 371.63 -341.91 M-2.07 0.23 C60.56 -55.62, 314.41 -282.67, 376.99 -339.09" stroke="#f08c00" stroke-width="1" fill="none"></path></g><g transform="translate(214.30236673630247 613.1775981629507) rotate(0 186.7767593854436 -170.21500509228008)"><path d="M-8.37 -10.28 C-6.65 -5.08, -2.82 -3.11, 2.25 1.19 M-9.84 -9.44 C-7.49 -7.79, -5.18 -4.5, 1.6 1.39" stroke="#f08c00" stroke-width="1" fill="none"></path></g><g transform="translate(214.30236673630247 613.1775981629507) rotate(0 186.7767593854436 -170.21500509228008)"><path d="M12.03 11.71 C6.84 9.73, 3.95 4.47, 2.25 1.19 M10.57 12.55 C8.82 9.97, 7.04 8.85, 1.6 1.39" stroke="#f08c00" stroke-width="1" fill="none"></path></g><g transform="translate(214.30236673630247 613.1775981629507) rotate(0 186.7767593854436 -170.21500509228008)"><path d="M366.46 -318.41 C367.83 -323.57, 372.33 -333.02, 378.8 -339.84 M364.51 -317.29 C367.27 -322.43, 369.98 -325.4, 377.94 -339.57" stroke="#f08c00" stroke-width="1" fill="none"></path></g><g transform="translate(214.30236673630247 613.1775981629507) rotate(0 186.7767593854436 -170.21500509228008)"><path d="M355.04 -331.14 C360.29 -332.14, 368.55 -337.4, 378.8 -339.84 M353.09 -330.01 C358.14 -332.71, 363.14 -333.13, 377.94 -339.57" stroke="#f08c00" stroke-width="1" fill="none"></path></g></g><mask></mask></svg>